{"glyphs":{"0":{"ha":806,"x_min":64,"x_max":742,"o":"m 140 486 q 158 654 140 576 q 210 790 176 732 q 293 881 244 849 q 403 914 342 914 q 513 881 465 914 q 595 790 561 849 q 647 654 629 732 q 665 486 665 576 q 647 318 665 396 q 595 182 629 240 q 513 91 561 124 q 403 58 465 58 q 293 91 342 58 q 210 182 244 124 q 158 318 176 240 q 140 486 140 396 m 64 486 q 106 231 64 343 q 224 52 147 118 q 403 -14 300 -14 q 582 52 506 -14 q 700 231 658 118 q 742 486 742 343 q 700 742 742 629 q 582 920 658 854 q 403 986 506 986 q 224 920 300 986 q 106 742 147 854 q 64 486 64 629 z "},"1":{"ha":603,"x_min":119,"x_max":419,"o":"m 119 832 l 343 890 l 343 0 l 419 0 l 419 983 l 119 911 l 119 832 z "},"2":{"ha":760,"x_min":31,"x_max":694,"o":"m 31 0 l 694 0 l 694 72 l 190 72 l 544 438 q 638 564 600 494 q 676 713 676 633 q 660 805 676 757 q 608 894 643 853 q 517 961 572 935 q 386 988 463 988 q 223 944 292 988 q 117 822 154 900 q 81 639 81 743 l 157 639 q 185 785 157 722 q 264 881 213 847 q 386 915 315 915 q 480 897 440 915 q 546 848 519 878 q 585 782 572 818 q 597 710 597 746 q 583 624 597 664 q 542 550 568 585 q 485 479 517 515 l 31 0 z "},"3":{"ha":761,"x_min":86,"x_max":688,"o":"m 349 489 q 505 520 435 489 q 617 607 575 551 q 660 733 660 663 q 628 857 660 800 q 538 950 597 914 q 396 986 479 986 q 256 953 317 986 q 162 864 196 921 q 128 731 128 807 l 201 731 q 256 864 201 811 q 397 917 310 917 q 498 891 457 917 q 560 823 539 865 q 582 731 582 781 q 563 652 582 688 q 512 592 544 617 q 438 553 479 567 q 349 539 396 539 l 349 489 m 390 -14 q 544 19 478 -14 q 649 113 611 53 q 688 251 688 172 q 659 372 688 321 q 582 456 631 424 q 473 505 533 489 q 349 521 413 521 l 349 471 q 442 458 396 471 q 526 418 488 444 q 587 352 564 392 q 610 260 610 313 q 583 155 610 200 q 506 84 556 110 q 390 58 457 58 q 269 84 321 58 q 191 155 218 110 q 164 257 164 200 l 86 257 q 107 151 86 200 q 167 65 128 101 q 263 7 207 28 q 390 -14 319 -14 z "},"4":{"ha":793,"x_min":31,"x_max":749,"o":"m 31 194 l 749 194 l 749 263 l 567 263 l 551 263 l 158 263 l 519 796 l 519 238 l 519 225 l 519 0 l 596 0 l 596 972 l 567 972 l 31 194 z "},"5":{"ha":779,"x_min":56,"x_max":717,"o":"m 708 319 q 671 485 708 414 q 569 596 633 556 q 424 636 504 636 q 316 616 365 636 q 233 567 267 596 l 317 904 l 717 904 l 717 972 l 258 972 l 131 454 q 215 519 175 494 q 299 556 256 544 q 393 567 342 567 q 514 535 461 567 q 598 449 567 504 q 629 319 629 393 q 598 179 629 238 q 510 90 567 121 q 379 58 454 58 q 268 81 318 58 q 181 144 218 104 q 121 233 144 185 l 56 190 q 128 85 85 132 q 234 13 172 39 q 379 -14 296 -14 q 507 7 447 -14 q 612 69 567 28 q 683 174 657 111 q 708 319 708 236 z "},"6":{"ha":778,"x_min":69,"x_max":708,"o":"m 143 314 q 174 441 143 383 q 262 533 206 499 q 394 567 318 567 q 517 534 463 567 q 603 444 571 501 q 635 314 635 386 q 603 181 635 239 q 517 90 572 124 q 389 56 461 56 q 261 90 317 56 q 174 181 206 124 q 143 314 143 239 m 458 972 l 138 524 q 90 429 110 485 q 69 314 69 374 q 110 143 69 217 q 224 28 151 69 q 389 -14 296 -14 q 555 28 483 -14 q 667 143 626 69 q 708 314 708 217 q 686 435 708 379 q 624 534 664 492 q 533 600 585 576 q 421 624 481 624 q 314 605 361 624 q 232 544 267 586 l 238 540 l 554 972 l 458 972 z "},"7":{"ha":724,"x_min":44,"x_max":714,"o":"m 44 900 l 599 900 l 149 0 l 229 0 l 714 972 l 44 972 l 44 900 z "},"8":{"ha":742,"x_min":82,"x_max":660,"o":"m 114 743 q 134 644 114 689 q 189 567 154 599 q 270 517 224 535 q 371 500 317 500 q 472 517 425 500 q 553 567 518 535 q 608 644 588 599 q 628 743 628 689 q 594 865 628 810 q 502 953 560 919 q 371 986 444 986 q 240 953 297 986 q 148 865 182 919 q 114 743 114 810 m 188 735 q 211 828 188 786 q 276 894 235 869 q 371 918 318 918 q 466 894 425 918 q 531 828 507 869 q 554 735 554 786 q 527 639 554 681 q 458 574 500 597 q 371 550 415 550 q 284 574 326 550 q 215 639 242 597 q 188 735 188 681 m 82 261 q 103 154 82 204 q 162 67 124 104 q 253 8 200 29 q 371 -14 306 -14 q 489 8 436 -14 q 580 67 542 29 q 639 154 618 104 q 660 261 660 204 q 636 374 660 324 q 572 459 613 424 q 480 513 532 494 q 371 532 428 532 q 262 513 314 532 q 169 459 210 494 q 106 374 129 424 q 82 261 82 324 m 156 269 q 187 378 156 331 q 267 454 218 426 q 371 482 317 482 q 474 454 425 482 q 555 378 524 426 q 586 269 586 331 q 558 156 586 204 q 481 81 529 107 q 371 54 432 54 q 261 81 310 54 q 184 156 213 107 q 156 269 156 204 z "},"9":{"ha":778,"x_min":69,"x_max":708,"o":"m 635 658 q 603 532 635 589 q 516 440 572 475 q 383 406 460 406 q 262 439 317 406 q 175 529 207 472 q 143 658 143 586 q 174 792 143 733 q 261 883 206 850 q 389 917 317 917 q 517 883 461 917 q 603 792 572 850 q 635 658 635 733 m 319 0 l 640 449 q 688 543 668 488 q 708 658 708 599 q 667 829 708 756 q 555 944 626 903 q 389 986 483 986 q 224 944 296 986 q 110 829 151 903 q 69 658 69 756 q 92 537 69 593 q 153 438 114 481 q 245 372 193 396 q 357 349 297 349 q 464 367 417 349 q 546 428 511 386 l 540 432 l 224 0 l 319 0 z "}," ":{"ha":417,"x_min":0,"x_max":0,"o":""}," ":{"ha":417,"x_min":0,"x_max":0,"o":""},"A":{"ha":883,"x_min":13,"x_max":871,"o":"m 194 326 l 693 326 l 668 399 l 219 399 l 194 326 m 442 833 l 633 369 l 640 351 l 785 0 l 871 0 l 442 1010 l 13 0 l 99 0 l 244 357 l 253 374 l 442 833 z "},"À":{"ha":883,"x_min":13,"x_max":871,"o":"m 193 326 l 693 326 l 668 399 l 218 399 l 193 326 m 442 833 l 633 369 l 640 351 l 785 0 l 871 0 l 442 1010 l 13 0 l 99 0 l 244 357 l 253 374 l 442 833 m 258 1306 l 504 1093 l 544 1121 l 325 1343 l 258 1306 z "},"Á":{"ha":883,"x_min":13,"x_max":871,"o":"m 193 326 l 693 326 l 668 399 l 218 399 l 193 326 m 442 833 l 633 369 l 640 351 l 785 0 l 871 0 l 442 1010 l 13 0 l 99 0 l 244 357 l 253 374 l 442 833 m 625 1306 l 558 1343 l 339 1121 l 379 1093 l 625 1306 z "},"Â":{"ha":883,"x_min":13,"x_max":871,"o":"m 193 326 l 693 326 l 668 399 l 218 399 l 193 326 m 442 833 l 633 369 l 640 351 l 785 0 l 871 0 l 442 1010 l 13 0 l 99 0 l 244 357 l 253 374 l 442 833 m 442 1214 l 618 1060 l 664 1097 l 442 1292 l 219 1097 l 265 1060 l 442 1214 z "},"Ã":{"ha":883,"x_min":13,"x_max":871,"o":"m 193 326 l 693 326 l 668 399 l 218 399 l 193 326 m 442 833 l 633 369 l 640 351 l 785 0 l 871 0 l 442 1010 l 13 0 l 99 0 l 244 357 l 253 374 l 442 833 m 235 1119 l 283 1088 q 290 1118 283 1101 q 312 1147 296 1135 q 356 1158 328 1158 q 410 1142 388 1158 q 460 1110 433 1126 q 524 1093 486 1093 q 577 1105 553 1093 q 619 1138 601 1117 q 649 1183 638 1158 l 606 1221 q 569 1171 586 1188 q 528 1154 551 1154 q 481 1164 500 1154 q 446 1187 463 1174 q 408 1210 429 1200 q 356 1219 388 1219 q 299 1206 325 1219 q 256 1171 272 1193 q 235 1119 239 1149 z "},"Ä":{"ha":883,"x_min":13,"x_max":871,"o":"m 193 326 l 693 326 l 668 399 l 218 399 l 193 326 m 442 833 l 633 369 l 640 351 l 785 0 l 871 0 l 442 1010 l 13 0 l 99 0 l 244 357 l 253 374 l 442 833 m 529 1156 q 544 1119 529 1135 q 581 1104 560 1104 q 617 1119 603 1104 q 632 1156 632 1135 q 617 1193 632 1178 q 581 1208 603 1208 q 544 1193 560 1208 q 529 1156 529 1178 m 251 1156 q 267 1119 251 1135 q 303 1104 282 1104 q 340 1119 325 1104 q 354 1156 354 1135 q 340 1193 354 1178 q 303 1208 325 1208 q 267 1193 282 1208 q 251 1156 251 1178 z "},"Å":{"ha":883,"x_min":13,"x_max":871,"o":"m 193 326 l 693 326 l 668 399 l 218 399 l 193 326 m 442 833 l 633 369 l 640 351 l 785 0 l 871 0 l 442 1010 l 13 0 l 99 0 l 244 357 l 253 374 l 442 833 m 300 1114 q 344 1013 300 1051 q 442 975 388 975 q 540 1013 496 975 q 583 1114 583 1051 q 540 1215 583 1176 q 442 1253 496 1253 q 344 1215 388 1253 q 300 1114 300 1176 m 349 1114 q 377 1183 349 1157 q 442 1208 406 1208 q 506 1183 478 1208 q 535 1114 535 1157 q 506 1045 535 1071 q 442 1019 478 1019 q 377 1045 406 1019 q 349 1114 349 1071 z "},"Ā":{"ha":883,"x_min":13,"x_max":871,"o":"m 193 326 l 693 326 l 668 399 l 218 399 l 193 326 m 442 833 l 633 369 l 640 351 l 785 0 l 871 0 l 442 1010 l 13 0 l 99 0 l 244 357 l 253 374 l 442 833 m 199 1104 l 685 1104 l 685 1172 l 199 1172 l 199 1104 z "},"Ă":{"ha":883,"x_min":13,"x_max":871,"o":"m 193 326 l 693 326 l 668 399 l 218 399 l 193 326 m 442 833 l 633 369 l 640 351 l 785 0 l 871 0 l 442 1010 l 13 0 l 99 0 l 244 357 l 253 374 l 442 833 m 222 1293 q 247 1201 222 1246 q 320 1127 271 1156 q 442 1099 369 1099 q 564 1127 515 1099 q 637 1201 613 1156 q 661 1293 661 1246 l 596 1293 q 581 1233 596 1264 q 531 1180 565 1201 q 442 1158 496 1158 q 353 1180 388 1158 q 303 1233 318 1201 q 288 1293 288 1264 l 222 1293 z "},"Ą":{"ha":883,"x_min":13,"x_max":925,"o":"m 194 326 l 693 326 l 668 399 l 219 399 l 194 326 m 442 833 l 633 369 l 640 351 l 785 0 l 871 0 l 442 1010 l 13 0 l 99 0 l 244 357 l 253 374 l 442 833 m 894 -204 q 857 -231 879 -219 q 801 -242 835 -242 q 736 -222 763 -242 q 710 -161 710 -203 q 733 -99 710 -129 q 794 -44 757 -69 q 871 0 831 -18 l 833 26 q 740 -29 785 1 q 666 -97 694 -60 q 638 -178 638 -133 q 656 -244 638 -215 q 709 -290 674 -274 q 797 -306 744 -306 q 876 -288 842 -306 q 925 -250 910 -271 l 894 -204 z "},"B":{"ha":740,"x_min":117,"x_max":665,"o":"m 176 522 l 333 522 q 478 547 415 522 q 576 619 540 571 q 611 738 611 667 q 576 867 611 815 q 478 946 542 919 q 328 972 415 972 l 117 972 l 117 0 l 342 0 q 509 31 436 0 q 624 124 582 61 q 665 282 665 186 q 638 398 665 349 q 566 479 611 447 q 464 527 521 511 q 347 543 407 543 l 176 543 l 176 499 l 342 499 q 435 485 392 499 q 514 444 479 471 q 568 377 549 417 q 588 286 588 338 q 557 166 588 214 q 471 93 526 118 q 342 68 415 68 l 193 68 l 193 904 l 328 904 q 478 859 422 904 q 535 733 535 814 q 507 640 535 676 q 432 585 479 603 q 328 567 385 567 l 176 567 l 176 522 z "},"C":{"ha":951,"x_min":61,"x_max":849,"o":"m 143 486 q 196 706 143 611 q 338 853 249 800 q 536 907 426 907 q 661 892 604 907 q 765 847 718 876 q 849 775 813 817 l 849 876 q 715 958 788 931 q 536 985 643 985 q 348 948 435 985 q 197 844 261 911 q 97 686 133 778 q 61 486 61 594 q 97 286 61 378 q 197 128 133 194 q 348 24 261 61 q 536 -12 435 -12 q 715 15 643 -12 q 849 96 788 42 l 849 199 q 766 126 813 157 q 663 81 719 96 q 536 65 606 65 q 338 119 426 65 q 196 268 249 174 q 143 486 143 363 z "},"Ç":{"ha":951,"x_min":61,"x_max":849,"o":"m 143 486 q 196 706 143 611 q 338 853 249 800 q 536 907 426 907 q 661 892 604 907 q 765 847 718 876 q 849 775 813 817 l 849 876 q 715 958 788 931 q 536 985 643 985 q 348 948 435 985 q 197 844 261 911 q 97 686 133 778 q 61 486 61 594 q 97 286 61 378 q 197 128 133 194 q 348 24 261 61 q 536 -12 435 -12 q 715 15 643 -12 q 849 96 788 42 l 849 199 q 766 126 813 157 q 663 81 719 96 q 536 65 606 65 q 338 119 426 65 q 196 268 249 174 q 143 486 143 363 m 525 49 l 422 -140 q 471 -118 444 -125 q 515 -111 497 -111 q 571 -127 550 -111 q 592 -176 592 -143 q 565 -236 592 -215 q 497 -257 538 -257 q 447 -247 467 -257 q 404 -218 428 -237 l 372 -254 q 430 -295 401 -283 q 497 -307 458 -307 q 569 -292 536 -307 q 624 -247 603 -276 q 644 -176 644 -218 q 629 -119 644 -142 q 591 -85 614 -97 q 544 -74 568 -74 q 519 -77 528 -74 q 497 -87 510 -81 l 581 49 l 525 49 z "},"Ć":{"ha":951,"x_min":61,"x_max":849,"o":"m 143 486 q 196 706 143 611 q 338 853 249 800 q 536 907 426 907 q 661 892 604 907 q 765 847 718 876 q 849 775 813 817 l 849 876 q 715 958 788 931 q 536 985 643 985 q 348 948 435 985 q 197 844 261 911 q 97 686 133 778 q 61 486 61 594 q 97 286 61 378 q 197 128 133 194 q 348 24 261 61 q 536 -12 435 -12 q 715 15 643 -12 q 849 96 788 42 l 849 199 q 766 126 813 157 q 663 81 719 96 q 536 65 606 65 q 338 119 426 65 q 196 268 249 174 q 143 486 143 363 m 719 1281 l 653 1318 l 433 1096 l 474 1068 l 719 1281 z "},"Ĉ":{"ha":951,"x_min":61,"x_max":849,"o":"m 143 486 q 196 706 143 611 q 338 853 249 800 q 536 907 426 907 q 661 892 604 907 q 765 847 718 876 q 849 775 813 817 l 849 876 q 715 958 788 931 q 536 985 643 985 q 348 948 435 985 q 197 844 261 911 q 97 686 133 778 q 61 486 61 594 q 97 286 61 378 q 197 128 133 194 q 348 24 261 61 q 536 -12 435 -12 q 715 15 643 -12 q 849 96 788 42 l 849 199 q 766 126 813 157 q 663 81 719 96 q 536 65 606 65 q 338 119 426 65 q 196 268 249 174 q 143 486 143 363 m 536 1222 l 713 1068 l 758 1106 l 536 1300 l 314 1106 l 360 1068 l 536 1222 z "},"Ċ":{"ha":951,"x_min":61,"x_max":849,"o":"m 143 486 q 196 706 143 611 q 338 853 249 800 q 536 907 426 907 q 661 892 604 907 q 765 847 718 876 q 849 775 813 817 l 849 876 q 715 958 788 931 q 536 985 643 985 q 348 948 435 985 q 197 844 261 911 q 97 686 133 778 q 61 486 61 594 q 97 286 61 378 q 197 128 133 194 q 348 24 261 61 q 536 -12 435 -12 q 715 15 643 -12 q 849 96 788 42 l 849 199 q 766 126 813 157 q 663 81 719 96 q 536 65 606 65 q 338 119 426 65 q 196 268 249 174 q 143 486 143 363 m 485 1126 q 500 1089 485 1104 q 536 1074 515 1074 q 573 1089 558 1074 q 588 1126 588 1104 q 573 1163 588 1147 q 536 1178 558 1178 q 500 1163 515 1178 q 485 1126 485 1147 z "},"Č":{"ha":951,"x_min":61,"x_max":849,"o":"m 143 486 q 196 706 143 611 q 338 853 249 800 q 536 907 426 907 q 661 892 604 907 q 765 847 718 876 q 849 775 813 817 l 849 876 q 715 958 788 931 q 536 985 643 985 q 348 948 435 985 q 197 844 261 911 q 97 686 133 778 q 61 486 61 594 q 97 286 61 378 q 197 128 133 194 q 348 24 261 61 q 536 -12 435 -12 q 715 15 643 -12 q 849 96 788 42 l 849 199 q 766 126 813 157 q 663 81 719 96 q 536 65 606 65 q 338 119 426 65 q 196 268 249 174 q 143 486 143 363 m 536 1151 l 360 1306 l 314 1268 l 536 1074 l 758 1268 l 713 1306 l 536 1151 z "},"D":{"ha":919,"x_min":117,"x_max":858,"o":"m 117 972 l 117 0 l 193 0 l 193 972 l 117 972 m 381 0 q 630 61 522 0 q 798 231 738 122 q 858 486 858 340 q 798 741 858 632 q 630 911 738 850 q 381 972 522 972 l 158 972 l 158 896 l 381 896 q 545 867 471 896 q 672 784 619 838 q 753 655 725 731 q 782 486 782 579 q 753 317 782 393 q 672 188 725 242 q 545 106 619 135 q 381 76 471 76 l 158 76 l 158 0 l 381 0 z "},"Ď":{"ha":919,"x_min":117,"x_max":858,"o":"m 117 972 l 117 0 l 193 0 l 193 972 l 117 972 m 381 0 q 630 61 522 0 q 798 231 738 122 q 858 486 858 340 q 798 741 858 632 q 630 911 738 850 q 381 972 522 972 l 158 972 l 158 896 l 381 896 q 545 867 471 896 q 672 784 619 838 q 753 655 725 731 q 782 486 782 579 q 753 317 782 393 q 672 188 725 242 q 545 106 619 135 q 381 76 471 76 l 158 76 l 158 0 l 381 0 m 451 1163 l 275 1317 l 229 1279 l 451 1085 l 674 1279 l 628 1317 l 451 1163 z "},"E":{"ha":742,"x_min":117,"x_max":639,"o":"m 157 0 l 639 0 l 639 72 l 157 72 l 157 0 m 157 900 l 639 900 l 639 972 l 157 972 l 157 900 m 157 497 l 611 497 l 611 569 l 157 569 l 157 497 m 117 972 l 117 0 l 193 0 l 193 972 l 117 972 z "},"È":{"ha":742,"x_min":117,"x_max":639,"o":"m 157 0 l 639 0 l 639 72 l 157 72 l 157 0 m 157 900 l 639 900 l 639 972 l 157 972 l 157 900 m 157 497 l 611 497 l 611 569 l 157 569 l 157 497 m 117 972 l 117 0 l 193 0 l 193 972 l 117 972 m 183 1281 l 429 1068 l 469 1096 l 250 1318 l 183 1281 z "},"É":{"ha":742,"x_min":117,"x_max":639,"o":"m 157 0 l 639 0 l 639 72 l 157 72 l 157 0 m 157 900 l 639 900 l 639 972 l 157 972 l 157 900 m 157 497 l 611 497 l 611 569 l 157 569 l 157 497 m 117 972 l 117 0 l 193 0 l 193 972 l 117 972 m 572 1281 l 506 1318 l 286 1096 l 326 1068 l 572 1281 z "},"Ê":{"ha":742,"x_min":117,"x_max":639,"o":"m 157 0 l 639 0 l 639 72 l 157 72 l 157 0 m 157 900 l 639 900 l 639 972 l 157 972 l 157 900 m 157 497 l 611 497 l 611 569 l 157 569 l 157 497 m 117 972 l 117 0 l 193 0 l 193 972 l 117 972 m 386 1222 l 563 1068 l 608 1106 l 386 1300 l 164 1106 l 210 1068 l 386 1222 z "},"Ë":{"ha":742,"x_min":117,"x_max":639,"o":"m 157 0 l 639 0 l 639 72 l 157 72 l 157 0 m 157 900 l 639 900 l 639 972 l 157 972 l 157 900 m 157 497 l 611 497 l 611 569 l 157 569 l 157 497 m 117 972 l 117 0 l 193 0 l 193 972 l 117 972 m 474 1149 q 489 1111 474 1126 q 525 1096 504 1096 q 562 1111 547 1096 q 576 1149 576 1126 q 562 1185 576 1169 q 525 1200 547 1200 q 489 1185 504 1200 q 474 1149 474 1169 m 196 1149 q 211 1111 196 1126 q 247 1096 226 1096 q 284 1111 269 1096 q 299 1149 299 1126 q 284 1185 299 1169 q 247 1200 269 1200 q 211 1185 226 1200 q 196 1149 196 1169 z "},"Ē":{"ha":742,"x_min":117,"x_max":639,"o":"m 157 0 l 639 0 l 639 72 l 157 72 l 157 0 m 157 900 l 639 900 l 639 972 l 157 972 l 157 900 m 157 497 l 611 497 l 611 569 l 157 569 l 157 497 m 117 972 l 117 0 l 193 0 l 193 972 l 117 972 m 146 1106 l 632 1106 l 632 1174 l 146 1174 l 146 1106 z "},"Ĕ":{"ha":742,"x_min":117,"x_max":639,"o":"m 157 0 l 639 0 l 639 72 l 157 72 l 157 0 m 157 900 l 639 900 l 639 972 l 157 972 l 157 900 m 157 497 l 611 497 l 611 569 l 157 569 l 157 497 m 117 972 l 117 0 l 193 0 l 193 972 l 117 972 m 164 1263 q 188 1170 164 1215 q 262 1097 213 1125 q 383 1068 311 1068 q 506 1097 457 1068 q 578 1170 554 1125 q 603 1263 603 1215 l 538 1263 q 522 1203 538 1233 q 472 1150 507 1172 q 383 1128 438 1128 q 294 1150 329 1128 q 244 1203 260 1172 q 229 1263 229 1233 l 164 1263 z "},"Ė":{"ha":742,"x_min":117,"x_max":639,"o":"m 157 0 l 639 0 l 639 72 l 157 72 l 157 0 m 157 900 l 639 900 l 639 972 l 157 972 l 157 900 m 157 497 l 611 497 l 611 569 l 157 569 l 157 497 m 117 972 l 117 0 l 193 0 l 193 972 l 117 972 m 326 1121 q 342 1083 326 1099 q 378 1068 357 1068 q 415 1083 400 1068 q 429 1121 429 1099 q 415 1157 429 1142 q 378 1172 400 1172 q 342 1157 357 1172 q 326 1121 326 1142 z "},"Ę":{"ha":742,"x_min":117,"x_max":639,"o":"m 157 0 l 639 0 l 639 72 l 157 72 l 157 0 m 157 900 l 639 900 l 639 972 l 157 972 l 157 900 m 157 497 l 611 497 l 611 569 l 157 569 l 157 497 m 117 972 l 117 0 l 193 0 l 193 972 l 117 972 m 563 -204 q 525 -231 547 -219 q 469 -242 503 -242 q 404 -222 431 -242 q 378 -161 378 -203 q 401 -99 378 -129 q 462 -44 425 -69 q 539 0 499 -18 l 501 26 q 408 -29 453 1 q 334 -97 363 -60 q 306 -178 306 -133 q 324 -244 306 -215 q 377 -290 342 -274 q 465 -306 413 -306 q 544 -288 510 -306 q 593 -250 578 -271 l 563 -204 z "},"Ě":{"ha":742,"x_min":117,"x_max":639,"o":"m 157 0 l 639 0 l 639 72 l 157 72 l 157 0 m 157 900 l 639 900 l 639 972 l 157 972 l 157 900 m 157 497 l 611 497 l 611 569 l 157 569 l 157 497 m 117 972 l 117 0 l 193 0 l 193 972 l 117 972 m 378 1146 l 201 1300 l 156 1263 l 378 1068 l 600 1263 l 554 1300 l 378 1146 z "},"F":{"ha":667,"x_min":117,"x_max":583,"o":"m 157 900 l 583 900 l 583 972 l 157 972 l 157 900 m 157 490 l 569 490 l 569 563 l 157 563 l 157 490 m 117 972 l 117 0 l 193 0 l 193 972 l 117 972 z "},"G":{"ha":1071,"x_min":61,"x_max":1003,"o":"m 571 413 l 919 413 q 883 279 913 342 q 806 168 854 217 q 693 92 758 119 q 546 64 628 64 q 340 118 431 64 q 195 267 249 172 q 142 486 142 363 q 195 706 142 611 q 340 854 249 800 q 546 908 432 908 q 751 858 664 908 q 888 728 839 808 l 943 776 q 843 888 901 842 q 710 960 785 935 q 546 985 636 985 q 353 948 442 985 q 199 844 265 911 q 97 686 133 778 q 61 486 61 594 q 97 286 61 378 q 199 128 133 194 q 353 24 265 61 q 546 -12 442 -12 q 738 28 653 -12 q 882 138 822 68 q 972 297 942 207 q 1003 485 1003 386 l 571 485 l 571 413 z "},"Ĝ":{"ha":1071,"x_min":61,"x_max":1003,"o":"m 571 413 l 919 413 q 883 279 913 342 q 806 168 854 217 q 693 92 758 119 q 546 64 628 64 q 340 118 431 64 q 195 267 249 172 q 142 486 142 363 q 195 706 142 611 q 340 854 249 800 q 546 908 432 908 q 751 858 664 908 q 888 728 839 808 l 943 776 q 843 888 901 842 q 710 960 785 935 q 546 985 636 985 q 353 948 442 985 q 199 844 265 911 q 97 686 133 778 q 61 486 61 594 q 97 286 61 378 q 199 128 133 194 q 353 24 265 61 q 546 -12 442 -12 q 738 28 653 -12 q 882 138 822 68 q 972 297 942 207 q 1003 485 1003 386 l 571 485 l 571 413 m 546 1222 l 722 1068 l 768 1106 l 546 1300 l 324 1106 l 369 1068 l 546 1222 z "},"Ğ":{"ha":1071,"x_min":61,"x_max":1003,"o":"m 571 413 l 919 413 q 883 279 913 342 q 806 168 854 217 q 693 92 758 119 q 546 64 628 64 q 340 118 431 64 q 195 267 249 172 q 142 486 142 363 q 195 706 142 611 q 340 854 249 800 q 546 908 432 908 q 751 858 664 908 q 888 728 839 808 l 943 776 q 843 888 901 842 q 710 960 785 935 q 546 985 636 985 q 353 948 442 985 q 199 844 264 911 q 97 686 133 778 q 61 486 61 594 q 97 286 61 378 q 199 128 133 194 q 353 24 264 61 q 546 -12 442 -12 q 738 28 653 -12 q 882 138 822 68 q 972 296 942 207 q 1003 485 1003 385 l 571 485 l 571 413 m 326 1263 q 351 1170 326 1215 q 424 1097 375 1125 q 546 1068 474 1068 q 668 1097 619 1068 q 741 1170 717 1125 q 765 1263 765 1215 l 700 1263 q 685 1203 700 1233 q 635 1150 669 1172 q 546 1128 600 1128 q 457 1150 492 1128 q 407 1203 422 1172 q 392 1263 392 1233 l 326 1263 z "},"Ġ":{"ha":1071,"x_min":61,"x_max":1003,"o":"m 571 413 l 919 413 q 883 279 913 342 q 806 168 854 217 q 693 92 758 119 q 546 64 628 64 q 340 118 431 64 q 195 267 249 172 q 142 486 142 363 q 195 706 142 611 q 340 854 249 800 q 546 908 432 908 q 751 858 664 908 q 888 728 839 808 l 943 776 q 843 888 901 842 q 710 960 785 935 q 546 985 636 985 q 353 948 442 985 q 199 844 265 911 q 97 686 133 778 q 61 486 61 594 q 97 286 61 378 q 199 128 133 194 q 353 24 265 61 q 546 -12 442 -12 q 738 28 653 -12 q 882 138 822 68 q 972 297 942 207 q 1003 485 1003 386 l 571 485 l 571 413 m 494 1121 q 510 1083 494 1099 q 546 1068 525 1068 q 583 1083 568 1068 q 597 1121 597 1099 q 583 1157 597 1142 q 546 1172 568 1172 q 510 1157 525 1172 q 494 1121 494 1142 z "},"Ģ":{"ha":1071,"x_min":61,"x_max":1003,"o":"m 571 413 l 919 413 q 883 279 913 342 q 806 168 854 217 q 693 92 758 119 q 546 64 628 64 q 340 118 431 64 q 195 267 249 172 q 142 486 142 363 q 195 706 142 611 q 340 854 249 800 q 546 908 432 908 q 751 858 664 908 q 888 728 839 808 l 943 776 q 843 888 901 842 q 710 960 785 935 q 546 985 636 985 q 353 948 442 985 q 199 844 265 911 q 97 686 133 778 q 61 486 61 594 q 97 286 61 378 q 199 128 133 194 q 353 24 265 61 q 546 -12 442 -12 q 738 28 653 -12 q 882 138 822 68 q 972 297 942 207 q 1003 485 1003 386 l 571 485 l 571 413 m 575 -96 l 443 -453 l 496 -471 l 649 -124 l 575 -96 z "},"H":{"ha":956,"x_min":117,"x_max":839,"o":"m 157 493 l 813 493 l 813 565 l 157 565 l 157 493 m 761 972 l 761 0 l 839 0 l 839 972 l 761 972 m 117 972 l 117 0 l 193 0 l 193 972 l 117 972 z "},"Ĥ":{"ha":956,"x_min":117,"x_max":839,"o":"m 157 493 l 813 493 l 813 565 l 157 565 l 157 493 m 761 972 l 761 0 l 839 0 l 839 972 l 761 972 m 117 972 l 117 0 l 193 0 l 193 972 l 117 972 m 478 1222 l 654 1068 l 700 1106 l 478 1300 l 256 1106 l 301 1068 l 478 1222 z "},"I":{"ha":304,"x_min":114,"x_max":190,"o":"m 114 972 l 114 0 l 190 0 l 190 972 l 114 972 z "},"Ì":{"ha":304,"x_min":-43,"x_max":244,"o":"m 114 972 l 114 0 l 190 0 l 190 972 l 114 972 m -43 1281 l 203 1068 l 244 1096 l 25 1318 l -43 1281 z "},"Í":{"ha":304,"x_min":61,"x_max":347,"o":"m 114 972 l 114 0 l 190 0 l 190 972 l 114 972 m 347 1281 l 281 1318 l 61 1096 l 100 1068 l 347 1281 z "},"Î":{"ha":304,"x_min":-71,"x_max":374,"o":"m 114 972 l 114 0 l 190 0 l 190 972 l 114 972 m 151 1222 l 328 1068 l 374 1106 l 151 1300 l -71 1106 l -25 1068 l 151 1222 z "},"Ï":{"ha":304,"x_min":-22,"x_max":326,"o":"m 114 972 l 114 0 l 190 0 l 190 972 l 114 972 m 222 1132 q 238 1094 222 1110 q 274 1079 253 1079 q 311 1094 296 1079 q 326 1132 326 1110 q 311 1168 326 1153 q 274 1183 296 1183 q 238 1168 253 1183 q 222 1132 222 1153 m -22 1132 q -7 1094 -22 1110 q 29 1079 8 1079 q 67 1094 51 1079 q 82 1132 82 1110 q 67 1168 82 1153 q 29 1183 51 1183 q -7 1168 8 1183 q -22 1132 -22 1153 z "},"Ĩ":{"ha":304,"x_min":-49,"x_max":365,"o":"m 114 972 l 114 0 l 190 0 l 190 972 l 114 972 m -49 1135 l 0 1103 q 6 1133 0 1117 q 28 1162 13 1150 q 72 1174 44 1174 q 127 1158 104 1174 q 176 1125 150 1142 q 240 1108 203 1108 q 294 1120 269 1108 q 336 1153 318 1132 q 365 1199 354 1174 l 322 1236 q 286 1186 304 1203 q 244 1169 268 1169 q 198 1179 217 1169 q 163 1202 179 1189 q 125 1225 146 1215 q 72 1235 104 1235 q 15 1222 42 1235 q -28 1186 -11 1208 q -49 1135 -44 1164 z "},"Ī":{"ha":304,"x_min":-72,"x_max":414,"o":"m 114 972 l 114 0 l 190 0 l 190 972 l 114 972 m -72 1106 l 414 1106 l 414 1174 l -72 1174 l -72 1106 z "},"Ĭ":{"ha":304,"x_min":-68,"x_max":371,"o":"m 114 972 l 114 0 l 190 0 l 190 972 l 114 972 m -68 1264 q -44 1172 -68 1217 q 30 1098 -19 1126 q 151 1069 79 1069 q 274 1098 225 1069 q 347 1172 322 1126 q 371 1264 371 1217 l 306 1264 q 290 1203 306 1235 q 240 1151 275 1172 q 151 1129 206 1129 q 63 1151 97 1129 q 13 1203 28 1172 q -3 1264 -3 1235 l -68 1264 z "},"Į":{"ha":304,"x_min":-43,"x_max":244,"o":"m 114 972 l 114 0 l 190 0 l 190 972 l 114 972 m 214 -204 q 176 -231 199 -219 q 121 -242 154 -242 q 56 -222 82 -242 q 29 -161 29 -203 q 53 -99 29 -129 q 113 -44 76 -69 q 190 0 150 -18 l 153 26 q 59 -29 104 1 q -15 -97 14 -60 q -43 -178 -43 -133 q -25 -244 -43 -215 q 28 -290 -7 -274 q 117 -306 64 -306 q 195 -288 161 -306 q 244 -250 229 -271 l 214 -204 z "},"İ":{"ha":304,"x_min":100,"x_max":204,"o":"m 114 972 l 114 0 l 190 0 l 190 972 l 114 972 m 100 1124 q 115 1088 100 1103 q 151 1072 131 1072 q 189 1088 174 1072 q 204 1124 204 1103 q 189 1161 204 1146 q 151 1176 174 1176 q 115 1161 131 1176 q 100 1124 100 1146 z "},"J":{"ha":310,"x_min":-167,"x_max":193,"o":"m -126 -175 l -167 -233 q -131 -264 -156 -247 q -73 -293 -107 -281 q -3 -306 -39 -306 q 83 -292 46 -306 q 144 -251 119 -279 q 181 -182 168 -224 q 193 -83 193 -140 l 193 972 l 119 972 l 119 -69 q 88 -196 119 -158 q 0 -233 57 -233 q -74 -216 -40 -233 q -126 -175 -107 -199 z "},"Ĵ":{"ha":310,"x_min":-167,"x_max":379,"o":"m -126 -175 l -167 -233 q -131 -264 -156 -247 q -73 -293 -107 -281 q -3 -306 -39 -306 q 83 -292 46 -306 q 144 -251 119 -279 q 181 -182 168 -224 q 193 -83 193 -140 l 193 972 l 119 972 l 119 -69 q 88 -196 119 -158 q 0 -233 57 -233 q -74 -216 -40 -233 q -126 -175 -107 -199 m 157 1222 l 333 1068 l 379 1106 l 157 1300 l -65 1106 l -21 1068 l 157 1222 z "},"K":{"ha":724,"x_min":114,"x_max":711,"o":"m 114 972 l 114 0 l 190 0 l 190 972 l 114 972 m 593 972 l 168 515 l 614 0 l 711 0 l 263 517 l 690 972 l 593 972 z "},"Ķ":{"ha":724,"x_min":114,"x_max":711,"o":"m 114 972 l 114 0 l 190 0 l 190 972 l 114 972 m 593 972 l 168 515 l 614 0 l 711 0 l 263 517 l 690 972 l 593 972 m 442 -83 l 310 -440 l 361 -458 l 514 -111 l 442 -83 z "},"L":{"ha":614,"x_min":117,"x_max":594,"o":"m 117 972 l 117 0 l 594 0 l 594 72 l 193 72 l 193 972 l 117 972 z "},"Ĺ":{"ha":614,"x_min":117,"x_max":594,"o":"m 117 972 l 117 0 l 594 0 l 594 72 l 193 72 l 193 972 l 117 972 m 561 1281 l 494 1318 l 275 1096 l 315 1068 l 561 1281 z "},"Ļ":{"ha":614,"x_min":117,"x_max":594,"o":"m 117 972 l 117 0 l 594 0 l 594 72 l 193 72 l 193 972 l 117 972 m 363 -83 l 231 -440 l 283 -458 l 436 -111 l 363 -83 z "},"Ľ":{"ha":614,"x_min":117,"x_max":594,"o":"m 117 972 l 117 0 l 594 0 l 594 72 l 193 72 l 193 972 l 117 972 m 465 985 l 333 629 l 385 610 l 538 957 l 465 985 z "},"M":{"ha":1136,"x_min":67,"x_max":1069,"o":"m 226 769 l 568 113 l 910 769 l 993 0 l 1069 0 l 957 1010 l 568 263 l 179 1010 l 67 0 l 143 0 l 226 769 z "},"N":{"ha":1049,"x_min":117,"x_max":932,"o":"m 856 972 l 856 158 l 117 1010 l 117 0 l 193 0 l 193 811 l 932 -37 l 932 972 l 856 972 z "},"Ñ":{"ha":1015,"x_min":94,"x_max":910,"o":"m 833 972 l 833 158 l 94 1010 l 94 0 l 171 0 l 171 811 l 910 -37 l 910 972 l 833 972 m 293 1081 l 342 1049 q 348 1079 342 1063 q 370 1108 354 1096 q 414 1119 386 1119 q 469 1103 446 1119 q 518 1071 492 1088 q 582 1054 544 1054 q 635 1066 611 1054 q 678 1099 660 1078 q 707 1144 696 1119 l 664 1182 q 628 1132 646 1149 q 586 1115 610 1115 q 540 1125 558 1115 q 504 1148 521 1135 q 467 1171 488 1161 q 414 1181 446 1181 q 357 1167 383 1181 q 314 1132 331 1154 q 293 1081 297 1110 z "},"Ń":{"ha":1015,"x_min":94,"x_max":910,"o":"m 833 972 l 833 158 l 94 1010 l 94 0 l 171 0 l 171 811 l 910 -37 l 910 972 l 833 972 m 731 1261 l 664 1299 l 444 1076 l 485 1049 l 731 1261 z "},"Ņ":{"ha":1015,"x_min":94,"x_max":910,"o":"m 522 -54 l 390 -411 l 443 -429 l 596 -82 l 522 -54 m 833 972 l 833 158 l 94 1010 l 94 0 l 171 0 l 171 811 l 910 -37 l 910 972 l 833 972 z "},"Ň":{"ha":1015,"x_min":94,"x_max":910,"o":"m 522 1165 l 346 1319 l 300 1282 l 522 1088 l 744 1282 l 699 1319 l 522 1165 m 833 972 l 833 158 l 94 1010 l 94 0 l 171 0 l 171 811 l 910 -37 l 910 972 l 833 972 z "},"O":{"ha":1089,"x_min":61,"x_max":1028,"o":"m 142 486 q 194 703 142 608 q 337 853 246 799 q 544 908 428 908 q 752 853 661 908 q 894 703 843 799 q 946 486 946 608 q 894 269 946 365 q 752 119 843 174 q 544 64 661 64 q 337 119 428 64 q 194 269 246 174 q 142 486 142 365 m 61 486 q 97 288 61 379 q 199 130 133 197 q 352 25 264 63 q 544 -12 440 -12 q 737 25 649 -12 q 890 130 825 63 q 992 288 956 197 q 1028 486 1028 379 q 992 684 1028 593 q 890 842 956 775 q 737 947 825 910 q 544 985 649 985 q 352 947 440 985 q 199 842 264 910 q 97 684 133 775 q 61 486 61 593 z "},"Ò":{"ha":1089,"x_min":61,"x_max":1028,"o":"m 142 486 q 194 703 142 608 q 337 853 246 799 q 544 908 428 908 q 752 853 661 908 q 894 703 843 799 q 946 486 946 608 q 894 269 946 365 q 752 119 843 174 q 544 64 661 64 q 337 119 428 64 q 194 269 246 174 q 142 486 142 365 m 61 486 q 97 288 61 379 q 199 130 133 197 q 352 25 264 63 q 544 -12 440 -12 q 737 25 649 -12 q 890 130 825 63 q 992 288 956 197 q 1028 486 1028 379 q 992 684 1028 593 q 890 842 956 775 q 737 947 825 910 q 544 985 649 985 q 352 947 440 985 q 199 842 264 910 q 97 684 133 775 q 61 486 61 593 m 369 1281 l 615 1068 l 656 1096 l 436 1318 l 369 1281 z "},"Ó":{"ha":1089,"x_min":61,"x_max":1028,"o":"m 142 486 q 194 703 142 608 q 337 853 246 799 q 544 908 428 908 q 752 853 661 908 q 894 703 843 799 q 946 486 946 608 q 894 269 946 365 q 752 119 843 174 q 544 64 661 64 q 337 119 428 64 q 194 269 246 174 q 142 486 142 365 m 61 486 q 97 288 61 379 q 199 130 133 197 q 352 25 264 63 q 544 -12 440 -12 q 737 25 649 -12 q 890 130 825 63 q 992 288 956 197 q 1028 486 1028 379 q 992 684 1028 593 q 890 842 956 775 q 737 947 825 910 q 544 985 649 985 q 352 947 440 985 q 199 842 264 910 q 97 684 133 775 q 61 486 61 593 m 719 1281 l 653 1318 l 433 1096 l 474 1068 l 719 1281 z "},"Ô":{"ha":1089,"x_min":61,"x_max":1028,"o":"m 142 486 q 194 703 142 608 q 337 853 246 799 q 544 908 428 908 q 752 853 661 908 q 894 703 843 799 q 946 486 946 608 q 894 269 946 365 q 752 119 843 174 q 544 64 661 64 q 337 119 428 64 q 194 269 246 174 q 142 486 142 365 m 61 486 q 97 288 61 379 q 199 130 133 197 q 352 25 264 63 q 544 -12 440 -12 q 737 25 649 -12 q 890 130 825 63 q 992 288 956 197 q 1028 486 1028 379 q 992 684 1028 593 q 890 842 956 775 q 737 947 825 910 q 544 985 649 985 q 352 947 440 985 q 199 842 264 910 q 97 684 133 775 q 61 486 61 593 m 544 1222 l 721 1068 l 767 1106 l 544 1300 l 322 1106 l 368 1068 l 544 1222 z "},"Õ":{"ha":1089,"x_min":61,"x_max":1028,"o":"m 142 486 q 194 703 142 608 q 337 853 246 799 q 544 908 428 908 q 752 853 661 908 q 894 703 843 799 q 946 486 946 608 q 894 269 946 365 q 752 119 843 174 q 544 64 661 64 q 337 119 428 64 q 194 269 246 174 q 142 486 142 365 m 61 486 q 97 288 61 379 q 199 130 133 197 q 352 25 264 63 q 544 -12 440 -12 q 737 25 649 -12 q 890 130 825 63 q 992 288 956 197 q 1028 486 1028 379 q 992 684 1028 593 q 890 842 956 775 q 737 947 825 910 q 544 985 649 985 q 352 947 440 985 q 199 842 264 910 q 97 684 133 775 q 61 486 61 593 m 338 1111 l 386 1079 q 392 1110 386 1093 q 415 1138 399 1126 q 458 1150 431 1150 q 513 1134 490 1150 q 563 1101 536 1118 q 626 1085 589 1085 q 680 1097 656 1085 q 722 1129 704 1108 q 751 1175 740 1150 l 708 1213 q 672 1163 690 1179 q 631 1146 654 1146 q 584 1156 603 1146 q 549 1178 565 1165 q 511 1201 532 1192 q 458 1211 490 1211 q 401 1198 428 1211 q 358 1163 375 1185 q 338 1111 342 1140 z "},"Ö":{"ha":1089,"x_min":61,"x_max":1028,"o":"m 142 486 q 194 703 142 608 q 337 853 246 799 q 544 908 428 908 q 752 853 661 908 q 894 703 843 799 q 946 486 946 608 q 894 269 946 365 q 752 119 843 174 q 544 64 661 64 q 337 119 428 64 q 194 269 246 174 q 142 486 142 365 m 61 486 q 97 288 61 379 q 199 130 133 197 q 352 25 264 63 q 544 -12 440 -12 q 737 25 649 -12 q 890 130 825 63 q 992 288 956 197 q 1028 486 1028 379 q 992 684 1028 593 q 890 842 956 775 q 737 947 825 910 q 544 985 649 985 q 352 947 440 985 q 199 842 264 910 q 97 684 133 775 q 61 486 61 593 m 636 1138 q 652 1100 636 1115 q 689 1085 668 1085 q 726 1100 711 1085 q 740 1138 740 1115 q 726 1174 740 1158 q 689 1189 711 1189 q 652 1174 668 1189 q 636 1138 636 1158 m 347 1138 q 363 1100 347 1115 q 400 1085 379 1085 q 437 1100 422 1085 q 451 1138 451 1115 q 437 1174 451 1158 q 400 1189 422 1189 q 363 1174 379 1189 q 347 1138 347 1158 z "},"Ō":{"ha":1089,"x_min":61,"x_max":1028,"o":"m 142 486 q 194 703 142 608 q 337 853 246 799 q 544 908 428 908 q 752 853 661 908 q 894 703 843 799 q 946 486 946 608 q 894 269 946 365 q 752 119 843 174 q 544 64 661 64 q 337 119 428 64 q 194 269 246 174 q 142 486 142 365 m 61 486 q 97 288 61 379 q 199 130 133 197 q 352 25 264 63 q 544 -12 440 -12 q 737 25 649 -12 q 890 130 825 63 q 992 288 956 197 q 1028 486 1028 379 q 992 684 1028 593 q 890 842 956 775 q 737 947 825 910 q 544 985 649 985 q 352 947 440 985 q 199 842 264 910 q 97 684 133 775 q 61 486 61 593 m 301 1079 l 788 1079 l 788 1147 l 301 1147 l 301 1079 z "},"Ŏ":{"ha":1089,"x_min":61,"x_max":1028,"o":"m 142 486 q 194 703 142 608 q 337 853 246 799 q 544 908 428 908 q 752 853 661 908 q 894 703 843 799 q 946 486 946 608 q 894 269 946 365 q 752 119 843 174 q 544 64 661 64 q 337 119 428 64 q 194 269 246 174 q 142 486 142 365 m 61 486 q 97 288 61 379 q 199 130 133 197 q 352 25 264 63 q 544 -12 440 -12 q 737 25 649 -12 q 890 130 825 63 q 992 288 956 197 q 1028 486 1028 379 q 992 684 1028 593 q 890 842 956 775 q 737 947 825 910 q 544 985 649 985 q 352 947 440 985 q 199 842 264 910 q 97 684 133 775 q 61 486 61 593 m 325 1263 q 349 1170 325 1215 q 423 1097 374 1125 q 544 1068 472 1068 q 667 1097 618 1068 q 740 1170 715 1125 q 764 1263 764 1215 l 699 1263 q 683 1203 699 1233 q 633 1150 667 1172 q 544 1128 599 1128 q 455 1150 489 1128 q 405 1203 421 1172 q 389 1263 389 1233 l 325 1263 z "},"Ő":{"ha":1089,"x_min":61,"x_max":1028,"o":"m 450 1068 l 622 1342 l 547 1361 l 403 1085 l 450 1068 m 642 1068 l 815 1342 l 740 1361 l 596 1085 l 642 1068 m 142 486 q 194 703 142 608 q 337 853 246 799 q 544 908 428 908 q 752 853 661 908 q 894 703 843 799 q 946 486 946 608 q 894 269 946 365 q 752 119 843 174 q 544 64 661 64 q 337 119 428 64 q 194 269 246 174 q 142 486 142 365 m 61 486 q 97 288 61 379 q 199 130 133 197 q 352 25 264 63 q 544 -12 440 -12 q 737 25 649 -12 q 890 130 825 63 q 992 288 956 197 q 1028 486 1028 379 q 992 684 1028 593 q 890 842 956 775 q 737 947 825 910 q 544 985 649 985 q 352 947 440 985 q 199 842 264 910 q 97 684 133 775 q 61 486 61 593 z "},"P":{"ha":724,"x_min":117,"x_max":663,"o":"m 117 972 l 117 0 l 193 0 l 193 972 l 117 972 m 160 900 l 344 900 q 518 845 451 900 q 585 685 585 790 q 518 525 585 581 q 344 469 451 469 l 160 469 l 160 397 l 344 397 q 508 431 436 397 q 621 531 579 465 q 663 685 663 596 q 621 839 663 775 q 508 938 579 903 q 344 972 436 972 l 160 972 l 160 900 z "},"Q":{"ha":1086,"x_min":61,"x_max":1067,"o":"m 142 486 q 194 703 142 608 q 337 853 246 799 q 544 908 428 908 q 752 853 661 908 q 894 703 843 799 q 946 486 946 608 q 894 269 946 365 q 752 119 843 174 q 544 64 661 64 q 337 119 428 64 q 194 269 246 174 q 142 486 142 365 m 61 486 q 97 288 61 379 q 199 130 133 197 q 352 25 264 63 q 544 -12 440 -12 q 737 25 649 -12 q 890 130 825 63 q 992 288 956 197 q 1028 486 1028 379 q 992 684 1028 593 q 890 842 956 775 q 737 947 825 910 q 544 985 649 985 q 352 947 440 985 q 199 842 264 910 q 97 684 133 775 q 61 486 61 593 m 538 417 l 965 0 l 1067 0 l 639 417 l 538 417 z "},"R":{"ha":726,"x_min":117,"x_max":699,"o":"m 282 464 l 604 0 l 699 0 l 367 464 l 282 464 m 117 972 l 117 0 l 193 0 l 193 972 l 117 972 m 157 904 l 339 904 q 469 879 413 904 q 559 807 526 854 q 592 690 592 760 q 560 573 592 621 q 470 501 528 525 q 339 476 413 476 l 157 476 l 157 408 l 339 408 q 508 441 433 408 q 625 538 582 474 q 668 690 668 601 q 625 843 668 781 q 508 939 582 906 q 339 972 433 972 l 157 972 l 157 904 z "},"Ŕ":{"ha":726,"x_min":117,"x_max":699,"o":"m 282 464 l 604 0 l 699 0 l 367 464 l 282 464 m 117 972 l 117 0 l 193 0 l 193 972 l 117 972 m 157 904 l 339 904 q 469 879 413 904 q 559 807 526 854 q 592 690 592 760 q 560 573 592 621 q 470 501 528 525 q 339 476 413 476 l 157 476 l 157 408 l 339 408 q 508 441 433 408 q 625 538 582 474 q 668 690 668 601 q 625 843 668 781 q 508 939 582 906 q 339 972 433 972 l 157 972 l 157 904 m 539 1281 l 472 1318 l 253 1096 l 293 1068 l 539 1281 z "},"Ŗ":{"ha":726,"x_min":117,"x_max":699,"o":"m 282 464 l 604 0 l 699 0 l 367 464 l 282 464 m 117 972 l 117 0 l 193 0 l 193 972 l 117 972 m 157 904 l 339 904 q 469 879 413 904 q 559 807 526 854 q 592 690 592 760 q 560 573 592 621 q 470 501 528 525 q 339 476 413 476 l 157 476 l 157 408 l 339 408 q 508 441 433 408 q 625 538 582 474 q 668 690 668 601 q 625 843 668 781 q 508 939 582 906 q 339 972 433 972 l 157 972 l 157 904 m 410 -83 l 278 -440 l 329 -458 l 482 -111 l 410 -83 z "},"Ř":{"ha":726,"x_min":117,"x_max":699,"o":"m 282 464 l 604 0 l 699 0 l 367 464 l 282 464 m 117 972 l 117 0 l 193 0 l 193 972 l 117 972 m 157 904 l 339 904 q 469 879 413 904 q 559 807 526 854 q 592 690 592 760 q 560 573 592 621 q 470 501 528 525 q 339 476 413 476 l 157 476 l 157 408 l 339 408 q 508 441 433 408 q 625 538 582 474 q 668 690 668 601 q 625 843 668 781 q 508 939 582 906 q 339 972 433 972 l 157 972 l 157 904 m 339 1146 l 163 1300 l 117 1263 l 339 1068 l 561 1263 l 515 1300 l 339 1146 z "},"Ȓ":{"ha":726,"x_min":117,"x_max":699,"o":"m 282 464 l 604 0 l 699 0 l 367 464 l 282 464 m 117 972 l 117 0 l 193 0 l 193 972 l 117 972 m 157 904 l 339 904 q 469 879 413 904 q 559 807 526 854 q 592 690 592 760 q 560 573 592 621 q 471 501 528 525 q 339 476 414 476 l 157 476 l 157 408 l 339 408 q 508 441 433 408 q 625 538 582 474 q 668 690 668 601 q 625 843 668 781 q 508 939 582 906 q 339 972 433 972 l 157 972 l 157 904 m 153 1068 q 177 1161 153 1117 q 251 1234 201 1206 q 372 1263 300 1263 q 494 1234 446 1263 q 567 1161 543 1206 q 592 1068 592 1117 l 528 1068 q 512 1128 528 1097 q 462 1181 496 1160 q 372 1203 428 1203 q 284 1181 318 1203 q 234 1128 250 1160 q 218 1068 218 1097 l 153 1068 z "},"S":{"ha":728,"x_min":61,"x_max":665,"o":"m 124 281 l 61 242 q 128 115 85 174 q 235 22 171 57 q 383 -12 299 -12 q 494 6 443 -12 q 584 60 546 25 q 644 144 622 96 q 665 253 665 193 q 643 363 665 317 q 585 443 621 410 q 507 499 550 476 q 424 536 464 521 q 293 595 346 564 q 214 665 240 626 q 188 758 188 704 q 233 867 188 824 q 364 911 279 911 q 471 887 428 911 q 542 826 514 863 q 586 753 571 790 l 653 790 q 596 882 633 838 q 502 956 558 926 q 368 985 446 985 q 233 955 293 985 q 140 872 174 925 q 107 749 107 818 q 131 642 107 686 q 194 566 156 597 q 278 513 233 535 q 365 476 324 492 q 472 428 421 456 q 554 358 522 401 q 586 244 586 315 q 533 112 586 164 q 385 60 479 60 q 265 90 315 60 q 181 169 215 119 q 124 281 147 219 z "},"Ś":{"ha":728,"x_min":56,"x_max":665,"o":"m 121 297 l 56 260 q 127 123 82 185 q 237 24 172 61 q 383 -12 301 -12 q 542 22 481 -12 q 635 118 604 57 q 665 256 665 179 q 643 364 665 318 q 585 442 621 410 q 506 497 549 475 q 424 535 463 519 q 311 585 365 557 q 222 651 257 613 q 188 746 188 690 q 211 833 188 796 q 277 890 235 869 q 374 911 319 911 q 477 885 435 911 q 547 817 519 858 q 593 733 575 776 l 656 772 q 602 872 639 822 q 508 953 565 921 q 372 985 451 985 q 238 956 299 985 q 142 875 178 928 q 107 751 107 822 q 131 647 107 692 q 194 571 156 603 q 276 517 232 539 q 357 481 319 494 q 465 433 413 461 q 551 360 517 404 q 586 250 586 317 q 565 150 586 193 q 501 83 544 107 q 388 60 457 60 q 294 78 335 60 q 221 131 253 97 q 165 207 189 164 q 121 297 140 250 m 608 1281 l 542 1318 l 322 1096 l 363 1068 l 608 1281 z "},"Ŝ":{"ha":728,"x_min":56,"x_max":665,"o":"m 121 297 l 56 260 q 127 123 82 185 q 237 24 172 61 q 383 -12 301 -12 q 542 22 481 -12 q 635 118 604 57 q 665 256 665 179 q 643 364 665 318 q 585 442 621 410 q 506 497 549 475 q 424 535 463 519 q 311 585 365 557 q 222 651 257 613 q 188 746 188 690 q 211 833 188 796 q 277 890 235 869 q 374 911 319 911 q 477 885 435 911 q 547 817 519 858 q 593 733 575 776 l 656 772 q 602 872 639 822 q 508 953 565 921 q 372 985 451 985 q 238 956 299 985 q 142 875 178 928 q 107 751 107 822 q 131 647 107 692 q 194 571 156 603 q 276 517 232 539 q 357 481 319 494 q 465 433 413 461 q 551 360 517 404 q 586 250 586 317 q 565 150 586 193 q 501 83 544 107 q 388 60 457 60 q 294 78 335 60 q 221 131 253 97 q 165 207 189 164 q 121 297 140 250 m 372 1222 l 549 1068 l 594 1106 l 372 1300 l 150 1106 l 196 1068 l 372 1222 z "},"Ş":{"ha":728,"x_min":56,"x_max":665,"o":"m 121 297 l 56 260 q 127 123 82 185 q 237 24 172 61 q 383 -12 301 -12 q 539 22 476 -12 q 633 118 601 57 q 665 256 665 179 q 643 364 665 318 q 585 442 621 410 q 506 497 549 475 q 424 535 463 519 q 311 585 365 557 q 222 651 257 613 q 188 746 188 690 q 209 833 188 796 q 271 890 231 869 q 365 911 311 911 q 471 885 426 911 q 545 817 515 858 q 593 733 575 776 l 656 772 q 599 875 636 826 q 507 954 563 924 q 372 985 451 985 q 235 955 294 985 q 141 872 175 925 q 107 747 107 818 q 131 640 107 685 q 194 565 156 596 q 276 515 232 535 q 357 481 319 494 q 465 433 413 461 q 551 360 517 404 q 586 250 586 317 q 565 150 586 193 q 501 83 544 107 q 388 60 457 60 q 294 78 335 60 q 221 131 253 97 q 165 207 189 164 q 121 297 140 250 m 389 49 l 286 -140 q 335 -118 308 -125 q 379 -111 361 -111 q 435 -127 414 -111 q 456 -176 456 -143 q 428 -236 456 -215 q 361 -257 401 -257 q 311 -247 331 -257 q 268 -218 292 -237 l 236 -254 q 294 -295 265 -283 q 361 -307 322 -307 q 433 -292 400 -307 q 488 -247 467 -276 q 508 -176 508 -218 q 493 -119 508 -142 q 455 -85 478 -97 q 408 -74 432 -74 q 383 -77 392 -74 q 361 -87 374 -81 l 444 49 l 389 49 z "},"Š":{"ha":728,"x_min":56,"x_max":665,"o":"m 121 297 l 56 260 q 127 123 82 185 q 237 24 172 61 q 383 -12 301 -12 q 542 22 481 -12 q 635 118 604 57 q 665 256 665 179 q 643 364 665 318 q 585 442 621 410 q 506 497 549 475 q 424 535 463 519 q 311 585 365 557 q 222 651 257 613 q 188 746 188 690 q 211 833 188 796 q 277 890 235 869 q 374 911 319 911 q 477 885 435 911 q 547 817 519 858 q 593 733 575 776 l 656 772 q 602 872 639 822 q 508 953 565 921 q 372 985 451 985 q 238 956 299 985 q 142 875 178 928 q 107 751 107 822 q 131 647 107 692 q 194 571 156 603 q 276 517 232 539 q 357 481 319 494 q 465 433 413 461 q 551 360 517 404 q 586 250 586 317 q 565 150 586 193 q 501 83 544 107 q 388 60 457 60 q 294 78 335 60 q 221 131 253 97 q 165 207 189 164 q 121 297 140 250 m 372 1151 l 196 1306 l 150 1268 l 372 1074 l 594 1268 l 549 1306 l 372 1151 z "},"Ș":{"ha":728,"x_min":56,"x_max":665,"o":"m 121 297 l 56 260 q 127 123 82 185 q 237 24 172 61 q 383 -12 301 -12 q 542 22 481 -12 q 635 118 604 57 q 665 256 665 179 q 643 364 665 318 q 585 442 621 410 q 506 497 549 475 q 424 535 463 519 q 311 585 365 557 q 222 651 257 613 q 188 746 188 690 q 211 833 188 796 q 277 890 235 869 q 374 911 319 911 q 477 885 435 911 q 547 817 519 858 q 593 733 575 776 l 656 772 q 602 872 639 822 q 508 953 565 921 q 372 985 451 985 q 238 956 299 985 q 142 875 178 928 q 107 751 107 822 q 131 647 107 692 q 194 571 156 603 q 276 517 232 539 q 357 481 319 494 q 465 433 413 461 q 551 360 517 404 q 586 250 586 317 q 565 150 586 193 q 501 83 544 107 q 388 60 457 60 q 294 78 335 60 q 221 131 253 97 q 165 207 189 164 q 121 297 140 250 m 413 -96 l 281 -453 l 333 -471 l 486 -124 l 413 -96 z "},"T":{"ha":626,"x_min":19,"x_max":607,"o":"m 19 900 l 275 900 l 275 0 l 351 0 l 351 900 l 607 900 l 607 972 l 19 972 l 19 900 z "},"Ţ":{"ha":626,"x_min":19,"x_max":607,"o":"m 285 7 l 183 -182 q 232 -160 206 -167 q 276 -153 258 -153 q 331 -169 310 -153 q 353 -218 353 -185 q 326 -278 353 -257 q 257 -299 299 -299 q 208 -289 228 -299 q 165 -260 188 -279 l 133 -296 q 190 -337 163 -325 q 257 -349 218 -349 q 329 -333 296 -349 q 384 -289 363 -318 q 406 -218 406 -260 q 390 -161 406 -183 q 351 -127 374 -139 q 304 -115 328 -115 q 280 -119 289 -115 q 258 -129 271 -122 l 342 7 l 285 7 m 19 900 l 275 900 l 275 0 l 351 0 l 351 900 l 607 900 l 607 972 l 19 972 l 19 900 z "},"Ť":{"ha":626,"x_min":19,"x_max":607,"o":"m 19 900 l 275 900 l 275 0 l 351 0 l 351 900 l 607 900 l 607 972 l 19 972 l 19 900 m 314 1146 l 138 1300 l 92 1263 l 314 1068 l 536 1263 l 490 1300 l 314 1146 z "},"Ț":{"ha":626,"x_min":19,"x_max":607,"o":"m 19 900 l 275 900 l 275 0 l 351 0 l 351 900 l 607 900 l 607 972 l 19 972 l 19 900 m 343 -83 l 213 -440 l 264 -458 l 417 -111 l 343 -83 z "},"U":{"ha":842,"x_min":110,"x_max":732,"o":"m 110 972 l 110 314 q 131 181 110 242 q 192 78 151 121 q 290 10 232 35 q 421 -14 347 -14 q 552 10 494 -14 q 650 78 610 35 q 711 181 690 121 q 732 314 732 242 l 732 972 l 656 972 l 656 314 q 594 128 656 197 q 421 58 533 58 q 247 128 308 58 q 186 314 186 197 l 186 972 l 110 972 z "},"Ù":{"ha":842,"x_min":110,"x_max":732,"o":"m 110 972 l 110 314 q 131 181 110 242 q 192 78 151 121 q 290 10 232 35 q 421 -14 347 -14 q 552 10 494 -14 q 650 78 610 35 q 711 181 690 121 q 732 314 732 242 l 732 972 l 656 972 l 656 314 q 594 128 656 197 q 421 58 533 58 q 247 128 308 58 q 186 314 186 197 l 186 972 l 110 972 m 238 1281 l 483 1068 l 524 1096 l 304 1318 l 238 1281 z "},"Ú":{"ha":842,"x_min":110,"x_max":732,"o":"m 110 972 l 110 314 q 131 181 110 242 q 192 78 151 121 q 290 10 232 35 q 421 -14 347 -14 q 552 10 494 -14 q 650 78 610 35 q 711 181 690 121 q 732 314 732 242 l 732 972 l 656 972 l 656 314 q 594 128 656 197 q 421 58 533 58 q 247 128 308 58 q 186 314 186 197 l 186 972 l 110 972 m 604 1281 l 538 1318 l 318 1096 l 358 1068 l 604 1281 z "},"Û":{"ha":842,"x_min":110,"x_max":732,"o":"m 110 972 l 110 314 q 131 181 110 242 q 192 78 151 121 q 290 10 232 35 q 421 -14 347 -14 q 552 10 494 -14 q 650 78 610 35 q 711 181 690 121 q 732 314 732 242 l 732 972 l 656 972 l 656 314 q 594 128 656 197 q 421 58 533 58 q 247 128 308 58 q 186 314 186 197 l 186 972 l 110 972 m 421 1222 l 597 1068 l 643 1106 l 421 1300 l 199 1106 l 244 1068 l 421 1222 z "},"Ü":{"ha":842,"x_min":110,"x_max":732,"o":"m 110 972 l 110 314 q 131 181 110 242 q 192 78 151 121 q 290 10 232 35 q 421 -14 347 -14 q 552 10 494 -14 q 650 78 610 35 q 711 181 690 121 q 732 314 732 242 l 732 972 l 656 972 l 656 314 q 594 128 656 197 q 421 58 533 58 q 247 128 308 58 q 186 314 186 197 l 186 972 l 110 972 m 503 1121 q 518 1083 503 1099 q 554 1068 533 1068 q 591 1083 576 1068 q 606 1121 606 1099 q 591 1157 606 1142 q 554 1172 576 1172 q 518 1157 533 1172 q 503 1121 503 1142 m 236 1121 q 251 1083 236 1099 q 288 1068 267 1068 q 324 1083 310 1068 q 339 1121 339 1099 q 324 1157 339 1142 q 288 1172 310 1172 q 251 1157 267 1172 q 236 1121 236 1142 z "},"Ũ":{"ha":842,"x_min":110,"x_max":732,"o":"m 110 972 l 110 314 q 131 181 110 242 q 192 78 151 121 q 290 10 232 35 q 421 -14 347 -14 q 552 10 494 -14 q 650 78 610 35 q 711 181 690 121 q 732 314 732 242 l 732 972 l 656 972 l 656 314 q 594 128 656 197 q 421 58 533 58 q 247 128 308 58 q 186 314 186 197 l 186 972 l 110 972 m 214 1100 l 263 1068 q 269 1099 263 1082 q 291 1127 275 1115 q 335 1139 307 1139 q 390 1123 367 1139 q 439 1090 413 1107 q 503 1074 465 1074 q 556 1085 532 1074 q 599 1118 581 1097 q 628 1164 617 1139 l 585 1201 q 549 1151 567 1168 q 507 1135 531 1135 q 460 1144 479 1135 q 425 1167 442 1154 q 388 1190 408 1181 q 335 1200 367 1200 q 278 1187 304 1200 q 235 1151 251 1174 q 214 1100 218 1129 z "},"Ū":{"ha":842,"x_min":110,"x_max":732,"o":"m 110 972 l 110 314 q 131 181 110 242 q 192 78 151 121 q 290 10 232 35 q 421 -14 347 -14 q 552 10 494 -14 q 650 78 610 35 q 711 181 690 121 q 732 314 732 242 l 732 972 l 656 972 l 656 314 q 594 128 656 197 q 421 58 533 58 q 247 128 308 58 q 186 314 186 197 l 186 972 l 110 972 m 178 1068 l 664 1068 l 664 1136 l 178 1136 l 178 1068 z "},"Ŭ":{"ha":842,"x_min":110,"x_max":732,"o":"m 110 972 l 110 314 q 131 181 110 242 q 192 78 151 121 q 290 10 232 35 q 421 -14 347 -14 q 552 10 494 -14 q 650 78 610 35 q 711 181 690 121 q 732 314 732 242 l 732 972 l 656 972 l 656 314 q 594 128 656 197 q 421 58 533 58 q 247 128 308 58 q 186 314 186 197 l 186 972 l 110 972 m 201 1263 q 226 1170 201 1215 q 299 1097 250 1125 q 421 1068 349 1068 q 543 1097 494 1068 q 616 1170 592 1125 q 640 1263 640 1215 l 575 1263 q 560 1203 575 1233 q 510 1150 544 1172 q 421 1128 475 1128 q 332 1150 367 1128 q 282 1203 297 1172 q 267 1263 267 1233 l 201 1263 z "},"Ů":{"ha":842,"x_min":110,"x_max":732,"o":"m 110 972 l 110 314 q 131 181 110 242 q 192 78 151 121 q 290 10 232 35 q 421 -14 347 -14 q 552 10 494 -14 q 650 78 610 35 q 711 181 690 121 q 732 314 732 242 l 732 972 l 656 972 l 656 314 q 594 128 656 197 q 421 58 533 58 q 247 128 308 58 q 186 314 186 197 l 186 972 l 110 972 m 279 1207 q 323 1106 279 1144 q 421 1068 367 1068 q 519 1106 475 1068 q 563 1207 563 1144 q 519 1308 563 1269 q 421 1346 475 1346 q 323 1308 367 1346 q 279 1207 279 1269 m 328 1207 q 356 1276 328 1250 q 421 1301 385 1301 q 485 1276 457 1301 q 514 1207 514 1250 q 485 1138 514 1164 q 421 1113 457 1113 q 356 1138 385 1113 q 328 1207 328 1164 z "},"Ű":{"ha":842,"x_min":110,"x_max":732,"o":"m 326 1068 l 499 1342 l 424 1361 l 279 1085 l 326 1068 m 518 1068 l 692 1342 l 617 1361 l 472 1085 l 518 1068 m 110 972 l 110 314 q 131 181 110 242 q 192 78 151 121 q 290 10 232 35 q 421 -14 347 -14 q 552 10 494 -14 q 650 78 610 35 q 711 181 690 121 q 732 314 732 242 l 732 972 l 656 972 l 656 314 q 594 128 656 197 q 421 58 533 58 q 247 128 308 58 q 186 314 186 197 l 186 972 l 110 972 z "},"Ų":{"ha":842,"x_min":110,"x_max":732,"o":"m 485 -212 q 449 -239 471 -228 q 393 -250 426 -250 q 328 -231 354 -250 q 301 -169 301 -211 q 325 -108 301 -137 q 385 -52 349 -78 q 463 -8 422 -26 l 424 18 q 331 -37 375 -7 q 258 -105 286 -68 q 229 -186 229 -142 q 247 -253 229 -224 q 301 -298 265 -282 q 389 -314 336 -314 q 467 -297 433 -314 q 517 -258 501 -279 l 485 -212 m 110 972 l 110 314 q 131 181 110 242 q 192 78 151 121 q 290 10 232 35 q 421 -14 347 -14 q 552 10 494 -14 q 650 78 610 35 q 711 181 690 121 q 732 314 732 242 l 732 972 l 656 972 l 656 314 q 594 128 656 197 q 421 58 533 58 q 247 128 308 58 q 186 314 186 197 l 186 972 l 110 972 z "},"V":{"ha":883,"x_min":13,"x_max":871,"o":"m 442 140 l 99 972 l 13 972 l 442 -37 l 871 972 l 785 972 l 442 140 z "},"W":{"ha":1353,"x_min":19,"x_max":1333,"o":"m 972 168 l 676 1010 l 385 168 l 104 972 l 19 972 l 379 -37 l 676 800 l 974 -37 l 1333 972 l 1249 972 l 972 168 z "},"Ŵ":{"ha":1353,"x_min":19,"x_max":1333,"o":"m 969 160 l 676 1010 l 383 160 l 104 972 l 19 972 l 379 -37 l 676 800 l 974 -37 l 1333 972 l 1249 972 l 969 160 m 676 1247 l 853 1093 l 899 1131 l 676 1325 l 454 1131 l 500 1093 l 676 1247 z "},"Ẁ":{"ha":1353,"x_min":19,"x_max":1333,"o":"m 675 1093 l 715 1121 l 496 1343 l 429 1306 l 675 1093 m 972 168 l 676 1010 l 385 168 l 104 972 l 19 972 l 379 -37 l 676 800 l 974 -37 l 1333 972 l 1249 972 l 972 168 z "},"Ẃ":{"ha":1353,"x_min":19,"x_max":1333,"o":"m 678 1093 l 924 1306 l 857 1343 l 638 1121 l 678 1093 m 972 168 l 676 1010 l 385 168 l 104 972 l 19 972 l 379 -37 l 676 800 l 974 -37 l 1333 972 l 1249 972 l 972 168 z "},"Ẅ":{"ha":1353,"x_min":19,"x_max":1333,"o":"m 764 1146 q 780 1108 764 1124 q 817 1093 796 1093 q 853 1108 838 1093 q 868 1146 868 1124 q 853 1182 868 1167 q 817 1197 838 1197 q 780 1182 796 1197 q 764 1146 764 1167 m 486 1146 q 502 1108 486 1124 q 539 1093 518 1093 q 575 1108 560 1093 q 590 1146 590 1124 q 575 1182 590 1167 q 539 1197 560 1197 q 502 1182 518 1197 q 486 1146 486 1167 m 972 168 l 676 1010 l 385 168 l 104 972 l 19 972 l 379 -37 l 676 800 l 974 -37 l 1333 972 l 1249 972 l 972 168 z "},"Ẇ":{"ha":1353,"x_min":19,"x_max":1333,"o":"m 625 1144 q 641 1108 625 1124 q 678 1093 657 1093 q 714 1108 699 1093 q 729 1144 729 1124 q 714 1182 729 1167 q 678 1197 699 1197 q 641 1182 657 1197 q 625 1144 625 1167 m 972 168 l 676 1010 l 385 168 l 104 972 l 19 972 l 379 -37 l 676 800 l 974 -37 l 1333 972 l 1249 972 l 972 168 z "},"Ẉ":{"ha":1353,"x_min":19,"x_max":1333,"o":"m 625 -174 q 641 -210 625 -194 q 678 -225 657 -225 q 714 -210 699 -225 q 729 -174 729 -194 q 714 -136 729 -151 q 678 -121 699 -121 q 641 -136 657 -121 q 625 -174 625 -151 m 972 168 l 676 1010 l 385 168 l 104 972 l 19 972 l 379 -37 l 676 800 l 974 -37 l 1333 972 l 1249 972 l 972 168 z "},"X":{"ha":740,"x_min":19,"x_max":721,"o":"m 608 972 l 375 576 l 146 972 l 54 972 l 335 510 l 19 0 l 111 0 l 374 442 l 629 0 l 721 0 l 413 510 l 700 972 l 608 972 z "},"Y":{"ha":749,"x_min":13,"x_max":736,"o":"m 650 972 l 371 469 l 99 972 l 13 972 l 333 399 l 333 0 l 410 0 l 410 400 l 736 972 l 650 972 z "},"Ý":{"ha":749,"x_min":13,"x_max":736,"o":"m 569 1281 l 503 1318 l 283 1096 l 322 1068 l 569 1281 m 650 972 l 371 469 l 99 972 l 13 972 l 333 399 l 333 0 l 410 0 l 410 400 l 736 972 l 650 972 z "},"Ŷ":{"ha":749,"x_min":13,"x_max":736,"o":"m 650 972 l 371 469 l 99 972 l 13 972 l 333 399 l 333 0 l 410 0 l 410 400 l 736 972 l 650 972 m 375 1222 l 551 1068 l 597 1106 l 375 1300 l 153 1106 l 199 1068 l 375 1222 z "},"Ÿ":{"ha":749,"x_min":13,"x_max":736,"o":"m 189 1121 q 205 1083 189 1099 q 242 1068 221 1068 q 278 1083 263 1068 q 294 1121 294 1099 q 278 1157 294 1142 q 242 1172 263 1172 q 205 1157 221 1172 q 189 1121 189 1142 m 456 1121 q 472 1083 456 1099 q 508 1068 488 1068 q 545 1083 529 1068 q 561 1121 561 1099 q 545 1157 561 1142 q 508 1172 529 1172 q 472 1157 488 1172 q 456 1121 456 1142 m 650 972 l 371 469 l 99 972 l 13 972 l 333 399 l 333 0 l 410 0 l 410 400 l 736 972 l 650 972 z "},"Ỳ":{"ha":749,"x_min":13,"x_max":736,"o":"m 374 1068 l 414 1096 l 194 1318 l 128 1281 l 374 1068 m 650 972 l 371 469 l 99 972 l 13 972 l 333 399 l 333 0 l 410 0 l 410 400 l 736 972 l 650 972 z "},"Z":{"ha":751,"x_min":24,"x_max":726,"o":"m 51 900 l 596 900 l 24 0 l 704 0 l 704 72 l 154 72 l 726 972 l 51 972 l 51 900 z "},"Ź":{"ha":751,"x_min":24,"x_max":726,"o":"m 51 900 l 596 900 l 24 0 l 704 0 l 704 72 l 154 72 l 726 972 l 51 972 l 51 900 m 603 1281 l 536 1318 l 317 1096 l 357 1068 l 603 1281 z "},"Ż":{"ha":751,"x_min":24,"x_max":726,"o":"m 51 900 l 596 900 l 24 0 l 704 0 l 704 72 l 154 72 l 726 972 l 51 972 l 51 900 m 338 1121 q 353 1083 338 1099 q 389 1068 368 1068 q 426 1083 411 1068 q 440 1121 440 1099 q 426 1157 440 1142 q 389 1172 411 1172 q 353 1157 368 1172 q 338 1121 338 1142 z "},"Ž":{"ha":751,"x_min":24,"x_max":726,"o":"m 51 900 l 596 900 l 24 0 l 704 0 l 704 72 l 154 72 l 726 972 l 51 972 l 51 900 m 389 1146 l 213 1300 l 167 1263 l 389 1068 l 611 1263 l 565 1300 l 389 1146 z "},"Æ":{"ha":1297,"x_min":7,"x_max":1194,"o":"m 296 331 l 707 331 l 707 403 l 296 403 l 296 331 m 632 972 l 7 0 l 93 0 l 697 939 l 632 972 m 724 0 l 1194 0 l 1194 72 l 724 72 l 724 0 m 732 900 l 1194 900 l 1194 972 l 632 972 l 732 900 m 724 497 l 1167 497 l 1167 569 l 724 569 l 724 497 m 681 972 l 681 0 l 757 0 l 757 972 l 681 972 z "},"Ð":{"ha":944,"x_min":7,"x_max":858,"o":"m 7 450 l 424 450 l 424 518 l 7 518 l 7 450 m 117 972 l 117 0 l 193 0 l 193 972 l 117 972 m 381 0 q 630 61 522 0 q 798 231 738 122 q 858 486 858 340 q 798 741 858 632 q 630 911 738 850 q 381 972 522 972 l 158 972 l 158 896 l 381 896 q 545 867 471 896 q 672 784 619 838 q 753 655 725 731 q 782 486 782 579 q 753 317 782 393 q 672 188 725 242 q 545 106 619 135 q 381 76 471 76 l 158 76 l 158 0 l 381 0 z "},"Ø":{"ha":1097,"x_min":61,"x_max":1028,"o":"m 142 486 q 194 703 142 608 q 337 853 246 799 q 544 908 428 908 q 752 853 661 908 q 894 703 843 799 q 946 486 946 608 q 894 269 946 365 q 752 119 843 174 q 544 64 661 64 q 337 119 428 64 q 194 269 246 174 q 142 486 142 365 m 61 486 q 97 288 61 379 q 199 130 133 197 q 352 25 264 63 q 544 -12 440 -12 q 737 25 649 -12 q 890 130 825 63 q 992 288 956 197 q 1028 486 1028 379 q 992 684 1028 593 q 890 842 956 775 q 737 947 825 910 q 544 985 649 985 q 352 947 440 985 q 199 842 264 910 q 97 684 133 775 q 61 486 61 593 m 969 1032 l 69 -24 l 122 -60 l 1024 996 l 969 1032 z "},"Þ":{"ha":747,"x_min":111,"x_max":689,"o":"m 111 972 l 111 0 l 188 0 l 188 972 l 111 972 m 153 706 l 358 706 q 488 681 431 706 q 579 606 546 656 q 613 486 613 557 q 579 369 613 418 q 488 293 546 319 q 358 267 431 267 l 153 267 l 153 194 l 358 194 q 527 230 453 194 q 645 331 601 265 q 689 486 689 397 q 645 642 689 576 q 527 742 601 707 q 358 778 453 778 l 153 778 l 153 706 z "},"Đ":{"ha":944,"x_min":7,"x_max":858,"o":"m 7 450 l 424 450 l 424 518 l 7 518 l 7 450 m 117 972 l 117 0 l 193 0 l 193 972 l 117 972 m 381 0 q 630 61 522 0 q 798 231 738 122 q 858 486 858 340 q 798 741 858 632 q 630 911 738 850 q 381 972 522 972 l 158 972 l 158 896 l 381 896 q 545 867 471 896 q 672 784 619 838 q 753 655 725 731 q 782 486 782 579 q 753 317 782 393 q 672 188 725 242 q 545 106 619 135 q 381 76 471 76 l 158 76 l 158 0 l 381 0 z "},"Ħ":{"ha":956,"x_min":7,"x_max":949,"o":"m 157 493 l 813 493 l 813 565 l 157 565 l 157 493 m 761 972 l 761 0 l 839 0 l 839 972 l 761 972 m 117 972 l 117 0 l 193 0 l 193 972 l 117 972 m 7 786 l 949 786 l 949 854 l 7 854 l 7 786 z "},"Ĳ":{"ha":681,"x_min":114,"x_max":540,"o":"m 221 -175 l 181 -233 q 216 -264 192 -247 q 274 -293 240 -281 q 344 -306 308 -306 q 430 -292 393 -306 q 491 -251 467 -279 q 528 -182 515 -224 q 540 -83 540 -140 l 540 972 l 467 972 l 467 -69 q 435 -196 467 -158 q 347 -233 404 -233 q 274 -216 307 -233 q 221 -175 240 -199 m 114 972 l 114 0 l 190 0 l 190 972 l 114 972 z "},"Ŀ":{"ha":614,"x_min":117,"x_max":594,"o":"m 117 972 l 117 0 l 594 0 l 594 72 l 193 72 l 193 972 l 117 972 m 363 576 q 378 539 363 554 q 414 524 393 524 q 451 539 436 524 q 465 576 465 554 q 451 613 465 597 q 414 628 436 628 q 378 613 393 628 q 363 576 363 597 z "},"Ł":{"ha":583,"x_min":-21,"x_max":569,"o":"m -1 499 l 374 735 l 354 785 l -21 549 l -1 499 m 111 972 l 111 0 l 569 0 l 569 72 l 188 72 l 188 972 l 111 972 z "},"Ŋ":{"ha":1049,"x_min":117,"x_max":932,"o":"m 761 -306 q 858 -278 819 -306 q 914 -203 896 -251 q 932 -96 932 -156 l 932 972 l 856 972 l 856 158 l 117 1010 l 117 0 l 193 0 l 193 811 l 860 40 l 860 -87 q 851 -162 860 -129 q 822 -215 843 -196 q 765 -233 801 -233 q 715 -219 736 -233 q 681 -186 694 -206 l 640 -246 q 689 -288 660 -271 q 761 -306 718 -306 z "},"Œ":{"ha":1349,"x_min":56,"x_max":1247,"o":"m 756 497 l 1218 497 l 1218 569 l 756 569 l 756 497 m 715 944 l 715 28 l 792 28 l 792 944 l 715 944 m 1247 72 l 769 72 l 736 72 l 542 72 q 378 102 453 72 q 248 187 303 132 q 163 318 193 242 q 132 486 132 394 q 162 654 132 578 q 247 785 192 731 q 377 870 301 840 q 542 900 453 900 l 740 900 l 764 900 l 1246 900 l 1246 972 l 542 972 q 347 938 436 972 q 192 838 257 903 q 92 684 128 774 q 56 486 56 594 q 92 288 56 378 q 193 134 128 199 q 347 35 258 69 q 542 0 436 0 l 1247 0 l 1247 72 z "},"Ŧ":{"ha":626,"x_min":19,"x_max":607,"o":"m 93 564 l 531 564 l 531 632 l 93 632 l 93 564 m 19 900 l 275 900 l 275 0 l 351 0 l 351 900 l 607 900 l 607 972 l 19 972 l 19 900 z "},"ẞ":{"ha":967,"x_min":111,"x_max":917,"o":"m 586 -15 q 436 10 501 -15 q 318 75 371 35 l 356 139 q 466 81 410 101 q 592 61 522 61 q 715 82 660 61 q 803 142 771 103 q 836 239 836 182 q 808 324 836 293 q 740 373 781 356 q 657 405 699 390 q 588 442 615 419 q 561 503 561 464 q 580 558 561 536 q 628 599 599 581 q 685 635 657 617 q 733 681 714 654 q 753 747 753 707 q 729 824 753 786 q 655 885 706 861 q 521 908 604 908 q 353 873 429 908 q 233 762 278 838 q 188 567 188 686 l 189 -1 l 111 -1 l 111 576 q 146 760 111 683 q 240 888 181 838 q 374 961 299 938 q 532 985 449 985 q 694 956 626 985 q 797 876 761 926 q 833 761 833 826 q 815 675 833 710 q 769 616 797 640 q 714 575 742 592 q 667 543 686 558 q 649 508 649 528 q 676 471 649 485 q 743 443 703 457 q 823 407 783 429 q 890 346 863 385 q 917 244 917 307 q 875 110 917 168 q 758 18 833 51 q 586 -15 683 -15 z "},"Δ":{"ha":833,"x_min":35,"x_max":796,"o":"m 35 0 l 415 1069 l 796 0 l 35 0 m 144 68 l 689 68 l 415 869 l 144 68 z "},"Ω":{"ha":833,"x_min":92,"x_max":740,"o":"m 92 0 l 92 61 l 257 61 q 173 172 210 108 q 116 303 136 235 q 96 438 96 372 q 138 611 96 535 q 253 732 181 688 q 417 776 325 776 q 581 732 508 776 q 694 611 653 688 q 736 438 736 535 q 716 303 736 372 q 659 172 696 235 q 575 61 622 108 l 740 61 l 740 0 l 471 0 l 471 67 q 565 160 524 100 q 631 291 607 219 q 656 432 656 363 q 626 572 656 513 q 544 663 597 631 q 417 694 490 694 q 289 663 343 694 q 205 572 235 631 q 175 432 175 513 q 200 292 175 364 q 267 160 225 219 q 361 67 310 100 l 361 0 l 92 0 z "},"А":{"ha":917,"x_min":13,"x_max":871,"o":"m 194 326 l 693 326 l 668 399 l 219 399 l 194 326 m 442 833 l 633 369 l 640 351 l 785 0 l 871 0 l 442 1010 l 13 0 l 99 0 l 244 357 l 253 374 l 442 833 z "},"Б":{"ha":739,"x_min":111,"x_max":683,"o":"m 154 511 l 353 511 q 484 485 426 511 q 574 410 542 460 q 607 292 607 361 q 574 173 607 222 q 484 98 542 124 q 353 72 426 72 l 154 72 l 154 0 l 353 0 q 522 35 447 0 q 640 137 596 71 q 683 292 683 203 q 640 447 683 382 q 522 548 596 513 q 353 583 447 583 l 154 583 l 154 511 m 111 972 l 111 0 l 188 0 l 188 900 l 610 900 l 610 972 l 111 972 z "},"В":{"ha":775,"x_min":117,"x_max":665,"o":"m 176 522 l 333 522 q 478 547 415 522 q 576 619 540 571 q 611 738 611 667 q 576 867 611 815 q 478 946 542 919 q 328 972 415 972 l 117 972 l 117 0 l 342 0 q 509 31 436 0 q 624 124 582 61 q 665 282 665 186 q 638 398 665 349 q 566 479 611 447 q 464 527 521 511 q 347 543 407 543 l 176 543 l 176 499 l 342 499 q 435 485 392 499 q 514 444 479 471 q 568 377 549 417 q 588 286 588 338 q 557 166 588 214 q 471 93 526 118 q 342 68 415 68 l 193 68 l 193 904 l 328 904 q 478 859 422 904 q 535 733 535 814 q 507 640 535 676 q 432 585 479 603 q 328 567 385 567 l 176 567 l 176 522 z "},"Г":{"ha":604,"x_min":111,"x_max":590,"o":"m 111 972 l 111 0 l 188 0 l 188 900 l 590 900 l 590 972 l 111 972 z "},"Ѓ":{"ha":604,"x_min":111,"x_max":590,"o":"m 111 972 l 111 0 l 188 0 l 188 900 l 590 900 l 590 972 l 111 972 m 575 1296 l 508 1333 l 289 1111 l 329 1083 l 575 1296 z "},"Д":{"ha":1104,"x_min":56,"x_max":1042,"o":"m 549 843 l 863 31 l 944 31 l 549 1021 l 153 31 l 235 31 l 549 843 m 974 0 l 974 -153 l 1042 -153 l 1042 72 l 56 72 l 56 -153 l 124 -153 l 124 0 l 974 0 z "},"Е":{"ha":764,"x_min":117,"x_max":639,"o":"m 157 0 l 639 0 l 639 72 l 157 72 l 157 0 m 157 900 l 639 900 l 639 972 l 157 972 l 157 900 m 157 497 l 611 497 l 611 569 l 157 569 l 157 497 m 117 972 l 117 0 l 193 0 l 193 972 l 117 972 z "},"Ѐ":{"ha":764,"x_min":117,"x_max":639,"o":"m 157 0 l 639 0 l 639 72 l 157 72 l 157 0 m 157 900 l 639 900 l 639 972 l 157 972 l 157 900 m 157 497 l 611 497 l 611 569 l 157 569 l 157 497 m 117 972 l 117 0 l 193 0 l 193 972 l 117 972 m 153 1296 l 399 1083 l 439 1111 l 219 1333 l 153 1296 z "},"Ё":{"ha":764,"x_min":117,"x_max":639,"o":"m 157 0 l 639 0 l 639 72 l 157 72 l 157 0 m 157 900 l 639 900 l 639 972 l 157 972 l 157 900 m 157 497 l 611 497 l 611 569 l 157 569 l 157 497 m 117 972 l 117 0 l 193 0 l 193 972 l 117 972 m 463 1163 q 478 1125 463 1140 q 515 1110 494 1110 q 551 1125 536 1110 q 567 1163 567 1140 q 551 1199 567 1183 q 515 1214 536 1214 q 478 1199 494 1214 q 463 1163 463 1183 m 185 1163 q 201 1125 185 1140 q 238 1110 217 1110 q 274 1125 258 1110 q 289 1163 289 1140 q 274 1199 289 1183 q 238 1214 258 1214 q 201 1199 217 1214 q 185 1163 185 1183 z "},"Ж":{"ha":1101,"x_min":7,"x_max":1094,"o":"m 124 972 l 28 972 l 440 515 l 7 0 l 103 0 l 533 514 l 124 972 m 519 972 l 519 0 l 596 0 l 596 972 l 519 972 m 978 972 l 582 514 l 999 0 l 1094 0 l 667 515 l 1074 972 l 978 972 z "},"З":{"ha":842,"x_min":83,"x_max":779,"o":"m 393 488 q 540 506 474 488 q 653 556 606 524 q 726 633 700 589 q 751 728 751 676 q 714 856 751 797 q 607 950 676 914 q 440 986 538 986 q 276 953 347 986 q 165 864 204 921 q 125 731 125 807 l 199 731 q 229 826 199 785 q 315 892 260 868 q 442 917 369 917 q 567 892 515 917 q 647 823 619 867 q 674 725 674 779 q 639 628 674 671 q 541 562 604 586 q 393 538 478 538 l 393 488 m 435 -14 q 620 19 543 -14 q 738 114 697 53 q 779 257 779 175 q 728 411 779 354 q 589 494 676 468 q 393 519 501 519 l 393 469 q 548 449 478 469 q 660 383 618 428 q 701 265 701 339 q 634 115 701 172 q 435 58 567 58 q 286 84 346 58 q 195 155 226 110 q 161 257 164 200 l 83 257 q 106 151 83 200 q 174 65 129 101 q 283 7 218 28 q 435 -14 349 -14 z "},"И":{"ha":1049,"x_min":117,"x_max":932,"o":"m 928 903 l 932 1021 l 121 69 l 117 -49 l 928 903 m 193 972 l 117 972 l 117 -49 l 193 56 l 193 972 m 932 1021 l 856 918 l 856 0 l 932 0 l 932 1021 z "},"Ѝ":{"ha":1049,"x_min":117,"x_max":932,"o":"m 928 903 l 932 1021 l 121 69 l 117 -49 l 928 903 m 193 972 l 117 972 l 117 -49 l 193 56 l 193 972 m 932 1021 l 856 918 l 856 0 l 932 0 l 932 1021 m 318 1261 l 564 1049 l 604 1076 l 385 1299 l 318 1261 z "},"Й":{"ha":1049,"x_min":117,"x_max":932,"o":"m 928 903 l 932 1021 l 121 69 l 117 -49 l 928 903 m 193 972 l 117 972 l 117 -49 l 193 56 l 193 972 m 932 1021 l 856 918 l 856 0 l 932 0 l 932 1021 m 333 1254 q 358 1162 333 1207 q 431 1088 382 1117 q 553 1060 481 1060 q 675 1088 626 1060 q 748 1162 724 1117 q 772 1254 772 1207 l 708 1254 q 692 1194 708 1225 q 642 1141 676 1163 q 553 1119 608 1119 q 465 1141 499 1119 q 415 1194 431 1163 q 399 1254 399 1225 l 333 1254 z "},"К":{"ha":785,"x_min":114,"x_max":711,"o":"m 114 972 l 114 0 l 190 0 l 190 972 l 114 972 m 593 972 l 168 515 l 614 0 l 711 0 l 263 517 l 690 972 l 593 972 z "},"Ќ":{"ha":785,"x_min":114,"x_max":711,"o":"m 114 972 l 114 0 l 190 0 l 190 972 l 114 972 m 593 972 l 168 515 l 614 0 l 711 0 l 263 517 l 690 972 l 593 972 m 658 1296 l 592 1333 l 372 1111 l 413 1083 l 658 1296 z "},"Л":{"ha":889,"x_min":14,"x_max":778,"o":"m 778 972 l 143 972 l 143 350 q 135 244 143 294 q 110 153 126 193 q 69 90 93 113 q 14 67 46 67 l 14 0 q 124 46 79 0 q 192 168 169 92 q 215 333 215 244 l 215 900 l 701 900 l 701 0 l 778 0 l 778 972 z "},"М":{"ha":1125,"x_min":67,"x_max":1069,"o":"m 226 769 l 568 113 l 910 769 l 993 0 l 1069 0 l 957 1010 l 568 263 l 179 1010 l 67 0 l 143 0 l 226 769 z "},"Н":{"ha":993,"x_min":117,"x_max":839,"o":"m 157 493 l 813 493 l 813 565 l 157 565 l 157 493 m 761 972 l 761 0 l 839 0 l 839 972 l 761 972 m 117 972 l 117 0 l 193 0 l 193 972 l 117 972 z "},"О":{"ha":1097,"x_min":61,"x_max":1028,"o":"m 142 486 q 194 703 142 608 q 337 853 246 799 q 544 908 428 908 q 752 853 661 908 q 894 703 843 799 q 946 486 946 608 q 894 269 946 365 q 752 119 843 174 q 544 64 661 64 q 337 119 428 64 q 194 269 246 174 q 142 486 142 365 m 61 486 q 97 288 61 379 q 199 130 133 197 q 352 25 264 63 q 544 -12 440 -12 q 737 25 649 -12 q 890 130 825 63 q 992 288 956 197 q 1028 486 1028 379 q 992 684 1028 593 q 890 842 956 775 q 737 947 825 910 q 544 985 649 985 q 352 947 440 985 q 199 842 264 910 q 97 684 133 775 q 61 486 61 593 z "},"П":{"ha":951,"x_min":111,"x_max":840,"o":"m 764 900 l 764 0 l 840 0 l 840 972 l 111 972 l 111 0 l 188 0 l 188 900 l 764 900 z "},"Р":{"ha":761,"x_min":117,"x_max":663,"o":"m 117 972 l 117 0 l 193 0 l 193 972 l 117 972 m 160 900 l 344 900 q 518 845 451 900 q 585 685 585 790 q 518 525 585 581 q 344 469 451 469 l 160 469 l 160 397 l 344 397 q 508 431 436 397 q 621 531 579 465 q 663 685 663 596 q 621 839 663 775 q 508 938 579 903 q 344 972 436 972 l 160 972 l 160 900 z "},"С":{"ha":951,"x_min":61,"x_max":849,"o":"m 143 486 q 196 706 143 611 q 338 853 249 800 q 536 907 426 907 q 661 892 604 907 q 765 847 718 876 q 849 775 813 817 l 849 876 q 715 958 788 931 q 536 985 643 985 q 348 948 435 985 q 197 844 261 911 q 97 686 133 778 q 61 486 61 594 q 97 286 61 378 q 197 128 133 194 q 348 24 261 61 q 536 -12 435 -12 q 715 15 643 -12 q 849 96 788 42 l 849 199 q 766 126 813 157 q 663 81 719 96 q 536 65 606 65 q 338 119 426 65 q 196 268 249 174 q 143 486 143 363 z "},"Т":{"ha":646,"x_min":19,"x_max":607,"o":"m 19 900 l 275 900 l 275 0 l 351 0 l 351 900 l 607 900 l 607 972 l 19 972 l 19 900 z "},"У":{"ha":738,"x_min":0,"x_max":738,"o":"m 738 972 l 653 972 l 353 322 l 400 319 l 93 972 l 0 972 l 329 297 l 196 0 l 281 0 l 738 972 z "},"Ў":{"ha":738,"x_min":0,"x_max":738,"o":"m 738 972 l 653 972 l 353 322 l 400 319 l 93 972 l 0 972 l 329 297 l 196 0 l 281 0 l 738 972 m 151 1263 q 176 1170 151 1215 q 249 1097 200 1125 q 371 1068 299 1068 q 493 1097 444 1068 q 566 1170 542 1125 q 590 1263 590 1215 l 525 1263 q 510 1203 525 1233 q 460 1150 494 1172 q 371 1128 425 1128 q 282 1150 317 1128 q 232 1203 247 1172 q 217 1263 217 1233 l 151 1263 z "},"Ф":{"ha":1058,"x_min":56,"x_max":1003,"o":"m 490 972 l 490 0 l 567 0 l 567 972 l 490 972 m 926 486 q 878 323 926 390 q 748 222 831 256 q 558 188 665 188 l 500 188 q 310 222 393 188 q 179 323 226 256 q 132 486 132 390 q 179 649 132 583 q 310 750 226 715 q 500 785 393 785 l 558 785 q 748 750 665 785 q 878 649 831 715 q 926 486 926 583 m 1003 486 q 945 688 1003 604 q 787 816 888 771 q 558 861 686 861 l 500 861 q 272 816 372 861 q 113 688 171 771 q 56 486 56 604 q 113 285 56 369 q 272 156 171 201 q 500 111 372 111 l 558 111 q 787 156 686 111 q 945 285 888 201 q 1003 486 1003 369 z "},"Х":{"ha":771,"x_min":19,"x_max":721,"o":"m 608 972 l 375 576 l 146 972 l 54 972 l 335 510 l 19 0 l 111 0 l 374 442 l 629 0 l 721 0 l 413 510 l 700 972 l 608 972 z "},"Ц":{"ha":1014,"x_min":111,"x_max":958,"o":"m 188 72 l 188 972 l 111 972 l 111 0 l 890 0 l 890 -153 l 958 -153 l 958 72 l 840 72 l 840 972 l 764 972 l 764 72 l 188 72 z "},"Ч":{"ha":813,"x_min":111,"x_max":701,"o":"m 403 389 l 676 389 l 676 457 l 403 457 l 403 389 m 625 972 l 625 0 l 701 0 l 701 972 l 625 972 m 183 972 l 111 972 l 111 719 q 144 551 111 626 q 242 433 176 476 q 403 389 307 389 l 403 457 q 282 492 331 457 q 208 586 233 526 q 183 719 183 646 l 183 972 z "},"Ш":{"ha":1326,"x_min":111,"x_max":1215,"o":"m 1139 72 l 701 72 l 701 972 l 625 972 l 625 72 l 188 72 l 188 972 l 111 972 l 111 0 l 1215 0 l 1215 972 l 1139 972 l 1139 72 z "},"Щ":{"ha":1389,"x_min":111,"x_max":1333,"o":"m 1139 72 l 701 72 l 701 972 l 625 972 l 625 72 l 188 72 l 188 972 l 111 972 l 111 0 l 1265 0 l 1265 -153 l 1333 -153 l 1333 72 l 1215 72 l 1215 972 l 1139 972 l 1139 72 z "},"Ъ":{"ha":890,"x_min":14,"x_max":835,"o":"m 306 511 l 504 511 q 635 485 578 511 q 726 410 693 460 q 758 292 758 361 q 726 173 758 222 q 635 98 693 124 q 504 72 578 72 l 306 72 l 306 0 l 504 0 q 673 35 599 0 q 791 137 747 71 q 835 292 835 203 q 791 447 835 382 q 673 548 747 513 q 504 583 599 583 l 306 583 l 306 511 m 264 900 l 264 0 l 340 0 l 340 972 l 14 972 l 14 900 l 264 900 z "},"Ы":{"ha":1018,"x_min":108,"x_max":904,"o":"m 828 972 l 828 0 l 904 0 l 904 972 l 828 972 m 108 972 l 108 0 l 185 0 l 185 972 l 108 972 m 150 511 l 349 511 q 480 485 422 511 q 570 410 538 460 q 603 292 603 361 q 570 173 603 222 q 480 98 538 124 q 349 72 422 72 l 150 72 l 150 0 l 349 0 q 517 35 443 0 q 635 137 592 71 q 679 292 679 203 q 635 447 679 382 q 517 548 592 513 q 349 583 443 583 l 150 583 l 150 511 z "},"Ь":{"ha":735,"x_min":108,"x_max":679,"o":"m 108 972 l 108 0 l 185 0 l 185 972 l 108 972 m 150 511 l 349 511 q 480 485 422 511 q 570 410 538 460 q 603 292 603 361 q 570 173 603 222 q 480 98 538 124 q 349 72 422 72 l 150 72 l 150 0 l 349 0 q 517 35 443 0 q 635 137 592 71 q 679 292 679 203 q 635 447 679 382 q 517 548 592 513 q 349 583 443 583 l 150 583 l 150 511 z "},"Э":{"ha":951,"x_min":103,"x_max":890,"o":"m 200 450 l 808 450 l 808 522 l 200 522 l 200 450 m 808 486 q 756 268 808 363 q 615 119 704 174 q 415 65 525 65 q 290 81 347 65 q 186 126 232 96 q 103 199 140 157 l 103 96 q 237 15 164 42 q 415 -12 310 -12 q 603 24 517 -12 q 754 128 690 61 q 854 286 818 194 q 890 486 890 378 q 854 686 890 594 q 754 844 818 778 q 603 948 690 911 q 415 985 517 985 q 237 958 310 985 q 103 876 164 931 l 103 775 q 186 847 139 817 q 291 892 233 876 q 415 907 349 907 q 615 853 525 907 q 756 706 704 800 q 808 486 808 611 z "},"Ю":{"ha":1428,"x_min":111,"x_max":1367,"o":"m 154 492 l 460 492 l 460 564 l 154 564 l 154 492 m 111 972 l 111 0 l 188 0 l 188 972 l 111 972 m 481 488 q 533 704 481 610 q 676 854 585 799 q 883 910 767 910 q 1091 854 1000 910 q 1233 704 1182 799 q 1285 488 1285 610 q 1233 270 1285 365 q 1091 119 1182 175 q 883 64 1000 64 q 676 119 767 64 q 533 270 585 175 q 481 488 481 365 m 400 488 q 436 289 400 381 q 538 130 472 197 q 691 24 603 63 q 883 -14 779 -14 q 1076 24 988 -14 q 1229 130 1164 63 q 1331 289 1294 197 q 1367 488 1367 381 q 1331 685 1367 594 q 1229 844 1294 776 q 1076 949 1164 911 q 883 986 988 986 q 691 949 779 986 q 538 844 603 911 q 436 685 472 776 q 400 488 400 594 z "},"Я":{"ha":726,"x_min":28,"x_max":610,"o":"m 446 464 l 360 464 l 28 0 l 124 0 l 446 464 m 610 972 l 533 972 l 533 0 l 610 0 l 610 972 m 569 904 l 569 972 l 388 972 q 220 939 294 972 q 102 843 146 906 q 58 690 58 781 q 102 538 58 601 q 220 441 146 474 q 388 408 294 408 l 569 408 l 569 476 l 388 476 q 257 501 314 476 q 167 573 200 525 q 135 690 135 621 q 167 807 135 760 q 257 879 200 854 q 388 904 314 904 l 569 904 z "},"a":{"ha":643,"x_min":47,"x_max":554,"o":"m 121 192 q 143 271 121 240 q 205 317 165 301 q 299 332 244 332 q 410 316 357 332 q 511 267 464 300 l 511 313 q 469 343 499 325 q 395 376 440 361 q 288 390 350 390 q 112 336 176 390 q 47 189 47 282 q 78 76 47 121 q 158 9 108 32 q 263 -14 208 -14 q 372 10 318 -14 q 463 82 426 33 q 499 206 499 131 l 482 267 q 454 147 482 196 q 381 74 426 99 q 282 49 336 49 q 201 65 238 49 q 142 113 164 81 q 121 192 121 144 m 124 522 q 169 551 142 536 q 233 578 196 567 q 318 589 271 589 q 396 576 364 589 q 447 543 428 564 q 474 497 465 522 q 482 443 482 471 l 482 0 l 554 0 l 554 453 q 526 561 554 517 q 447 629 499 606 q 324 653 396 653 q 181 627 239 653 q 88 576 124 601 l 124 522 z "},"à":{"ha":646,"x_min":47,"x_max":557,"o":"m 121 188 q 146 269 121 236 q 215 320 171 303 q 314 338 258 338 q 427 320 379 338 q 514 274 475 303 l 514 318 q 477 349 503 331 q 410 381 451 367 q 311 394 369 394 q 180 370 240 394 q 83 299 119 346 q 47 179 47 251 q 76 72 47 115 q 154 8 104 29 q 264 -14 204 -14 q 385 13 332 -14 q 470 88 439 40 q 501 197 501 136 l 485 239 q 458 138 485 179 q 385 74 432 96 q 281 51 339 51 q 199 66 235 51 q 142 110 163 81 q 121 188 121 140 m 139 513 q 187 547 158 529 q 253 577 215 565 q 336 589 290 589 q 444 553 403 589 q 485 453 485 518 l 485 0 l 557 0 l 557 453 q 531 560 557 515 q 455 628 504 604 q 336 653 406 653 q 197 625 254 653 q 103 568 139 597 l 139 513 m 128 960 l 374 747 l 414 775 l 194 997 l 128 960 z "},"á":{"ha":646,"x_min":47,"x_max":557,"o":"m 121 188 q 146 269 121 236 q 215 320 171 303 q 314 338 258 338 q 427 320 379 338 q 514 274 475 303 l 514 318 q 477 349 503 331 q 410 381 451 367 q 311 394 369 394 q 180 370 240 394 q 83 299 119 346 q 47 179 47 251 q 76 72 47 115 q 154 8 104 29 q 264 -14 204 -14 q 385 13 332 -14 q 470 88 439 40 q 501 197 501 136 l 485 239 q 458 138 485 179 q 385 74 432 96 q 281 51 339 51 q 199 66 235 51 q 142 110 163 81 q 121 188 121 140 m 139 513 q 187 547 158 529 q 253 577 215 565 q 336 589 290 589 q 444 553 403 589 q 485 453 485 518 l 485 0 l 557 0 l 557 453 q 531 560 557 515 q 455 628 504 604 q 336 653 406 653 q 197 625 254 653 q 103 568 139 597 l 139 513 m 533 960 l 467 997 l 247 775 l 288 747 l 533 960 z "},"â":{"ha":646,"x_min":47,"x_max":558,"o":"m 121 188 q 146 269 121 236 q 215 320 171 303 q 314 338 258 338 q 427 320 379 338 q 514 274 475 303 l 514 318 q 477 349 503 331 q 410 381 451 367 q 311 394 369 394 q 180 370 240 394 q 83 299 119 346 q 47 179 47 251 q 76 72 47 115 q 154 8 104 29 q 264 -14 204 -14 q 385 13 332 -14 q 470 88 439 40 q 501 197 501 136 l 485 239 q 458 138 485 179 q 385 74 432 96 q 281 51 339 51 q 199 66 235 51 q 142 110 163 81 q 121 188 121 140 m 139 513 q 187 547 158 529 q 253 577 215 565 q 336 589 290 589 q 444 553 403 589 q 485 453 485 518 l 485 0 l 557 0 l 557 453 q 531 560 557 515 q 455 628 504 604 q 336 653 406 653 q 197 625 254 653 q 103 568 139 597 l 139 513 m 336 896 l 513 742 l 558 779 l 336 974 l 114 779 l 160 742 l 336 896 z "},"ã":{"ha":646,"x_min":47,"x_max":557,"o":"m 121 188 q 146 269 121 236 q 215 320 171 303 q 314 338 258 338 q 427 320 379 338 q 514 274 475 303 l 514 318 q 477 349 503 331 q 410 381 451 367 q 311 394 369 394 q 180 370 240 394 q 83 299 119 346 q 47 179 47 251 q 76 72 47 115 q 154 8 104 29 q 264 -14 204 -14 q 385 13 332 -14 q 470 88 439 40 q 501 197 501 136 l 485 239 q 458 138 485 179 q 385 74 432 96 q 281 51 339 51 q 199 66 235 51 q 142 110 163 81 q 121 188 121 140 m 139 513 q 187 547 158 529 q 253 577 215 565 q 336 589 290 589 q 444 553 403 589 q 485 453 485 518 l 485 0 l 557 0 l 557 453 q 531 560 557 515 q 455 628 504 604 q 336 653 406 653 q 197 625 254 653 q 103 568 139 597 l 139 513 m 124 796 l 172 764 q 178 794 172 778 q 201 823 185 811 q 244 835 217 835 q 299 819 276 835 q 349 786 322 803 q 413 769 375 769 q 466 781 442 769 q 508 814 490 793 q 538 860 526 835 l 494 897 q 458 847 476 864 q 417 831 440 831 q 370 840 389 831 q 335 863 351 850 q 297 886 318 876 q 244 896 276 896 q 188 883 214 896 q 144 847 161 869 q 124 796 128 825 z "},"ä":{"ha":646,"x_min":47,"x_max":557,"o":"m 121 188 q 146 269 121 236 q 215 320 171 303 q 314 338 258 338 q 427 320 379 338 q 514 274 475 303 l 514 318 q 477 349 503 331 q 410 381 451 367 q 311 394 369 394 q 180 370 240 394 q 83 299 119 346 q 47 179 47 251 q 76 72 47 115 q 154 8 104 29 q 264 -14 204 -14 q 385 13 332 -14 q 470 88 439 40 q 501 197 501 136 l 485 239 q 458 138 485 179 q 385 74 432 96 q 281 51 339 51 q 199 66 235 51 q 142 110 163 81 q 121 188 121 140 m 139 513 q 187 547 158 529 q 253 577 215 565 q 336 589 290 589 q 444 553 403 589 q 485 453 485 518 l 485 0 l 557 0 l 557 453 q 531 560 557 515 q 455 628 504 604 q 336 653 406 653 q 197 625 254 653 q 103 568 139 597 l 139 513 m 407 799 q 422 763 407 778 q 458 747 438 747 q 495 763 481 747 q 510 799 510 778 q 495 836 510 821 q 458 851 481 851 q 422 836 438 851 q 407 799 407 821 m 151 799 q 167 763 151 778 q 203 747 182 747 q 240 763 225 747 q 254 799 254 778 q 240 836 254 821 q 203 851 225 851 q 167 836 182 851 q 151 799 151 821 z "},"å":{"ha":646,"x_min":47,"x_max":557,"o":"m 121 188 q 146 269 121 236 q 215 320 171 303 q 314 338 258 338 q 427 320 379 338 q 514 274 475 303 l 514 318 q 477 349 503 331 q 410 381 451 367 q 311 394 369 394 q 180 370 240 394 q 83 299 119 346 q 47 179 47 251 q 76 72 47 115 q 154 8 104 29 q 264 -14 204 -14 q 385 13 332 -14 q 470 88 439 40 q 501 197 501 136 l 485 239 q 458 138 485 179 q 385 74 432 96 q 281 51 339 51 q 199 66 235 51 q 142 110 163 81 q 121 188 121 140 m 139 513 q 187 547 158 529 q 253 577 215 565 q 336 589 290 589 q 444 553 403 589 q 485 453 485 518 l 485 0 l 557 0 l 557 453 q 531 560 557 515 q 455 628 504 604 q 336 653 406 653 q 197 625 254 653 q 103 568 139 597 l 139 513 m 194 875 q 238 774 194 813 q 336 736 282 736 q 434 774 390 736 q 478 875 478 813 q 434 976 478 938 q 336 1014 390 1014 q 238 976 282 1014 q 194 875 194 938 m 243 875 q 272 944 243 918 q 336 969 300 969 q 401 944 372 969 q 429 875 429 918 q 401 806 429 832 q 336 781 372 781 q 272 806 300 781 q 243 875 243 832 z "},"ā":{"ha":646,"x_min":47,"x_max":579,"o":"m 121 188 q 146 269 121 236 q 215 320 171 303 q 314 338 258 338 q 427 320 379 338 q 514 274 475 303 l 514 318 q 477 349 503 331 q 410 381 451 367 q 311 394 369 394 q 180 370 240 394 q 83 299 119 346 q 47 179 47 251 q 76 72 47 115 q 154 8 104 29 q 264 -14 204 -14 q 385 13 332 -14 q 470 88 439 40 q 501 197 501 136 l 485 239 q 458 138 485 179 q 385 74 432 96 q 281 51 339 51 q 199 66 235 51 q 142 110 163 81 q 121 188 121 140 m 139 513 q 187 547 158 529 q 253 577 215 565 q 336 589 290 589 q 444 553 403 589 q 485 453 485 518 l 485 0 l 557 0 l 557 453 q 531 560 557 515 q 455 628 504 604 q 336 653 406 653 q 197 625 254 653 q 103 568 139 597 l 139 513 m 93 764 l 579 764 l 579 832 l 93 832 l 93 764 z "},"ă":{"ha":646,"x_min":47,"x_max":557,"o":"m 121 188 q 146 269 121 236 q 215 320 171 303 q 314 338 258 338 q 427 320 379 338 q 514 274 475 303 l 514 318 q 477 349 503 331 q 410 381 451 367 q 311 394 369 394 q 180 370 240 394 q 83 299 119 346 q 47 179 47 251 q 76 72 47 115 q 154 8 104 29 q 264 -14 204 -14 q 385 13 332 -14 q 470 88 439 40 q 501 197 501 136 l 485 239 q 458 138 485 179 q 385 74 432 96 q 281 51 339 51 q 199 66 235 51 q 142 110 163 81 q 121 188 121 140 m 139 513 q 187 547 158 529 q 253 577 215 565 q 336 589 290 589 q 444 553 403 589 q 485 453 485 518 l 485 0 l 557 0 l 557 453 q 531 560 557 515 q 455 628 504 604 q 336 653 406 653 q 197 625 254 653 q 103 568 139 597 l 139 513 m 111 936 q 135 844 111 889 q 209 770 160 799 q 331 742 258 742 q 453 770 404 742 q 526 844 501 799 q 550 936 550 889 l 485 936 q 469 876 485 907 q 419 823 454 844 q 331 801 385 801 q 242 823 276 801 q 192 876 207 844 q 176 936 176 907 l 111 936 z "},"ą":{"ha":646,"x_min":47,"x_max":611,"o":"m 121 188 q 146 269 121 236 q 215 320 171 303 q 314 338 258 338 q 427 320 379 338 q 514 274 475 303 l 514 318 q 477 349 503 331 q 410 381 451 367 q 311 394 369 394 q 176 370 236 394 q 82 299 117 346 q 47 185 47 253 q 78 73 47 117 q 158 8 108 29 q 264 -14 207 -14 q 385 13 332 -14 q 470 88 439 40 q 501 197 501 136 l 485 239 q 458 138 485 179 q 385 74 432 96 q 281 51 339 51 q 202 66 239 51 q 143 110 165 81 q 121 188 121 140 m 139 513 q 187 547 158 529 q 253 577 215 565 q 336 589 290 589 q 444 553 403 589 q 485 453 485 518 l 485 0 l 557 0 l 557 453 q 531 560 557 515 q 455 628 504 604 q 336 653 406 653 q 197 625 254 653 q 103 568 139 597 l 139 513 m 581 -204 q 543 -231 565 -219 q 488 -242 521 -242 q 422 -222 449 -242 q 396 -161 396 -203 q 419 -99 396 -129 q 480 -44 443 -69 q 557 0 517 -18 l 519 26 q 426 -29 471 1 q 352 -97 381 -60 q 324 -178 324 -133 q 342 -244 324 -215 q 395 -290 360 -274 q 483 -306 431 -306 q 562 -288 528 -306 q 611 -250 596 -271 l 581 -204 z "},"b":{"ha":775,"x_min":103,"x_max":721,"o":"m 175 1083 l 103 1083 l 103 0 l 175 0 l 175 1083 m 721 319 q 680 498 721 424 q 569 613 639 572 q 413 653 499 653 q 271 609 332 653 q 176 490 210 565 q 142 319 142 415 q 176 149 142 225 q 271 30 210 74 q 413 -14 332 -14 q 569 26 499 -14 q 680 142 639 67 q 721 319 721 217 m 649 319 q 615 176 649 236 q 526 85 582 117 q 403 54 471 54 q 292 89 344 54 q 207 183 239 124 q 175 319 175 243 q 207 456 175 396 q 292 550 239 515 q 403 585 344 585 q 526 553 471 585 q 615 463 582 522 q 649 319 649 403 z "},"c":{"ha":669,"x_min":47,"x_max":594,"o":"m 121 319 q 154 457 121 397 q 245 551 188 517 q 375 585 303 585 q 471 569 426 585 q 548 531 515 554 q 594 481 581 507 l 594 571 q 505 628 565 604 q 375 653 444 653 q 208 610 282 653 q 91 492 135 567 q 47 319 47 417 q 91 148 47 224 q 208 29 135 72 q 375 -14 282 -14 q 505 10 444 -14 q 594 68 565 33 l 594 158 q 548 109 581 133 q 471 69 515 85 q 375 54 426 54 q 245 88 303 54 q 154 182 188 122 q 121 319 121 242 z "},"ç":{"ha":669,"x_min":47,"x_max":594,"o":"m 121 319 q 154 457 121 397 q 245 551 188 517 q 375 585 303 585 q 471 569 426 585 q 548 531 515 554 q 594 481 581 507 l 594 571 q 505 628 565 604 q 375 653 444 653 q 208 610 282 653 q 91 492 135 567 q 47 319 47 417 q 91 148 47 224 q 208 29 135 72 q 375 -14 282 -14 q 505 10 444 -14 q 594 68 565 33 l 594 158 q 548 109 581 133 q 471 69 515 85 q 375 54 426 54 q 245 88 303 54 q 154 182 188 122 q 121 319 121 242 m 364 47 l 261 -142 q 310 -119 283 -125 q 354 -112 336 -112 q 410 -128 389 -112 q 431 -178 431 -144 q 403 -236 431 -215 q 336 -257 376 -257 q 286 -248 306 -257 q 243 -218 267 -239 l 211 -256 q 269 -297 240 -285 q 336 -308 297 -308 q 408 -293 375 -308 q 463 -249 442 -278 q 483 -178 483 -219 q 468 -121 483 -143 q 430 -87 453 -99 q 383 -75 407 -75 q 358 -78 367 -75 q 336 -87 349 -82 l 419 47 l 364 47 z "},"ć":{"ha":669,"x_min":47,"x_max":594,"o":"m 121 319 q 154 457 121 397 q 245 551 188 517 q 375 585 303 585 q 471 569 426 585 q 548 531 515 554 q 594 481 581 507 l 594 571 q 505 628 565 604 q 375 653 444 653 q 208 610 282 653 q 91 492 135 567 q 47 319 47 417 q 91 148 47 224 q 208 29 135 72 q 375 -14 282 -14 q 505 10 444 -14 q 594 68 565 33 l 594 158 q 548 109 581 133 q 471 69 515 85 q 375 54 426 54 q 245 88 303 54 q 154 182 188 122 q 121 319 121 242 m 564 954 l 497 992 l 278 769 l 318 742 l 564 954 z "},"ĉ":{"ha":669,"x_min":47,"x_max":597,"o":"m 121 319 q 154 457 121 397 q 245 551 188 517 q 375 585 303 585 q 471 569 426 585 q 548 531 515 554 q 594 481 581 507 l 594 571 q 505 628 565 604 q 375 653 444 653 q 208 610 282 653 q 91 492 135 567 q 47 319 47 417 q 91 148 47 224 q 208 29 135 72 q 375 -14 282 -14 q 505 10 444 -14 q 594 68 565 33 l 594 158 q 548 109 581 133 q 471 69 515 85 q 375 54 426 54 q 245 88 303 54 q 154 182 188 122 q 121 319 121 242 m 375 890 l 551 736 l 597 774 l 375 968 l 153 774 l 199 736 l 375 890 z "},"ċ":{"ha":669,"x_min":47,"x_max":594,"o":"m 121 319 q 154 457 121 397 q 245 551 188 517 q 375 585 303 585 q 471 569 426 585 q 548 531 515 554 q 594 481 581 507 l 594 571 q 505 628 565 604 q 375 653 444 653 q 208 610 282 653 q 91 492 135 567 q 47 319 47 417 q 91 148 47 224 q 208 29 135 72 q 375 -14 282 -14 q 505 10 444 -14 q 594 68 565 33 l 594 158 q 548 109 581 133 q 471 69 515 85 q 375 54 426 54 q 245 88 303 54 q 154 182 188 122 q 121 319 121 242 m 324 793 q 339 757 324 772 q 375 742 354 742 q 412 757 397 742 q 426 793 426 772 q 412 831 426 815 q 375 846 397 846 q 339 831 354 846 q 324 793 324 815 z "},"č":{"ha":669,"x_min":47,"x_max":597,"o":"m 121 319 q 154 457 121 397 q 245 551 188 517 q 375 585 303 585 q 471 569 426 585 q 548 531 515 554 q 594 481 581 507 l 594 571 q 505 628 565 604 q 375 653 444 653 q 208 610 282 653 q 91 492 135 567 q 47 319 47 417 q 91 148 47 224 q 208 29 135 72 q 375 -14 282 -14 q 505 10 444 -14 q 594 68 565 33 l 594 158 q 548 109 581 133 q 471 69 515 85 q 375 54 426 54 q 245 88 303 54 q 154 182 188 122 q 121 319 121 242 m 375 825 l 199 979 l 153 942 l 375 747 l 597 942 l 551 979 l 375 825 z "},"d":{"ha":775,"x_min":54,"x_max":672,"o":"m 600 1083 l 600 0 l 672 0 l 672 1083 l 600 1083 m 54 319 q 96 142 54 217 q 208 26 138 67 q 363 -14 278 -14 q 506 30 446 -14 q 599 149 565 74 q 633 319 633 225 q 599 490 633 415 q 506 609 565 565 q 363 653 446 653 q 208 613 278 653 q 96 498 138 572 q 54 319 54 424 m 128 319 q 160 463 128 403 q 249 553 193 522 q 372 585 306 585 q 484 550 432 585 q 568 456 536 515 q 600 319 600 396 q 568 183 600 243 q 484 89 536 124 q 372 54 432 54 q 249 85 306 54 q 160 176 193 117 q 128 319 128 236 z "},"ď":{"ha":792,"x_min":54,"x_max":951,"o":"m 600 1083 l 600 0 l 672 0 l 672 1083 l 600 1083 m 54 319 q 96 142 54 217 q 208 26 138 67 q 363 -14 278 -14 q 506 30 446 -14 q 599 149 565 74 q 633 319 633 225 q 599 490 633 415 q 506 609 565 565 q 363 653 446 653 q 208 613 278 653 q 96 498 138 572 q 54 319 54 424 m 128 319 q 160 463 128 403 q 249 553 193 522 q 372 585 306 585 q 484 550 432 585 q 568 456 536 515 q 600 319 600 396 q 568 183 600 243 q 484 89 536 124 q 372 54 432 54 q 249 85 306 54 q 160 176 193 117 q 128 319 128 236 m 879 1075 l 747 718 l 799 700 l 951 1047 l 879 1075 z "},"e":{"ha":708,"x_min":54,"x_max":654,"o":"m 350 -14 q 517 26 446 -14 q 643 149 589 65 l 585 186 q 487 86 542 118 q 358 54 432 54 q 237 88 289 54 q 156 182 185 121 q 128 325 128 243 q 157 465 128 406 q 238 556 186 524 q 361 589 290 589 q 471 560 422 589 q 548 479 519 531 q 576 363 576 428 q 573 340 576 351 q 567 321 569 328 l 597 364 l 100 364 l 100 301 l 651 301 q 653 318 653 308 q 654 336 654 328 q 617 501 654 429 q 515 613 581 572 q 361 653 449 653 q 201 610 271 653 q 93 493 132 568 q 54 321 54 418 q 92 148 54 224 q 197 29 131 72 q 350 -14 264 -14 z "},"è":{"ha":708,"x_min":54,"x_max":654,"o":"m 100 301 l 651 301 q 653 319 653 310 q 654 336 654 328 q 616 503 654 432 q 511 613 578 574 q 361 653 444 653 q 222 622 285 653 q 119 534 160 590 q 63 404 79 478 q 56 363 58 383 q 54 321 54 343 q 93 149 54 225 q 199 29 132 72 q 350 -14 267 -14 q 489 9 435 -14 q 579 69 543 32 q 643 149 615 106 l 585 186 q 534 122 564 151 q 462 73 504 92 q 358 54 419 54 q 238 87 290 54 q 157 180 186 119 q 128 321 128 240 l 129 346 q 161 476 129 421 q 246 560 193 531 q 361 589 299 589 q 472 560 424 589 q 547 480 519 531 q 575 364 575 429 l 100 364 l 100 301 m 164 957 l 410 744 l 450 772 l 231 994 l 164 957 z "},"é":{"ha":708,"x_min":54,"x_max":654,"o":"m 100 301 l 651 301 q 653 319 653 310 q 654 336 654 328 q 616 503 654 432 q 511 613 578 574 q 361 653 444 653 q 222 622 285 653 q 119 534 160 590 q 63 404 79 478 q 56 363 58 383 q 54 321 54 343 q 93 149 54 225 q 199 29 132 72 q 350 -14 267 -14 q 489 9 435 -14 q 579 69 543 32 q 643 149 615 106 l 585 186 q 534 122 564 151 q 462 73 504 92 q 358 54 419 54 q 238 87 290 54 q 157 180 186 119 q 128 321 128 240 l 129 346 q 161 476 129 421 q 246 560 193 531 q 361 589 299 589 q 472 560 424 589 q 547 480 519 531 q 575 364 575 429 l 100 364 l 100 301 m 575 957 l 508 994 l 289 772 l 329 744 l 575 957 z "},"ê":{"ha":708,"x_min":54,"x_max":654,"o":"m 100 301 l 651 301 q 653 319 653 310 q 654 336 654 328 q 616 503 654 432 q 511 613 578 574 q 361 653 444 653 q 222 622 285 653 q 119 534 160 590 q 63 404 79 478 q 56 363 58 383 q 54 321 54 343 q 93 149 54 225 q 199 29 132 72 q 350 -14 267 -14 q 489 9 435 -14 q 579 69 543 32 q 643 149 615 106 l 585 186 q 534 122 564 151 q 462 73 504 92 q 358 54 419 54 q 238 87 290 54 q 157 180 186 119 q 128 321 128 240 l 129 346 q 161 476 129 421 q 246 560 193 531 q 361 589 299 589 q 472 560 424 589 q 547 480 519 531 q 575 364 575 429 l 100 364 l 100 301 m 361 890 l 538 736 l 583 774 l 361 968 l 139 774 l 185 736 l 361 890 z "},"ë":{"ha":708,"x_min":54,"x_max":654,"o":"m 100 301 l 651 301 q 653 319 653 310 q 654 336 654 328 q 616 503 654 432 q 511 613 578 574 q 361 653 444 653 q 222 622 285 653 q 119 534 160 590 q 63 404 79 478 q 56 363 58 383 q 54 321 54 343 q 93 149 54 225 q 199 29 132 72 q 350 -14 267 -14 q 489 9 435 -14 q 579 69 543 32 q 643 149 615 106 l 585 186 q 534 122 564 151 q 462 73 504 92 q 358 54 419 54 q 238 87 290 54 q 157 180 186 119 q 128 321 128 240 l 129 346 q 161 476 129 421 q 246 560 193 531 q 361 589 299 589 q 472 560 424 589 q 547 480 519 531 q 575 364 575 429 l 100 364 l 100 301 m 447 788 q 463 751 447 767 q 500 736 479 736 q 537 751 522 736 q 551 788 551 767 q 537 825 551 810 q 500 840 522 840 q 463 825 479 840 q 447 788 447 810 m 169 788 q 185 751 169 767 q 222 736 201 736 q 259 751 244 736 q 274 788 274 767 q 259 825 274 810 q 222 840 244 840 q 185 825 201 840 q 169 788 169 810 z "},"ē":{"ha":708,"x_min":54,"x_max":654,"o":"m 100 301 l 651 301 q 653 319 653 310 q 654 336 654 328 q 616 503 654 432 q 511 613 578 574 q 361 653 444 653 q 222 622 285 653 q 119 534 160 590 q 63 404 79 478 q 56 363 58 383 q 54 321 54 343 q 93 149 54 225 q 199 29 132 72 q 350 -14 267 -14 q 489 9 435 -14 q 579 69 543 32 q 643 149 615 106 l 585 186 q 534 122 564 151 q 462 73 504 92 q 358 54 419 54 q 238 87 290 54 q 157 180 186 119 q 128 321 128 240 l 129 346 q 161 476 129 421 q 246 560 193 531 q 361 589 299 589 q 472 560 424 589 q 547 480 519 531 q 575 364 575 429 l 100 364 l 100 301 m 118 736 l 604 736 l 604 804 l 118 804 l 118 736 z "},"ĕ":{"ha":708,"x_min":54,"x_max":654,"o":"m 100 301 l 651 301 q 653 319 653 310 q 654 336 654 328 q 616 503 654 432 q 511 613 578 574 q 361 653 444 653 q 222 622 285 653 q 119 534 160 590 q 63 404 79 478 q 56 363 58 383 q 54 321 54 343 q 93 149 54 225 q 199 29 132 72 q 350 -14 267 -14 q 489 9 435 -14 q 579 69 543 32 q 643 149 615 106 l 585 186 q 534 122 564 151 q 462 73 504 92 q 358 54 419 54 q 238 87 290 54 q 157 180 186 119 q 128 321 128 240 l 129 346 q 161 476 129 421 q 246 560 193 531 q 361 589 299 589 q 472 560 424 589 q 547 480 519 531 q 575 364 575 429 l 100 364 l 100 301 m 142 931 q 166 838 142 883 q 240 765 190 793 q 361 736 289 736 q 483 765 435 736 q 556 838 532 793 q 581 931 581 883 l 515 931 q 499 870 515 901 q 449 817 483 839 q 361 796 415 796 q 272 817 306 796 q 222 870 238 839 q 206 931 206 901 l 142 931 z "},"ė":{"ha":708,"x_min":54,"x_max":654,"o":"m 100 301 l 651 301 q 653 319 653 310 q 654 336 654 328 q 616 503 654 432 q 511 613 578 574 q 361 653 444 653 q 222 622 285 653 q 119 534 160 590 q 63 404 79 478 q 56 363 58 383 q 54 321 54 343 q 93 149 54 225 q 199 29 132 72 q 350 -14 267 -14 q 489 9 435 -14 q 579 69 543 32 q 643 149 615 106 l 585 186 q 534 122 564 151 q 462 73 504 92 q 358 54 419 54 q 238 87 290 54 q 157 180 186 119 q 128 321 128 240 l 129 346 q 161 476 129 421 q 246 560 193 531 q 361 589 299 589 q 472 560 424 589 q 547 480 519 531 q 575 364 575 429 l 100 364 l 100 301 m 308 788 q 324 751 308 767 q 361 736 340 736 q 398 751 383 736 q 413 788 413 767 q 398 825 413 810 q 361 840 383 840 q 324 825 340 840 q 308 788 308 810 z "},"ę":{"ha":708,"x_min":54,"x_max":681,"o":"m 100 301 l 651 301 q 653 319 653 310 q 654 336 654 328 q 616 503 654 432 q 511 613 578 574 q 361 653 444 653 q 222 622 285 653 q 119 534 160 590 q 63 404 79 478 q 56 363 58 383 q 54 321 54 343 q 93 149 54 225 q 199 29 132 72 q 350 -14 267 -14 q 458 1 414 -14 q 533 39 501 15 q 590 92 564 63 q 643 149 615 121 l 585 186 q 534 122 564 151 q 462 73 504 92 q 358 54 419 54 q 238 87 290 54 q 157 180 186 119 q 128 321 128 240 l 129 346 q 161 476 129 421 q 246 560 193 531 q 361 589 299 589 q 472 560 424 589 q 547 480 519 531 q 575 364 575 429 l 100 364 l 100 301 m 650 -125 q 613 -151 635 -140 q 557 -162 590 -162 q 492 -144 518 -162 q 465 -90 465 -125 q 488 -26 465 -57 q 550 45 510 4 q 643 149 590 86 l 579 136 q 517 69 550 101 q 457 8 485 38 q 411 -51 429 -21 q 393 -112 393 -81 q 413 -176 393 -150 q 468 -214 433 -201 q 544 -226 503 -226 q 627 -209 589 -226 q 681 -171 665 -192 l 650 -125 z "},"ě":{"ha":708,"x_min":54,"x_max":654,"o":"m 100 301 l 651 301 q 653 319 653 310 q 654 336 654 328 q 616 503 654 432 q 511 613 578 574 q 361 653 444 653 q 222 622 285 653 q 119 534 160 590 q 63 404 79 478 q 56 363 58 383 q 54 321 54 343 q 93 149 54 225 q 199 29 132 72 q 350 -14 267 -14 q 489 9 435 -14 q 579 69 543 32 q 643 149 615 106 l 585 186 q 534 122 564 151 q 462 73 504 92 q 358 54 419 54 q 238 87 290 54 q 157 180 186 119 q 128 321 128 240 l 129 346 q 161 476 129 421 q 246 560 193 531 q 361 589 299 589 q 472 560 424 589 q 547 480 519 531 q 575 364 575 429 l 100 364 l 100 301 m 361 814 l 185 968 l 139 931 l 361 736 l 583 931 l 538 968 l 361 814 z "},"f":{"ha":393,"x_min":61,"x_max":415,"o":"m 61 639 l 61 571 l 361 571 l 361 639 l 61 639 m 375 978 l 415 1036 q 388 1064 406 1050 q 348 1087 371 1078 q 294 1096 325 1096 q 199 1070 236 1096 q 142 998 161 1044 q 124 886 124 951 l 124 0 l 196 0 l 196 878 q 206 954 196 921 q 235 1006 215 988 q 290 1024 256 1024 q 338 1012 315 1024 q 375 978 360 1000 z "},"g":{"ha":775,"x_min":54,"x_max":672,"o":"m 69 -42 q 107 -187 69 -124 q 212 -285 144 -250 q 367 -319 279 -319 q 517 -282 447 -319 q 629 -170 586 -244 q 672 14 672 -96 l 672 639 l 600 639 l 600 14 q 566 -137 600 -78 q 479 -224 532 -196 q 367 -251 426 -251 q 249 -224 300 -251 q 171 -149 199 -196 q 143 -42 143 -101 l 69 -42 m 54 319 q 96 142 54 217 q 208 26 138 67 q 363 -14 278 -14 q 506 30 446 -14 q 599 149 565 74 q 633 319 633 225 q 599 490 633 415 q 506 609 565 565 q 363 653 446 653 q 208 613 278 653 q 96 498 138 572 q 54 319 54 424 m 128 319 q 160 463 128 403 q 249 553 193 522 q 372 585 306 585 q 458 565 417 585 q 531 508 499 544 q 582 425 564 472 q 600 322 600 378 q 568 184 600 244 q 484 89 536 124 q 372 54 432 54 q 249 85 306 54 q 160 176 193 117 q 128 319 128 236 z "},"ĝ":{"ha":775,"x_min":54,"x_max":672,"o":"m 69 -42 q 107 -187 69 -124 q 212 -285 144 -250 q 367 -319 279 -319 q 517 -282 447 -319 q 629 -170 586 -244 q 672 14 672 -96 l 672 639 l 600 639 l 600 14 q 566 -137 600 -78 q 479 -224 532 -196 q 367 -251 426 -251 q 249 -224 300 -251 q 171 -149 199 -196 q 143 -42 143 -101 l 69 -42 m 54 319 q 96 142 54 217 q 208 26 138 67 q 363 -14 278 -14 q 506 30 446 -14 q 599 149 565 74 q 633 319 633 225 q 599 490 633 415 q 506 609 565 565 q 363 653 446 653 q 208 613 278 653 q 96 498 138 572 q 54 319 54 424 m 128 319 q 160 463 128 403 q 249 553 193 522 q 372 585 306 585 q 458 565 417 585 q 531 508 499 544 q 582 425 564 472 q 600 322 600 378 q 568 184 600 244 q 484 89 536 124 q 372 54 432 54 q 249 85 306 54 q 160 176 193 117 q 128 319 128 236 m 363 890 l 539 736 l 585 774 l 363 968 l 140 774 l 186 736 l 363 890 z "},"ğ":{"ha":775,"x_min":54,"x_max":672,"o":"m 69 -42 q 107 -187 69 -124 q 212 -285 144 -250 q 367 -319 279 -319 q 517 -282 447 -319 q 629 -170 586 -244 q 672 14 672 -96 l 672 639 l 600 639 l 600 14 q 566 -137 600 -78 q 479 -224 532 -196 q 367 -251 426 -251 q 249 -224 300 -251 q 171 -149 199 -196 q 143 -42 143 -101 l 69 -42 m 54 319 q 96 142 54 217 q 208 26 138 67 q 363 -14 278 -14 q 506 30 446 -14 q 599 149 565 74 q 633 319 633 225 q 599 490 633 415 q 506 609 565 565 q 363 653 446 653 q 208 613 278 653 q 96 498 138 572 q 54 319 54 424 m 128 319 q 160 463 128 403 q 249 553 193 522 q 372 585 306 585 q 458 565 417 585 q 531 508 499 544 q 582 425 564 472 q 600 322 600 378 q 568 184 600 244 q 484 89 536 124 q 372 54 432 54 q 249 85 306 54 q 160 176 193 117 q 128 319 128 236 m 143 931 q 167 838 143 883 q 241 765 192 793 q 363 736 290 736 q 485 765 436 736 q 558 838 533 793 q 582 931 582 883 l 517 931 q 501 870 517 901 q 451 817 486 839 q 363 796 417 796 q 274 817 308 796 q 224 870 239 839 q 208 931 208 901 l 143 931 z "},"ġ":{"ha":775,"x_min":54,"x_max":672,"o":"m 69 -42 q 107 -187 69 -124 q 212 -285 144 -250 q 367 -319 279 -319 q 517 -282 447 -319 q 629 -170 586 -244 q 672 14 672 -96 l 672 639 l 600 639 l 600 14 q 566 -137 600 -78 q 479 -224 532 -196 q 367 -251 426 -251 q 249 -224 300 -251 q 171 -149 199 -196 q 143 -42 143 -101 l 69 -42 m 54 319 q 96 142 54 217 q 208 26 138 67 q 363 -14 278 -14 q 506 30 446 -14 q 599 149 565 74 q 633 319 633 225 q 599 490 633 415 q 506 609 565 565 q 363 653 446 653 q 208 613 278 653 q 96 498 138 572 q 54 319 54 424 m 128 319 q 160 463 128 403 q 249 553 193 522 q 372 585 306 585 q 458 565 417 585 q 531 508 499 544 q 582 425 564 472 q 600 322 600 378 q 568 184 600 244 q 484 89 536 124 q 372 54 432 54 q 249 85 306 54 q 160 176 193 117 q 128 319 128 236 m 328 821 q 343 785 328 800 q 379 769 358 769 q 416 785 401 769 q 431 821 431 800 q 416 858 431 843 q 379 874 401 874 q 343 858 358 874 q 328 821 328 843 z "},"ģ":{"ha":792,"x_min":54,"x_max":672,"o":"m 69 -42 q 107 -187 69 -124 q 212 -285 144 -250 q 367 -319 279 -319 q 517 -282 447 -319 q 629 -170 586 -244 q 672 14 672 -96 l 672 639 l 600 639 l 600 14 q 566 -137 600 -78 q 479 -224 532 -196 q 367 -251 426 -251 q 249 -224 300 -251 q 171 -149 199 -196 q 143 -42 143 -101 l 69 -42 m 54 319 q 96 142 54 217 q 208 26 138 67 q 363 -14 278 -14 q 506 30 446 -14 q 599 149 565 74 q 633 319 633 225 q 599 490 633 415 q 506 609 565 565 q 363 653 446 653 q 208 613 278 653 q 96 498 138 572 q 54 319 54 424 m 128 319 q 160 463 128 403 q 249 553 193 522 q 372 585 306 585 q 458 565 417 585 q 531 508 499 544 q 582 425 564 472 q 600 322 600 378 q 568 184 600 244 q 484 89 536 124 q 372 54 432 54 q 249 85 306 54 q 160 176 193 117 q 128 319 128 236 m 378 769 l 564 1101 l 515 1128 l 311 808 l 378 769 z "},"h":{"ha":701,"x_min":110,"x_max":592,"o":"m 182 1083 l 110 1083 l 110 0 l 182 0 l 182 1083 m 519 411 l 519 0 l 592 0 l 592 419 q 568 547 592 494 q 499 626 544 599 q 386 653 453 653 q 268 618 319 653 q 187 524 217 583 q 157 389 157 465 l 182 389 q 206 488 182 443 q 273 558 231 532 q 369 585 315 585 q 484 539 449 585 q 519 411 519 493 z "},"ĥ":{"ha":701,"x_min":-67,"x_max":592,"o":"m 182 1083 l 110 1083 l 110 0 l 182 0 l 182 1083 m 519 411 l 519 0 l 592 0 l 592 419 q 568 547 592 494 q 499 626 544 599 q 386 653 453 653 q 266 618 319 653 q 181 524 213 583 q 149 389 149 465 l 182 389 q 206 488 182 443 q 273 558 231 532 q 369 585 315 585 q 484 539 449 585 q 519 411 519 493 m 156 1321 l 332 1167 l 378 1204 l 156 1399 l -67 1204 l -21 1167 l 156 1321 z "},"i":{"ha":322,"x_min":110,"x_max":213,"o":"m 110 928 q 125 892 110 907 q 161 876 140 876 q 198 892 183 876 q 213 928 213 907 q 198 965 213 950 q 161 979 183 979 q 125 965 140 979 q 110 928 110 950 m 125 639 l 125 0 l 197 0 l 197 639 l 125 639 z "},"ì":{"ha":322,"x_min":-58,"x_max":228,"o":"m 125 639 l 125 0 l 197 0 l 197 639 l 125 639 m -58 965 l 188 753 l 228 781 l 8 1003 l -58 965 z "},"í":{"ha":322,"x_min":94,"x_max":381,"o":"m 125 639 l 125 0 l 197 0 l 197 639 l 125 639 m 381 965 l 314 1003 l 94 781 l 135 753 l 381 965 z "},"î":{"ha":322,"x_min":-61,"x_max":383,"o":"m 125 639 l 125 0 l 197 0 l 197 639 l 125 639 m 161 899 l 338 744 l 383 782 l 161 976 l -61 782 l -15 744 l 161 899 z "},"ï":{"ha":322,"x_min":-18,"x_max":340,"o":"m 125 639 l 125 0 l 197 0 l 197 639 l 125 639 m 238 813 q 253 776 238 792 q 289 761 268 761 q 326 776 311 761 q 340 813 340 792 q 326 850 340 835 q 289 865 311 865 q 253 850 268 865 q 238 813 238 835 m -18 813 q -3 776 -18 792 q 33 761 13 761 q 70 776 56 761 q 85 813 85 792 q 70 850 85 835 q 33 865 56 865 q -3 850 13 865 q -18 813 -18 835 z "},"ĩ":{"ha":322,"x_min":-39,"x_max":375,"o":"m 125 639 l 125 0 l 197 0 l 197 639 l 125 639 m -39 801 l 10 769 q 16 800 10 783 q 38 828 22 817 q 82 840 54 840 q 137 824 114 840 q 186 792 160 808 q 250 775 213 775 q 303 787 279 775 q 346 819 328 799 q 375 865 364 840 l 332 903 q 296 853 314 869 q 254 836 278 836 q 208 846 226 836 q 172 869 189 856 q 135 892 156 882 q 82 901 114 901 q 25 888 51 901 q -18 853 -1 875 q -39 801 -35 831 z "},"ī":{"ha":322,"x_min":-62,"x_max":424,"o":"m 125 639 l 125 0 l 197 0 l 197 639 l 125 639 m -62 772 l 424 772 l 424 840 l -62 840 l -62 772 z "},"ĭ":{"ha":322,"x_min":-58,"x_max":381,"o":"m 125 639 l 125 0 l 197 0 l 197 639 l 125 639 m -58 931 q -34 838 -58 883 q 40 765 -10 793 q 161 736 89 736 q 283 765 235 736 q 356 838 332 793 q 381 931 381 883 l 315 931 q 300 870 315 901 q 250 817 285 839 q 161 796 215 796 q 72 817 107 796 q 22 870 38 839 q 7 931 7 901 l -58 931 z "},"į":{"ha":322,"x_min":-36,"x_max":251,"o":"m 110 928 q 125 892 110 907 q 161 876 140 876 q 198 892 183 876 q 213 928 213 907 q 198 965 213 950 q 161 979 183 979 q 125 965 140 979 q 110 928 110 950 m 125 639 l 125 0 l 197 0 l 197 639 l 125 639 m 221 -204 q 183 -231 206 -219 q 128 -242 161 -242 q 63 -222 89 -242 q 36 -161 36 -203 q 60 -99 36 -129 q 120 -44 83 -69 q 197 0 157 -18 l 160 26 q 66 -29 111 1 q -8 -97 21 -60 q -36 -178 -36 -133 q -18 -244 -36 -215 q 35 -290 0 -274 q 124 -306 71 -306 q 202 -288 168 -306 q 251 -250 236 -271 l 221 -204 z "},"j":{"ha":308,"x_min":-108,"x_max":194,"o":"m 93 928 q 108 892 93 907 q 144 878 122 878 q 180 892 165 878 q 194 928 194 907 q 180 964 194 950 q 144 978 165 978 q 108 964 122 978 q 93 928 93 950 m -68 -186 l -108 -246 q -78 -276 -96 -262 q -38 -297 -61 -289 q 13 -306 -15 -306 q 109 -278 71 -306 q 165 -203 147 -251 q 183 -96 183 -156 l 183 639 l 111 639 l 111 -87 q 103 -162 111 -129 q 74 -215 94 -196 q 17 -233 53 -233 q -33 -219 -12 -233 q -68 -186 -54 -206 z "},"ĵ":{"ha":308,"x_min":-108,"x_max":369,"o":"m -68 -186 l -108 -246 q -81 -273 -97 -260 q -40 -296 -64 -286 q 13 -306 -17 -306 q 109 -280 71 -306 q 165 -207 147 -254 q 183 -96 183 -160 l 183 639 l 111 639 l 111 -87 q 102 -163 111 -131 q 72 -215 93 -196 q 17 -233 51 -233 q -30 -222 -8 -233 q -68 -186 -51 -210 m 147 890 l 324 736 l 369 774 l 147 968 l -75 774 l -29 736 l 147 890 z "},"k":{"ha":574,"x_min":103,"x_max":568,"o":"m 103 1083 l 103 0 l 175 0 l 175 1083 l 103 1083 m 449 639 l 149 375 l 476 0 l 568 0 l 240 375 l 542 639 l 449 639 z "},"ķ":{"ha":574,"x_min":103,"x_max":568,"o":"m 103 1083 l 103 0 l 175 0 l 175 1083 l 103 1083 m 449 639 l 149 375 l 476 0 l 568 0 l 240 375 l 542 639 l 449 639 m 365 -83 l 233 -440 l 285 -458 l 438 -111 l 365 -83 z "},"l":{"ha":292,"x_min":110,"x_max":182,"o":"m 110 1083 l 110 0 l 182 0 l 182 1083 l 110 1083 z "},"ĺ":{"ha":292,"x_min":65,"x_max":351,"o":"m 110 1083 l 110 0 l 182 0 l 182 1083 l 110 1083 m 351 1379 l 285 1417 l 65 1194 l 106 1167 l 351 1379 z "},"ļ":{"ha":292,"x_min":32,"x_max":238,"o":"m 110 1083 l 110 0 l 182 0 l 182 1083 l 110 1083 m 164 -83 l 32 -440 l 85 -458 l 238 -111 l 164 -83 z "},"ľ":{"ha":319,"x_min":110,"x_max":494,"o":"m 110 1083 l 110 0 l 182 0 l 182 1083 l 110 1083 m 422 1075 l 290 718 l 342 700 l 494 1047 l 422 1075 z "},"m":{"ha":1033,"x_min":110,"x_max":924,"o":"m 924 419 q 902 544 924 492 q 839 625 881 597 q 738 653 797 653 q 621 614 674 653 q 540 506 568 575 q 481 613 525 574 q 367 653 436 653 q 256 615 304 653 q 182 510 207 578 l 182 639 l 110 639 l 110 0 l 182 0 l 182 389 q 204 490 182 446 q 265 560 226 535 q 350 585 303 585 q 449 540 417 585 q 481 411 481 494 l 481 0 l 553 0 l 553 389 q 575 490 553 446 q 635 560 597 535 q 721 585 674 585 q 819 540 788 585 q 851 411 851 494 l 851 0 l 924 0 l 924 419 z "},"n":{"ha":701,"x_min":110,"x_max":592,"o":"m 519 411 l 519 0 l 592 0 l 592 419 q 539 590 592 526 q 386 653 486 653 q 262 614 315 653 q 182 506 208 575 l 182 639 l 110 639 l 110 0 l 182 0 l 182 389 q 206 489 182 444 q 273 559 231 533 q 369 585 315 585 q 483 539 447 585 q 519 411 519 493 z "},"ñ":{"ha":701,"x_min":110,"x_max":592,"o":"m 182 639 l 110 639 l 110 0 l 182 0 l 182 639 m 519 411 l 519 0 l 592 0 l 592 419 q 538 592 592 531 q 386 653 485 653 q 266 618 319 653 q 181 524 213 583 q 149 389 149 465 l 182 389 q 206 488 182 443 q 273 558 231 532 q 369 585 315 585 q 484 539 449 585 q 519 411 519 493 m 144 779 l 193 747 q 199 778 193 761 q 222 806 206 794 q 265 818 238 818 q 320 802 297 818 q 369 769 343 786 q 433 753 396 753 q 487 765 463 753 q 529 797 511 776 q 558 843 547 818 l 515 881 q 478 831 496 847 q 438 814 461 814 q 391 824 410 814 q 356 847 372 833 q 318 869 339 860 q 265 879 297 879 q 208 866 235 879 q 165 831 182 853 q 144 779 149 808 z "},"ń":{"ha":701,"x_min":110,"x_max":592,"o":"m 182 639 l 110 639 l 110 0 l 182 0 l 182 639 m 519 411 l 519 0 l 592 0 l 592 419 q 538 592 592 531 q 386 653 485 653 q 268 618 319 653 q 187 524 217 583 q 157 389 157 465 l 182 389 q 206 488 182 443 q 273 558 231 532 q 369 585 315 585 q 484 539 449 585 q 519 411 519 493 m 547 954 l 482 992 l 263 769 l 301 742 l 547 954 z "},"ņ":{"ha":701,"x_min":110,"x_max":592,"o":"m 182 639 l 110 639 l 110 0 l 182 0 l 182 639 m 519 411 l 519 0 l 592 0 l 592 419 q 538 592 592 531 q 386 653 485 653 q 266 618 319 653 q 181 524 213 583 q 149 389 149 465 l 182 389 q 206 488 182 443 q 273 558 231 532 q 369 585 315 585 q 484 539 449 585 q 519 411 519 493 m 363 -72 l 232 -429 l 283 -447 l 436 -100 l 363 -72 z "},"ň":{"ha":701,"x_min":110,"x_max":592,"o":"m 182 639 l 110 639 l 110 0 l 182 0 l 182 639 m 519 411 l 519 0 l 592 0 l 592 419 q 538 592 592 531 q 386 653 485 653 q 266 618 319 653 q 181 524 213 583 q 149 389 149 465 l 182 389 q 206 488 182 443 q 273 558 231 532 q 369 585 315 585 q 484 539 449 585 q 519 411 519 493 m 350 814 l 175 968 l 128 931 l 350 736 l 572 931 l 526 968 l 350 814 z "},"o":{"ha":764,"x_min":54,"x_max":710,"o":"m 54 319 q 97 148 54 224 q 215 29 140 72 q 382 -14 289 -14 q 549 29 475 -14 q 667 148 624 72 q 710 319 710 224 q 667 492 710 417 q 549 610 624 567 q 382 653 475 653 q 215 610 289 653 q 97 492 140 567 q 54 319 54 417 m 128 319 q 161 457 128 397 q 252 551 194 517 q 382 585 310 585 q 512 551 454 585 q 603 456 569 517 q 636 319 636 396 q 603 182 636 242 q 512 88 569 122 q 382 54 454 54 q 252 88 310 54 q 161 182 194 122 q 128 319 128 242 z "},"ò":{"ha":764,"x_min":54,"x_max":710,"o":"m 54 319 q 97 148 54 224 q 215 29 140 72 q 382 -14 289 -14 q 549 29 475 -14 q 667 148 624 72 q 710 319 710 224 q 667 492 710 417 q 549 610 624 567 q 382 653 475 653 q 215 610 289 653 q 97 492 140 567 q 54 319 54 417 m 128 319 q 161 457 128 397 q 252 551 194 517 q 382 585 310 585 q 512 551 454 585 q 603 456 569 517 q 636 319 636 396 q 603 182 636 242 q 512 88 569 122 q 382 54 454 54 q 252 88 310 54 q 161 182 194 122 q 128 319 128 242 m 174 965 l 419 753 l 460 781 l 240 1003 l 174 965 z "},"ó":{"ha":764,"x_min":54,"x_max":710,"o":"m 54 319 q 97 148 54 224 q 215 29 140 72 q 382 -14 289 -14 q 549 29 475 -14 q 667 148 624 72 q 710 319 710 224 q 667 492 710 417 q 549 610 624 567 q 382 653 475 653 q 215 610 289 653 q 97 492 140 567 q 54 319 54 417 m 128 319 q 161 457 128 397 q 252 551 194 517 q 382 585 310 585 q 512 551 454 585 q 603 456 569 517 q 636 319 636 396 q 603 182 636 242 q 512 88 569 122 q 382 54 454 54 q 252 88 310 54 q 161 182 194 122 q 128 319 128 242 m 590 965 l 524 1003 l 304 781 l 344 753 l 590 965 z "},"ô":{"ha":764,"x_min":54,"x_max":710,"o":"m 54 319 q 97 148 54 224 q 215 29 140 72 q 382 -14 289 -14 q 549 29 475 -14 q 667 148 624 72 q 710 319 710 224 q 667 492 710 417 q 549 610 624 567 q 382 653 475 653 q 215 610 289 653 q 97 492 140 567 q 54 319 54 417 m 128 319 q 161 457 128 397 q 252 551 194 517 q 382 585 310 585 q 512 551 454 585 q 603 456 569 517 q 636 319 636 396 q 603 182 636 242 q 512 88 569 122 q 382 54 454 54 q 252 88 310 54 q 161 182 194 122 q 128 319 128 242 m 382 918 l 558 764 l 604 801 l 382 996 l 160 801 l 206 764 l 382 918 z "},"õ":{"ha":764,"x_min":54,"x_max":710,"o":"m 54 319 q 98 148 54 224 q 215 29 142 72 q 382 -14 289 -14 q 549 29 475 -14 q 667 148 624 72 q 710 319 710 224 q 667 492 710 417 q 549 610 624 567 q 382 653 475 653 q 215 610 289 653 q 98 492 142 567 q 54 319 54 417 m 128 319 q 161 457 128 397 q 252 551 194 517 q 382 585 310 585 q 512 551 454 585 q 603 457 569 517 q 636 319 636 397 q 603 182 636 242 q 512 88 569 122 q 382 54 454 54 q 252 88 310 54 q 161 182 194 122 q 128 319 128 242 m 175 779 l 224 747 q 230 778 224 761 q 252 806 236 794 q 296 818 268 818 q 351 802 328 818 q 400 769 374 786 q 464 753 426 753 q 517 765 493 753 q 560 797 542 776 q 589 843 578 818 l 546 881 q 509 831 526 847 q 468 814 492 814 q 422 824 440 814 q 386 847 403 833 q 349 869 369 860 q 296 879 328 879 q 239 866 265 879 q 196 831 213 853 q 175 779 179 808 z "},"ö":{"ha":764,"x_min":54,"x_max":710,"o":"m 54 319 q 97 148 54 224 q 215 29 140 72 q 382 -14 289 -14 q 549 29 475 -14 q 667 148 624 72 q 710 319 710 224 q 667 492 710 417 q 549 610 624 567 q 382 653 475 653 q 215 610 289 653 q 97 492 140 567 q 54 319 54 417 m 128 319 q 161 457 128 397 q 252 551 194 517 q 382 585 310 585 q 512 551 454 585 q 603 456 569 517 q 636 319 636 396 q 603 182 636 242 q 512 88 569 122 q 382 54 454 54 q 252 88 310 54 q 161 182 194 122 q 128 319 128 242 m 469 824 q 485 788 469 803 q 521 772 500 772 q 558 788 543 772 q 572 824 572 803 q 558 861 572 846 q 521 876 543 876 q 485 861 500 876 q 469 824 469 846 m 192 824 q 207 788 192 803 q 243 772 222 772 q 280 788 265 772 q 294 824 294 803 q 280 861 294 846 q 243 876 265 876 q 207 861 222 876 q 192 824 192 846 z "},"ō":{"ha":764,"x_min":54,"x_max":710,"o":"m 54 319 q 97 148 54 224 q 215 29 140 72 q 382 -14 289 -14 q 549 29 475 -14 q 667 148 624 72 q 710 319 710 224 q 667 492 710 417 q 549 610 624 567 q 382 653 475 653 q 215 610 289 653 q 97 492 140 567 q 54 319 54 417 m 128 319 q 161 457 128 397 q 252 551 194 517 q 382 585 310 585 q 512 551 454 585 q 603 456 569 517 q 636 319 636 396 q 603 182 636 242 q 512 88 569 122 q 382 54 454 54 q 252 88 310 54 q 161 182 194 122 q 128 319 128 242 m 139 747 l 625 747 l 625 815 l 139 815 l 139 747 z "},"ŏ":{"ha":764,"x_min":54,"x_max":710,"o":"m 54 319 q 97 148 54 224 q 215 29 140 72 q 382 -14 289 -14 q 549 29 475 -14 q 667 148 624 72 q 710 319 710 224 q 667 492 710 417 q 549 610 624 567 q 382 653 475 653 q 215 610 289 653 q 97 492 140 567 q 54 319 54 417 m 128 319 q 161 457 128 397 q 252 551 194 517 q 382 585 310 585 q 512 551 454 585 q 603 456 569 517 q 636 319 636 396 q 603 182 636 242 q 512 88 569 122 q 382 54 454 54 q 252 88 310 54 q 161 182 194 122 q 128 319 128 242 m 163 931 q 187 838 163 883 q 260 765 211 793 q 382 736 310 736 q 504 765 456 736 q 577 838 553 793 q 601 931 601 883 l 536 931 q 521 870 536 901 q 471 817 506 839 q 382 796 436 796 q 293 817 328 796 q 243 870 258 839 q 228 931 228 901 l 163 931 z "},"ő":{"ha":764,"x_min":54,"x_max":710,"o":"m 288 736 l 460 1010 l 385 1029 l 240 753 l 288 736 m 479 736 l 653 1010 l 578 1029 l 433 753 l 479 736 m 54 319 q 97 148 54 224 q 215 29 140 72 q 382 -14 289 -14 q 549 29 475 -14 q 667 148 624 72 q 710 319 710 224 q 667 492 710 417 q 549 610 624 567 q 382 653 475 653 q 215 610 289 653 q 97 492 140 567 q 54 319 54 417 m 128 319 q 161 457 128 397 q 252 551 194 517 q 382 585 310 585 q 512 551 454 585 q 603 456 569 517 q 636 319 636 396 q 603 182 636 242 q 512 88 569 122 q 382 54 454 54 q 252 88 310 54 q 161 182 194 122 q 128 319 128 242 z "},"p":{"ha":775,"x_min":103,"x_max":721,"o":"m 175 -306 l 175 639 l 103 639 l 103 -306 l 175 -306 m 721 319 q 680 498 721 424 q 569 613 639 572 q 413 653 499 653 q 271 609 332 653 q 176 490 210 565 q 142 319 142 415 q 176 149 142 225 q 271 30 210 74 q 413 -14 332 -14 q 569 26 499 -14 q 680 142 639 67 q 721 319 721 217 m 649 319 q 615 176 649 236 q 526 85 582 117 q 403 54 471 54 q 292 89 344 54 q 207 183 239 124 q 175 319 175 243 q 207 456 175 396 q 292 550 239 515 q 403 585 344 585 q 526 553 471 585 q 615 463 582 522 q 649 319 649 403 z "},"q":{"ha":775,"x_min":54,"x_max":672,"o":"m 600 -306 l 672 -306 l 672 639 l 600 639 l 600 -306 m 54 319 q 96 142 54 217 q 208 26 138 67 q 363 -14 278 -14 q 506 30 446 -14 q 599 149 565 74 q 633 319 633 225 q 599 490 633 415 q 506 609 565 565 q 363 653 446 653 q 208 613 278 653 q 96 498 138 572 q 54 319 54 424 m 128 319 q 160 463 128 403 q 249 553 193 522 q 372 585 306 585 q 484 550 432 585 q 568 456 536 515 q 600 319 600 396 q 568 183 600 243 q 484 89 536 124 q 372 54 432 54 q 249 85 306 54 q 160 176 193 117 q 128 319 128 236 z "},"r":{"ha":447,"x_min":110,"x_max":435,"o":"m 182 639 l 110 639 l 110 0 l 182 0 l 182 639 m 394 554 l 435 614 q 385 644 413 635 q 328 653 358 653 q 237 618 278 653 q 172 524 196 583 q 149 389 149 465 l 182 389 q 194 488 182 443 q 235 558 207 532 q 311 585 264 585 q 355 577 336 585 q 394 554 374 569 z "},"ŕ":{"ha":447,"x_min":110,"x_max":456,"o":"m 182 639 l 110 639 l 110 0 l 182 0 l 182 639 m 394 554 l 435 614 q 385 644 413 635 q 328 653 358 653 q 237 618 278 653 q 172 524 196 583 q 149 389 149 465 l 182 389 q 194 488 182 443 q 235 558 207 532 q 311 585 264 585 q 355 577 336 585 q 394 554 374 569 m 456 949 l 389 986 l 169 764 l 208 736 l 456 949 z "},"ŗ":{"ha":447,"x_min":21,"x_max":435,"o":"m 182 639 l 110 639 l 110 0 l 182 0 l 182 639 m 394 554 l 435 614 q 385 644 413 635 q 328 653 358 653 q 237 618 278 653 q 172 524 196 583 q 149 389 149 465 l 182 389 q 194 488 182 443 q 235 558 207 532 q 311 585 264 585 q 355 577 336 585 q 394 554 374 569 m 153 -83 l 21 -440 l 74 -458 l 226 -111 l 153 -83 z "},"ř":{"ha":447,"x_min":50,"x_max":494,"o":"m 182 639 l 110 639 l 110 0 l 182 0 l 182 639 m 394 554 l 435 614 q 385 644 413 635 q 328 653 358 653 q 237 618 278 653 q 172 524 196 583 q 149 389 149 465 l 182 389 q 194 488 182 443 q 235 558 207 532 q 311 585 264 585 q 355 577 336 585 q 394 554 374 569 m 272 814 l 96 968 l 50 931 l 272 736 l 494 931 l 447 968 l 272 814 z "},"ȓ":{"ha":447,"x_min":53,"x_max":492,"o":"m 182 639 l 110 639 l 110 0 l 182 0 l 182 639 m 394 554 l 435 614 q 385 644 413 635 q 328 653 358 653 q 237 618 278 653 q 172 524 196 583 q 149 389 149 465 l 182 389 q 194 488 182 443 q 235 558 207 532 q 311 585 264 585 q 355 577 336 585 q 394 554 374 569 m 53 747 q 77 840 53 796 q 151 913 101 885 q 272 942 200 942 q 394 913 346 942 q 467 840 443 885 q 492 747 492 796 l 428 747 q 412 808 428 776 q 362 860 396 839 q 272 882 328 882 q 184 860 218 882 q 134 808 150 839 q 118 747 118 776 l 53 747 z "},"s":{"ha":560,"x_min":50,"x_max":496,"o":"m 108 182 l 50 149 q 94 71 64 108 q 173 10 124 33 q 289 -14 222 -14 q 438 38 381 -14 q 496 174 496 90 q 469 263 496 228 q 398 321 442 297 q 303 364 354 344 q 229 393 264 378 q 174 433 194 408 q 153 494 153 457 q 185 564 153 540 q 265 588 218 588 q 369 557 329 588 q 432 485 410 526 l 492 521 q 444 586 475 557 q 371 633 414 615 q 274 651 328 651 q 180 634 224 651 q 109 581 136 617 q 82 490 82 544 q 109 398 82 433 q 178 342 136 363 q 264 304 219 321 q 342 273 306 290 q 400 230 378 256 q 422 165 422 204 q 387 83 422 113 q 293 53 351 53 q 206 71 243 53 q 146 118 169 89 q 108 182 122 147 z "},"ś":{"ha":560,"x_min":43,"x_max":515,"o":"m 104 215 l 43 182 q 84 85 53 131 q 166 13 115 40 q 281 -14 217 -14 q 435 33 375 -14 q 496 174 496 79 q 470 256 496 222 q 404 315 444 290 q 318 356 364 339 q 240 385 278 369 q 178 425 203 401 q 154 486 154 449 q 191 560 154 536 q 279 583 228 583 q 344 569 315 583 q 397 534 374 556 q 432 485 419 513 l 492 521 q 449 586 479 557 q 375 633 418 615 q 279 651 332 651 q 183 633 228 651 q 110 578 139 614 q 82 490 82 542 q 108 400 82 435 q 176 345 135 365 q 264 307 218 325 q 341 276 306 293 q 399 233 376 258 q 421 168 421 207 q 384 83 421 113 q 285 54 347 54 q 197 77 235 54 q 136 137 160 100 q 104 215 113 174 m 515 949 l 447 986 l 228 764 l 269 736 l 515 949 z "},"ŝ":{"ha":560,"x_min":43,"x_max":501,"o":"m 104 215 l 43 182 q 84 85 53 131 q 166 13 115 40 q 281 -14 217 -14 q 435 33 375 -14 q 496 174 496 79 q 470 256 496 222 q 404 315 444 290 q 318 356 364 339 q 240 385 278 369 q 178 425 203 401 q 154 486 154 449 q 191 560 154 536 q 279 583 228 583 q 344 569 315 583 q 397 534 374 556 q 432 485 419 513 l 492 521 q 449 586 479 557 q 375 633 418 615 q 279 651 332 651 q 183 633 228 651 q 110 578 139 614 q 82 490 82 542 q 108 400 82 435 q 176 345 135 365 q 264 307 218 325 q 341 276 306 293 q 399 233 376 258 q 421 168 421 207 q 384 83 421 113 q 285 54 347 54 q 197 77 235 54 q 136 137 160 100 q 104 215 113 174 m 279 890 l 456 736 l 501 774 l 279 968 l 57 774 l 101 736 l 279 890 z "},"ş":{"ha":560,"x_min":43,"x_max":496,"o":"m 101 218 l 43 183 q 94 87 61 132 q 176 15 128 42 q 289 -12 225 -12 q 437 33 378 -12 q 496 174 496 79 q 470 262 496 226 q 404 320 444 297 q 318 360 364 343 q 240 388 278 374 q 177 426 201 403 q 153 492 153 450 q 190 563 153 540 q 279 586 228 586 q 373 556 333 586 q 432 486 413 525 l 492 522 q 413 614 467 575 q 279 653 358 653 q 183 635 228 653 q 110 581 139 617 q 82 489 82 544 q 108 395 82 429 q 176 342 135 361 q 264 306 218 322 q 341 274 306 292 q 399 231 376 256 q 421 167 421 206 q 383 84 421 113 q 289 56 346 56 q 208 78 244 56 q 145 138 172 100 q 101 218 118 175 m 293 49 l 193 -140 q 241 -118 215 -125 q 285 -111 267 -111 q 340 -127 318 -111 q 361 -176 361 -143 q 334 -236 361 -215 q 265 -257 307 -257 q 217 -247 236 -257 q 174 -218 197 -237 l 143 -254 q 199 -295 172 -283 q 265 -307 226 -307 q 338 -292 304 -307 q 394 -247 372 -276 q 415 -176 415 -218 q 399 -119 415 -142 q 360 -85 383 -97 q 313 -74 336 -74 q 289 -77 297 -74 q 267 -87 281 -81 l 351 49 l 293 49 z "},"š":{"ha":560,"x_min":43,"x_max":501,"o":"m 104 215 l 43 182 q 84 85 53 131 q 166 13 115 40 q 281 -14 217 -14 q 435 33 375 -14 q 496 174 496 79 q 470 256 496 222 q 404 315 444 290 q 318 356 364 339 q 240 385 278 369 q 178 425 203 401 q 154 486 154 449 q 191 560 154 536 q 279 583 228 583 q 344 569 315 583 q 397 534 374 556 q 432 485 419 513 l 492 521 q 449 586 479 557 q 375 633 418 615 q 279 651 332 651 q 183 633 228 651 q 110 578 139 614 q 82 490 82 542 q 108 400 82 435 q 176 345 135 365 q 264 307 218 325 q 341 276 306 293 q 399 233 376 258 q 421 168 421 207 q 384 83 421 113 q 285 54 347 54 q 197 77 235 54 q 136 137 160 100 q 104 215 113 174 m 279 814 l 103 968 l 57 931 l 279 736 l 501 931 l 454 968 l 279 814 z "},"ș":{"ha":560,"x_min":43,"x_max":496,"o":"m 104 215 l 43 182 q 84 85 53 131 q 166 13 115 40 q 281 -14 217 -14 q 435 33 375 -14 q 496 174 496 79 q 470 256 496 222 q 404 315 444 290 q 318 356 364 339 q 240 385 278 369 q 178 425 203 401 q 154 486 154 449 q 191 560 154 536 q 279 583 228 583 q 344 569 315 583 q 397 534 374 556 q 432 485 419 513 l 492 521 q 449 586 479 557 q 375 633 418 615 q 279 651 332 651 q 183 633 228 651 q 110 578 139 614 q 82 490 82 542 q 108 400 82 435 q 176 345 135 365 q 264 307 218 325 q 341 276 306 293 q 399 233 376 258 q 421 168 421 207 q 384 83 421 113 q 285 54 347 54 q 197 77 235 54 q 136 137 160 100 q 104 215 113 174 m 310 -97 l 179 -454 l 231 -472 l 383 -125 l 310 -97 z "},"t":{"ha":306,"x_min":13,"x_max":293,"o":"m 13 639 l 13 571 l 293 571 l 293 639 l 13 639 m 117 861 l 117 0 l 189 0 l 189 861 l 117 861 z "},"ţ":{"ha":306,"x_min":-26,"x_max":293,"o":"m 125 11 l 24 -178 q 72 -156 46 -162 q 117 -149 99 -149 q 172 -165 150 -149 q 193 -214 193 -181 q 166 -274 193 -253 q 97 -294 139 -294 q 48 -285 68 -294 q 6 -256 28 -275 l -26 -292 q 31 -333 3 -321 q 97 -344 58 -344 q 169 -329 136 -344 q 224 -285 203 -314 q 246 -214 246 -256 q 230 -157 246 -179 q 191 -123 214 -135 q 144 -111 168 -111 q 120 -115 129 -111 q 99 -125 111 -118 l 182 11 l 125 11 m 13 639 l 13 571 l 293 571 l 293 639 l 13 639 m 117 861 l 117 0 l 189 0 l 189 861 l 117 861 z "},"ť":{"ha":447,"x_min":13,"x_max":471,"o":"m 13 639 l 13 571 l 293 571 l 293 639 l 13 639 m 117 861 l 117 0 l 189 0 l 189 861 l 117 861 m 399 1106 l 267 749 l 318 731 l 471 1078 l 399 1106 z "},"ț":{"ha":306,"x_min":13,"x_max":293,"o":"m 13 639 l 13 571 l 293 571 l 293 639 l 13 639 m 117 861 l 117 0 l 189 0 l 189 861 l 117 861 m 182 -83 l 50 -440 l 103 -458 l 256 -111 l 182 -83 z "},"u":{"ha":701,"x_min":110,"x_max":592,"o":"m 182 233 l 182 639 l 110 639 l 110 225 q 163 51 110 115 q 315 -14 215 -14 q 440 25 388 -14 q 519 133 493 64 l 519 0 l 592 0 l 592 639 l 519 639 l 519 250 q 495 151 519 196 q 428 81 471 107 q 332 54 386 54 q 218 102 254 54 q 182 233 182 150 z "},"ù":{"ha":701,"x_min":110,"x_max":592,"o":"m 519 0 l 592 0 l 592 639 l 519 639 l 519 0 m 182 233 l 182 639 l 110 639 l 110 225 q 163 48 110 110 q 315 -14 217 -14 q 435 21 382 -14 q 521 115 489 56 q 553 250 553 174 l 519 250 q 495 151 519 196 q 428 81 471 107 q 332 54 386 54 q 218 101 254 54 q 182 233 182 149 m 164 971 l 410 758 l 451 786 l 232 1008 l 164 971 z "},"ú":{"ha":701,"x_min":110,"x_max":592,"o":"m 519 0 l 592 0 l 592 639 l 519 639 l 519 0 m 182 233 l 182 639 l 110 639 l 110 225 q 163 48 110 110 q 315 -14 217 -14 q 435 21 382 -14 q 521 115 489 56 q 553 250 553 174 l 519 250 q 495 151 519 196 q 428 81 471 107 q 332 54 386 54 q 218 101 254 54 q 182 233 182 149 m 536 971 l 471 1008 l 251 786 l 290 758 l 536 971 z "},"û":{"ha":701,"x_min":110,"x_max":592,"o":"m 519 0 l 592 0 l 592 639 l 519 639 l 519 0 m 182 233 l 182 639 l 110 639 l 110 225 q 163 48 110 110 q 315 -14 217 -14 q 435 21 382 -14 q 521 115 489 56 q 553 250 553 174 l 519 250 q 495 151 519 196 q 428 81 471 107 q 332 54 386 54 q 218 101 254 54 q 182 233 182 149 m 350 913 l 526 758 l 572 796 l 350 990 l 128 796 l 174 758 l 350 913 z "},"ü":{"ha":701,"x_min":110,"x_max":592,"o":"m 519 0 l 592 0 l 592 639 l 519 639 l 519 0 m 182 233 l 182 639 l 110 639 l 110 225 q 163 48 110 110 q 315 -14 217 -14 q 435 21 382 -14 q 521 115 489 56 q 553 250 553 174 l 519 250 q 495 151 519 196 q 428 81 471 107 q 332 54 386 54 q 218 101 254 54 q 182 233 182 149 m 426 815 q 442 779 426 794 q 478 764 458 764 q 515 779 500 764 q 531 815 531 794 q 515 853 531 838 q 478 868 500 868 q 442 853 458 868 q 426 815 426 838 m 171 815 q 187 779 171 794 q 222 764 203 764 q 260 779 244 764 q 275 815 275 794 q 260 853 275 838 q 222 868 244 868 q 187 853 203 868 q 171 815 171 838 z "},"ũ":{"ha":701,"x_min":110,"x_max":592,"o":"m 519 0 l 592 0 l 592 639 l 519 639 l 519 0 m 182 233 l 182 639 l 110 639 l 110 225 q 163 48 110 110 q 315 -14 217 -14 q 433 21 382 -14 q 515 115 485 56 q 544 250 544 174 l 519 250 q 495 151 519 196 q 428 81 471 107 q 332 54 386 54 q 218 101 254 54 q 182 233 182 149 m 144 768 l 193 736 q 199 767 193 750 q 222 795 206 783 q 265 807 238 807 q 320 791 297 807 q 369 758 343 775 q 433 742 396 742 q 487 753 463 742 q 529 786 511 765 q 558 832 547 807 l 515 869 q 478 819 496 836 q 438 803 461 803 q 391 813 410 803 q 356 835 372 822 q 318 858 339 849 q 265 868 297 868 q 208 855 235 868 q 165 819 182 842 q 144 768 149 797 z "},"ū":{"ha":701,"x_min":108,"x_max":594,"o":"m 519 0 l 592 0 l 592 639 l 519 639 l 519 0 m 182 233 l 182 639 l 110 639 l 110 225 q 163 48 110 110 q 315 -14 217 -14 q 433 21 382 -14 q 515 115 485 56 q 544 250 544 174 l 519 250 q 495 151 519 196 q 428 81 471 107 q 332 54 386 54 q 218 101 254 54 q 182 233 182 149 m 108 736 l 594 736 l 594 804 l 108 804 l 108 736 z "},"ŭ":{"ha":701,"x_min":110,"x_max":592,"o":"m 519 0 l 592 0 l 592 639 l 519 639 l 519 0 m 182 233 l 182 639 l 110 639 l 110 225 q 163 48 110 110 q 315 -14 217 -14 q 433 21 382 -14 q 515 115 485 56 q 544 250 544 174 l 519 250 q 495 151 519 196 q 428 81 471 107 q 332 54 386 54 q 218 101 254 54 q 182 233 182 149 m 132 931 q 156 838 132 883 q 230 765 181 793 q 351 736 279 736 q 474 765 425 736 q 547 838 522 793 q 571 931 571 883 l 506 931 q 490 870 506 901 q 440 817 475 839 q 351 796 406 796 q 263 817 297 796 q 213 870 228 839 q 197 931 197 901 l 132 931 z "},"ů":{"ha":701,"x_min":110,"x_max":592,"o":"m 519 0 l 592 0 l 592 639 l 519 639 l 519 0 m 182 233 l 182 639 l 110 639 l 110 225 q 163 48 110 110 q 315 -14 217 -14 q 433 21 382 -14 q 515 115 485 56 q 544 250 544 174 l 519 250 q 495 151 519 196 q 428 81 471 107 q 332 54 386 54 q 218 101 254 54 q 182 233 182 149 m 210 875 q 253 774 210 813 q 351 736 297 736 q 449 774 406 736 q 493 875 493 813 q 449 976 493 938 q 351 1014 406 1014 q 253 976 297 1014 q 210 875 210 938 m 258 875 q 287 944 258 918 q 351 969 315 969 q 416 944 388 969 q 444 875 444 918 q 416 806 444 832 q 351 781 388 781 q 287 806 315 781 q 258 875 258 832 z "},"ű":{"ha":701,"x_min":110,"x_max":624,"o":"m 257 736 l 429 1010 l 354 1029 l 210 753 l 257 736 m 449 736 l 622 1010 l 547 1029 l 403 753 l 449 736 m 182 233 l 182 639 l 110 639 l 110 225 q 163 51 110 115 q 315 -14 215 -14 q 440 25 388 -14 q 519 133 493 64 l 519 0 l 592 0 l 592 639 l 519 639 l 519 250 q 495 151 519 196 q 428 81 471 107 q 332 54 386 54 q 218 102 254 54 q 182 233 182 150 z "},"ų":{"ha":701,"x_min":110,"x_max":646,"o":"m 614 -204 q 578 -231 600 -219 q 522 -242 556 -242 q 457 -222 483 -242 q 431 -161 431 -203 q 454 -99 431 -129 q 515 -44 478 -69 q 592 0 551 -18 l 553 26 q 460 -29 504 1 q 387 -97 415 -60 q 358 -178 358 -133 q 376 -244 358 -215 q 430 -290 394 -274 q 518 -306 465 -306 q 597 -288 563 -306 q 646 -250 631 -271 l 614 -204 m 182 233 l 182 639 l 110 639 l 110 225 q 163 51 110 115 q 315 -14 215 -14 q 440 25 388 -14 q 519 133 493 64 l 519 0 l 592 0 l 592 639 l 519 639 l 519 250 q 495 151 519 196 q 428 81 471 107 q 332 54 386 54 q 218 102 254 54 q 182 233 182 150 z "},"v":{"ha":600,"x_min":6,"x_max":594,"o":"m 6 639 l 300 -37 l 594 639 l 513 639 l 300 118 l 88 639 l 6 639 z "},"w":{"ha":911,"x_min":13,"x_max":899,"o":"m 13 639 l 261 -37 l 450 494 l 650 -37 l 899 639 l 818 639 l 646 143 l 449 676 l 265 144 l 93 639 l 13 639 z "},"ŵ":{"ha":911,"x_min":13,"x_max":899,"o":"m 13 639 l 261 -37 l 450 494 l 650 -37 l 899 639 l 818 639 l 646 143 l 449 676 l 265 144 l 93 639 l 13 639 m 449 914 l 625 760 l 671 797 l 449 992 l 226 797 l 272 760 l 449 914 z "},"ẁ":{"ha":911,"x_min":13,"x_max":899,"o":"m 447 760 l 488 788 l 268 1010 l 201 972 l 447 760 m 13 639 l 261 -37 l 450 494 l 650 -37 l 899 639 l 818 639 l 646 143 l 449 676 l 265 144 l 93 639 l 13 639 z "},"ẃ":{"ha":911,"x_min":13,"x_max":899,"o":"m 450 760 l 696 972 l 629 1010 l 410 788 l 450 760 m 13 639 l 261 -37 l 450 494 l 650 -37 l 899 639 l 818 639 l 646 143 l 449 676 l 265 144 l 93 639 l 13 639 z "},"ẅ":{"ha":911,"x_min":13,"x_max":899,"o":"m 536 813 q 552 775 536 790 q 589 760 568 760 q 625 775 610 760 q 640 813 640 790 q 625 849 640 833 q 589 864 610 864 q 552 849 568 864 q 536 813 536 833 m 258 813 q 274 775 258 790 q 311 760 290 760 q 347 775 332 760 q 363 813 363 790 q 347 849 363 833 q 311 864 332 864 q 274 849 290 864 q 258 813 258 833 m 13 639 l 261 -37 l 450 494 l 650 -37 l 899 639 l 818 639 l 646 143 l 449 676 l 265 144 l 93 639 l 13 639 z "},"ẇ":{"ha":911,"x_min":13,"x_max":899,"o":"m 397 811 q 413 775 397 790 q 450 760 429 760 q 486 775 471 760 q 501 811 501 790 q 486 849 501 833 q 450 864 471 864 q 413 849 429 864 q 397 811 397 833 m 13 639 l 261 -37 l 450 494 l 650 -37 l 899 639 l 818 639 l 646 143 l 449 676 l 265 144 l 93 639 l 13 639 z "},"ẉ":{"ha":911,"x_min":13,"x_max":899,"o":"m 404 -174 q 420 -210 404 -194 q 457 -225 436 -225 q 493 -210 478 -225 q 508 -174 508 -194 q 493 -136 508 -151 q 457 -121 478 -121 q 420 -136 436 -121 q 404 -174 404 -151 m 13 639 l 261 -37 l 450 494 l 650 -37 l 899 639 l 818 639 l 646 143 l 449 676 l 265 144 l 93 639 l 13 639 z "},"x":{"ha":561,"x_min":6,"x_max":556,"o":"m 458 639 l 281 386 l 103 639 l 19 639 l 240 329 l 6 0 l 89 0 l 281 272 l 472 0 l 556 0 l 321 329 l 542 639 l 458 639 z "},"y":{"ha":603,"x_min":6,"x_max":597,"o":"m 597 639 l 517 639 l 290 97 l 324 94 l 92 639 l 6 639 l 264 65 l 100 -306 l 181 -306 l 597 639 z "},"ý":{"ha":603,"x_min":6,"x_max":597,"o":"m 597 639 l 517 639 l 290 97 l 324 94 l 92 639 l 6 639 l 264 65 l 100 -306 l 181 -306 l 597 639 m 496 965 l 429 1003 l 210 781 l 250 753 l 496 965 z "},"ÿ":{"ha":603,"x_min":6,"x_max":597,"o":"m 597 639 l 517 639 l 290 97 l 324 94 l 92 639 l 6 639 l 264 65 l 100 -306 l 181 -306 l 597 639 m 378 799 q 393 763 378 778 q 429 747 408 747 q 467 763 451 747 q 482 799 482 778 q 467 836 482 821 q 429 851 451 851 q 393 836 408 851 q 378 799 378 821 m 122 799 q 138 763 122 778 q 174 747 153 747 q 211 763 196 747 q 226 799 226 778 q 211 836 226 821 q 174 851 196 851 q 138 836 153 851 q 122 799 122 821 z "},"ŷ":{"ha":603,"x_min":6,"x_max":597,"o":"m 597 639 l 517 639 l 290 97 l 324 94 l 92 639 l 6 639 l 264 65 l 100 -306 l 181 -306 l 597 639 m 301 890 l 478 736 l 524 774 l 301 968 l 79 774 l 125 736 l 301 890 z "},"ỳ":{"ha":603,"x_min":6,"x_max":597,"o":"m 300 736 l 340 764 l 121 986 l 54 949 l 300 736 m 597 639 l 517 639 l 290 97 l 324 94 l 92 639 l 6 639 l 264 65 l 100 -306 l 181 -306 l 597 639 z "},"z":{"ha":622,"x_min":24,"x_max":593,"o":"m 461 571 l 24 0 l 582 0 l 582 68 l 156 68 l 593 639 l 60 639 l 60 571 l 461 571 z "},"ź":{"ha":622,"x_min":24,"x_max":593,"o":"m 461 571 l 24 0 l 582 0 l 582 68 l 156 68 l 593 639 l 60 639 l 60 571 l 461 571 m 540 965 l 474 1003 l 254 781 l 294 753 l 540 965 z "},"ż":{"ha":622,"x_min":24,"x_max":593,"o":"m 461 571 l 24 0 l 582 0 l 582 68 l 156 68 l 593 639 l 60 639 l 60 571 l 461 571 m 275 829 q 290 793 275 808 q 326 778 306 778 q 363 793 349 778 q 378 829 378 808 q 363 867 378 851 q 326 882 349 882 q 290 867 306 882 q 275 829 275 851 z "},"ž":{"ha":622,"x_min":24,"x_max":593,"o":"m 326 814 l 150 968 l 104 931 l 326 736 l 549 931 l 503 968 l 326 814 m 461 571 l 24 0 l 582 0 l 582 68 l 156 68 l 593 639 l 60 639 l 60 571 l 461 571 z "},"ß":{"ha":765,"x_min":104,"x_max":717,"o":"m 451 -15 q 558 6 510 -15 q 641 65 606 26 q 697 154 676 103 q 717 264 717 206 q 699 360 717 322 q 651 424 681 399 q 590 466 622 449 q 529 497 558 483 q 482 528 500 511 q 464 571 464 546 q 481 626 464 601 q 522 676 497 651 q 570 729 546 700 q 611 797 594 758 q 628 889 628 835 q 597 1006 628 958 q 510 1078 565 1054 q 388 1103 456 1103 q 239 1067 303 1103 q 140 968 175 1031 q 104 826 104 906 l 104 -1 l 178 -1 l 176 813 q 202 933 176 883 q 273 1010 228 983 q 376 1036 318 1036 q 463 1019 424 1036 q 528 967 503 1001 q 553 883 553 933 q 535 804 553 839 q 493 741 518 769 q 443 687 468 713 q 401 633 418 661 q 385 571 385 604 q 403 510 385 535 q 451 469 422 486 q 513 433 481 451 q 575 393 546 415 q 623 338 604 371 q 642 254 642 304 q 618 152 642 197 q 553 80 594 107 q 457 53 511 53 q 394 62 426 53 q 333 88 361 71 q 282 125 304 104 l 238 72 q 296 26 261 46 q 370 -4 331 7 q 451 -15 410 -15 z "},"æ":{"ha":1146,"x_min":47,"x_max":1096,"o":"m 281 -14 q 449 41 383 -14 q 528 190 515 96 l 517 190 q 614 37 549 88 q 782 -14 679 -14 q 957 28 879 -14 q 1085 149 1035 69 l 1026 186 q 925 88 986 121 q 790 54 864 54 q 666 86 718 54 q 586 178 614 118 q 558 318 558 238 l 538 301 l 1092 301 q 1095 317 1094 310 q 1096 336 1096 325 q 1058 499 1096 428 q 956 612 1021 571 q 810 653 892 653 q 689 628 746 653 q 590 558 632 603 q 528 453 549 514 l 539 453 q 485 603 536 553 q 339 653 433 653 q 214 631 275 653 q 103 568 153 610 l 139 513 q 201 554 168 538 q 269 580 233 571 q 338 589 304 589 q 447 547 410 589 q 485 428 485 506 l 485 321 l 524 322 q 420 378 469 361 q 314 394 371 394 q 174 367 235 394 q 81 292 114 340 q 47 178 47 243 q 111 40 47 93 q 281 -14 175 -14 m 281 51 q 163 87 206 51 q 121 186 121 122 q 173 297 121 257 q 317 338 225 338 q 415 324 369 338 q 494 286 460 311 l 485 313 l 492 196 l 494 269 q 431 107 483 163 q 281 51 378 51 m 558 331 q 589 464 558 406 q 674 556 619 522 q 797 589 728 589 q 912 560 863 589 q 990 479 961 531 q 1018 361 1018 428 q 1018 348 1018 353 q 1015 339 1018 343 l 1039 364 l 538 364 l 558 331 z "},"ð":{"ha":778,"x_min":69,"x_max":708,"o":"m 389 -14 q 556 28 483 -14 q 668 143 628 69 q 708 314 708 217 q 696 415 708 364 q 654 522 683 465 q 578 646 625 578 q 461 799 531 714 q 299 993 392 885 l 254 943 q 367 817 319 872 q 451 713 414 761 q 519 618 489 665 q 578 518 550 571 l 617 519 q 357 624 496 624 q 210 583 275 624 q 108 472 146 542 q 69 314 69 403 q 110 143 69 217 q 223 28 150 69 q 389 -14 296 -14 m 389 56 q 261 89 317 56 q 174 181 206 122 q 143 314 143 239 q 175 442 143 385 q 261 533 207 499 q 383 567 315 567 q 513 533 456 567 q 602 444 569 500 q 635 314 635 388 q 603 181 635 239 q 517 89 572 122 q 389 56 461 56 m 253 708 l 624 858 l 606 903 l 235 753 l 253 708 z "},"ø":{"ha":758,"x_min":54,"x_max":710,"o":"m 54 319 q 97 148 54 224 q 215 29 140 72 q 382 -14 289 -14 q 549 29 475 -14 q 667 148 624 72 q 710 319 710 224 q 667 492 710 417 q 549 610 624 567 q 382 653 475 653 q 215 610 289 653 q 97 492 140 567 q 54 319 54 417 m 128 319 q 161 457 128 397 q 252 551 194 517 q 382 585 310 585 q 512 551 454 585 q 603 456 569 517 q 636 319 636 396 q 603 182 636 242 q 512 88 569 122 q 382 54 454 54 q 252 88 310 54 q 161 182 194 122 q 128 319 128 242 m 621 690 l 79 -37 l 122 -57 l 664 671 l 621 690 z "},"þ":{"ha":775,"x_min":103,"x_max":721,"o":"m 175 -306 l 175 1083 l 103 1083 l 103 -306 l 175 -306 m 721 319 q 680 498 721 424 q 569 613 639 572 q 413 653 499 653 q 271 609 332 653 q 176 490 210 565 q 142 319 142 415 q 176 149 142 225 q 271 30 210 74 q 413 -14 332 -14 q 569 26 499 -14 q 680 142 639 67 q 721 319 721 217 m 649 319 q 615 176 649 236 q 526 85 582 117 q 403 54 471 54 q 292 89 344 54 q 207 183 239 124 q 175 319 175 243 q 207 456 175 396 q 292 550 239 515 q 403 585 344 585 q 526 553 471 585 q 615 463 582 522 q 649 319 649 403 z "},"đ":{"ha":775,"x_min":54,"x_max":826,"o":"m 410 856 l 826 856 l 826 924 l 410 924 l 410 856 m 600 1083 l 600 0 l 672 0 l 672 1083 l 600 1083 m 54 319 q 96 142 54 217 q 208 26 138 67 q 363 -14 278 -14 q 503 28 443 -14 q 599 147 564 71 q 633 319 633 222 q 599 493 633 418 q 503 610 564 568 q 363 653 443 653 q 208 613 278 653 q 96 498 138 572 q 54 319 54 424 m 128 319 q 160 463 128 403 q 249 553 193 522 q 372 585 306 585 q 459 564 418 585 q 532 507 500 543 q 582 423 564 471 q 600 319 600 375 q 582 216 600 264 q 532 132 564 168 q 459 75 500 96 q 372 54 418 54 q 249 85 306 54 q 160 176 193 117 q 128 319 128 236 z "},"ħ":{"ha":729,"x_min":7,"x_max":592,"o":"m 182 1083 l 110 1083 l 110 0 l 182 0 l 182 1083 m 519 411 l 519 0 l 592 0 l 592 419 q 568 547 592 494 q 499 626 544 599 q 386 653 453 653 q 268 618 319 653 q 187 524 217 583 q 157 389 157 465 l 182 389 q 206 488 182 443 q 273 558 231 532 q 369 585 315 585 q 484 539 449 585 q 519 411 519 493 m 7 904 l 440 904 l 440 972 l 7 972 l 7 904 z "},"ı":{"ha":322,"x_min":125,"x_max":197,"o":"m 125 639 l 125 0 l 197 0 l 197 639 l 125 639 z "},"ĳ":{"ha":708,"x_min":110,"x_max":560,"o":"m 457 928 q 472 892 457 907 q 508 876 488 876 q 545 892 531 876 q 560 928 560 907 q 545 965 560 950 q 508 979 531 979 q 472 965 488 979 q 457 928 457 950 m 293 -186 l 253 -246 q 281 -273 264 -260 q 321 -296 297 -286 q 374 -306 344 -306 q 469 -280 432 -306 q 526 -207 507 -254 q 544 -96 544 -160 l 544 639 l 472 639 l 472 -87 q 463 -163 472 -131 q 433 -215 454 -196 q 378 -233 413 -233 q 331 -222 353 -233 q 293 -186 310 -210 m 110 928 q 125 892 110 907 q 161 876 140 876 q 198 892 183 876 q 213 928 213 907 q 198 965 213 950 q 161 979 183 979 q 125 965 140 979 q 110 928 110 950 m 125 639 l 125 0 l 197 0 l 197 639 l 125 639 z "},"ĸ":{"ha":574,"x_min":103,"x_max":568,"o":"m 103 639 l 103 0 l 175 0 l 175 639 l 103 639 m 449 639 l 149 375 l 476 0 l 568 0 l 240 375 l 542 639 l 449 639 z "},"ŀ":{"ha":514,"x_min":110,"x_max":411,"o":"m 110 1083 l 110 0 l 182 0 l 182 1083 l 110 1083 m 307 565 q 323 529 307 544 q 360 514 339 514 q 396 529 381 514 q 411 565 411 544 q 396 603 411 588 q 360 618 381 618 q 323 603 339 618 q 307 565 307 588 z "},"ł":{"ha":281,"x_min":-21,"x_max":308,"o":"m 0 499 l 308 707 l 288 757 l -21 549 l 0 499 m 104 1083 l 104 0 l 176 0 l 176 1083 l 104 1083 z "},"ŉ":{"ha":871,"x_min":103,"x_max":733,"o":"m 324 639 l 251 639 l 251 0 l 324 0 l 324 639 m 661 411 l 661 0 l 733 0 l 733 419 q 680 592 733 531 q 528 653 626 653 q 408 618 463 653 q 322 524 354 583 q 290 389 290 465 l 324 389 q 348 488 324 443 q 415 558 372 532 q 511 585 457 585 q 626 539 590 585 q 661 411 661 493 m 204 972 l 103 653 l 154 653 l 290 972 l 204 972 z "},"ŋ":{"ha":701,"x_min":110,"x_max":592,"o":"m 421 -306 q 548 -252 504 -306 q 592 -96 592 -199 l 592 419 q 538 592 592 532 q 386 653 485 653 q 263 613 318 653 q 182 506 208 574 l 182 639 l 110 639 l 110 0 l 182 0 l 182 389 q 207 489 182 444 q 274 559 232 533 q 369 585 317 585 q 482 541 444 585 q 519 411 519 497 l 519 -87 q 495 -196 519 -158 q 425 -233 471 -233 q 340 -186 374 -233 l 300 -246 q 353 -290 322 -274 q 421 -306 385 -306 z "},"œ":{"ha":1264,"x_min":54,"x_max":1210,"o":"m 1133 347 l 1133 319 l 1208 301 q 1210 319 1210 310 q 1210 336 1210 328 q 1169 503 1210 432 q 1062 613 1128 574 q 919 653 996 653 q 776 619 840 653 q 670 526 711 586 q 615 388 629 467 q 611 354 613 371 q 610 319 610 338 q 648 151 610 226 q 754 31 686 75 q 911 -14 822 -14 q 1033 6 981 -14 q 1126 63 1086 26 q 1199 149 1167 100 l 1140 186 q 1049 91 1106 128 q 911 54 992 54 q 786 86 840 54 q 702 178 732 118 q 672 321 672 239 l 674 346 q 704 469 674 414 q 788 556 735 524 q 911 589 842 589 q 1031 556 982 589 q 1107 467 1081 522 q 1133 347 1133 413 m 654 301 l 1208 301 l 1192 364 l 654 364 l 654 301 m 54 319 q 96 142 54 217 q 207 26 138 67 q 360 -14 276 -14 q 506 26 442 -14 q 606 142 569 67 q 643 319 643 217 q 606 498 643 424 q 506 613 569 572 q 360 653 442 653 q 207 613 276 653 q 96 498 138 572 q 54 319 54 424 m 128 319 q 160 463 128 403 q 248 553 193 522 q 369 585 303 585 q 478 553 426 585 q 560 461 529 521 q 592 319 592 401 q 560 178 592 238 q 478 86 529 118 q 369 54 426 54 q 248 85 303 54 q 160 176 193 117 q 128 319 128 236 z "},"ŧ":{"ha":333,"x_min":13,"x_max":306,"o":"m 28 321 l 306 321 l 306 389 l 28 389 l 28 321 m 13 639 l 13 571 l 293 571 l 293 639 l 13 639 m 117 861 l 117 0 l 189 0 l 189 861 l 117 861 z "},"ȷ":{"ha":308,"x_min":-108,"x_max":183,"o":"m -68 -186 l -108 -246 q -81 -273 -97 -260 q -40 -296 -64 -286 q 13 -306 -17 -306 q 109 -280 71 -306 q 165 -207 147 -254 q 183 -96 183 -160 l 183 639 l 111 639 l 111 -87 q 102 -163 111 -131 q 72 -215 93 -196 q 17 -233 51 -233 q -30 -222 -8 -233 q -68 -186 -51 -210 z "},"μ":{"ha":701,"x_min":110,"x_max":592,"o":"m 182 639 l 110 639 l 110 -444 l 182 -444 l 182 47 q 235 2 203 18 q 315 -14 268 -14 q 438 24 383 -14 q 519 125 492 61 l 519 0 l 592 0 l 592 639 l 519 639 l 519 250 q 495 151 519 196 q 428 81 471 107 q 332 54 386 54 q 218 101 254 54 q 182 233 182 149 l 182 639 z "},"π":{"ha":711,"x_min":42,"x_max":656,"o":"m 125 608 l 125 0 l 197 0 l 197 608 l 125 608 m 42 639 l 42 571 l 656 571 l 656 639 l 42 639 m 472 608 l 472 168 q 488 54 472 93 q 536 1 504 15 q 618 -12 568 -12 l 618 60 q 576 69 592 60 q 552 104 560 78 q 544 185 544 131 l 544 608 l 472 608 z "},"а":{"ha":674,"x_min":47,"x_max":557,"o":"m 121 188 q 146 269 121 236 q 215 320 171 303 q 314 338 258 338 q 427 320 379 338 q 514 274 475 303 l 514 318 q 477 349 503 331 q 410 381 451 367 q 311 394 369 394 q 176 370 236 394 q 82 299 117 346 q 47 185 47 253 q 78 73 47 117 q 158 8 108 29 q 264 -14 207 -14 q 385 13 332 -14 q 470 88 439 40 q 501 197 501 136 l 485 239 q 458 138 485 179 q 385 74 432 96 q 281 51 339 51 q 202 66 239 51 q 143 110 165 81 q 121 188 121 140 m 139 513 q 187 547 158 529 q 253 577 215 565 q 336 589 290 589 q 444 553 403 589 q 485 453 485 518 l 485 0 l 557 0 l 557 453 q 531 560 557 515 q 455 628 504 604 q 336 653 406 653 q 197 625 254 653 q 103 568 139 597 l 139 513 z "},"б":{"ha":758,"x_min":49,"x_max":710,"o":"m 379 585 q 510 551 453 585 q 602 458 568 518 q 636 319 636 397 q 601 182 636 242 q 508 88 567 122 q 379 54 450 54 q 251 88 308 54 q 160 182 194 122 q 126 319 126 242 l 49 403 q 92 172 49 265 q 211 33 136 79 q 379 -14 286 -14 q 548 29 474 -14 q 666 148 622 72 q 710 319 710 224 q 666 492 710 417 q 548 610 622 567 q 379 653 474 653 l 379 585 m 90 319 l 126 319 q 149 433 126 383 q 210 515 172 482 q 292 567 247 549 q 379 585 338 585 l 379 653 q 269 630 321 653 q 176 564 217 607 q 113 459 136 521 q 90 319 90 397 m 49 403 l 113 325 l 113 439 q 134 619 113 538 q 209 761 156 701 q 356 851 263 821 q 481 910 428 876 q 567 988 535 944 q 604 1083 599 1032 l 533 1083 q 478 988 524 1033 q 338 911 432 943 q 163 803 226 874 q 74 633 99 733 q 49 403 49 533 z "},"в":{"ha":606,"x_min":104,"x_max":564,"o":"m 146 328 l 146 290 l 331 290 q 392 285 363 290 q 443 267 421 279 q 478 234 465 254 q 492 182 492 214 q 456 99 492 133 q 342 64 421 64 l 146 64 l 146 0 l 358 0 q 516 51 468 0 q 564 174 564 101 q 533 269 564 236 q 450 315 503 303 q 331 328 397 328 l 146 328 m 146 311 l 317 311 q 426 327 376 311 q 506 377 475 343 q 536 465 536 411 q 506 566 536 528 q 426 622 475 604 q 317 639 376 639 l 146 639 l 146 575 l 317 575 q 423 546 382 575 q 464 461 464 517 q 451 412 464 432 q 416 378 438 392 q 368 358 394 364 q 317 353 342 353 l 146 353 l 146 311 m 104 639 l 104 0 l 176 0 l 176 639 l 104 639 z "},"г":{"ha":442,"x_min":111,"x_max":435,"o":"m 111 639 l 111 0 l 183 0 l 183 571 l 435 571 l 435 639 l 111 639 z "},"ѓ":{"ha":442,"x_min":111,"x_max":488,"o":"m 111 639 l 111 0 l 183 0 l 183 571 l 435 571 l 435 639 l 111 639 m 488 949 l 421 986 l 201 764 l 242 736 l 488 949 z "},"д":{"ha":910,"x_min":56,"x_max":847,"o":"m 451 529 l 683 31 l 764 31 l 451 688 l 139 31 l 219 31 l 451 529 m 775 0 l 775 -125 l 847 -125 l 847 68 l 56 68 l 56 -125 l 132 -125 l 132 0 l 775 0 z "},"е":{"ha":715,"x_min":54,"x_max":654,"o":"m 100 301 l 651 301 q 653 319 653 310 q 654 336 654 328 q 616 503 654 432 q 511 613 578 574 q 361 653 444 653 q 222 622 285 653 q 119 534 160 590 q 63 404 79 478 q 56 363 58 383 q 54 321 54 343 q 93 149 54 225 q 199 29 132 72 q 350 -14 267 -14 q 489 9 435 -14 q 579 69 543 32 q 643 149 615 106 l 585 186 q 534 122 564 151 q 462 73 504 92 q 358 54 419 54 q 238 87 290 54 q 157 180 186 119 q 128 321 128 240 l 129 346 q 161 476 129 421 q 246 560 193 531 q 361 589 299 589 q 472 560 424 589 q 547 480 519 531 q 575 364 575 429 l 100 364 l 100 301 z "},"ѐ":{"ha":715,"x_min":54,"x_max":654,"o":"m 100 301 l 651 301 q 653 319 653 310 q 654 336 654 328 q 616 503 654 432 q 511 613 578 574 q 361 653 444 653 q 222 622 285 653 q 119 534 160 590 q 63 404 79 478 q 56 363 58 383 q 54 321 54 343 q 93 149 54 225 q 199 29 132 72 q 350 -14 267 -14 q 489 9 435 -14 q 579 69 543 32 q 643 149 615 106 l 585 186 q 534 122 564 151 q 462 73 504 92 q 358 54 419 54 q 238 87 290 54 q 157 180 186 119 q 128 321 128 240 l 129 346 q 161 476 129 421 q 246 560 193 531 q 361 589 299 589 q 472 560 424 589 q 547 480 519 531 q 575 364 575 429 l 100 364 l 100 301 m 171 963 l 417 750 l 457 778 l 238 1000 l 171 963 z "},"ё":{"ha":715,"x_min":54,"x_max":654,"o":"m 100 301 l 651 301 q 653 319 653 310 q 654 336 654 328 q 616 503 654 432 q 511 613 578 574 q 361 653 444 653 q 222 622 285 653 q 119 534 160 590 q 63 404 79 478 q 56 363 58 383 q 54 321 54 343 q 93 149 54 225 q 199 29 132 72 q 350 -14 267 -14 q 489 9 435 -14 q 579 69 543 32 q 643 149 615 106 l 585 186 q 534 122 564 151 q 462 73 504 92 q 358 54 419 54 q 238 87 290 54 q 157 180 186 119 q 128 321 128 240 l 129 346 q 161 476 129 421 q 246 560 193 531 q 361 589 299 589 q 472 560 424 589 q 547 480 519 531 q 575 364 575 429 l 100 364 l 100 301 m 439 829 q 455 792 439 807 q 490 776 471 776 q 528 792 513 776 q 543 829 543 807 q 528 865 543 850 q 490 881 513 881 q 455 865 471 881 q 439 829 439 850 m 161 829 q 177 792 161 807 q 213 776 193 776 q 250 792 235 776 q 265 829 265 807 q 250 865 265 850 q 213 881 235 881 q 177 865 193 881 q 161 829 161 850 z "},"ж":{"ha":815,"x_min":6,"x_max":810,"o":"m 690 639 l 424 375 l 718 0 l 810 0 l 506 367 l 782 639 l 690 639 m 442 639 l 374 639 l 374 0 l 442 0 l 442 639 m 124 639 l 33 639 l 308 367 l 6 0 l 96 0 l 392 375 l 124 639 z "},"з":{"ha":657,"x_min":85,"x_max":594,"o":"m 339 326 q 508 371 449 326 q 567 485 567 415 q 538 571 567 533 q 461 631 510 608 q 351 653 413 653 q 233 626 286 653 q 148 556 179 600 q 117 458 117 511 l 190 458 q 209 519 190 489 q 264 568 228 549 q 350 588 300 588 q 453 558 414 588 q 493 479 493 529 q 454 402 493 432 q 339 372 415 372 l 339 326 m 347 -14 q 469 9 413 -14 q 560 76 526 32 q 594 183 594 121 q 527 312 594 269 q 339 354 460 354 l 339 308 q 435 294 393 308 q 500 253 476 281 q 524 182 524 225 q 499 110 524 139 q 435 65 475 81 q 347 50 396 50 q 214 95 260 50 q 158 201 168 140 l 85 201 q 165 47 96 108 q 347 -14 235 -14 z "},"и":{"ha":718,"x_min":111,"x_max":607,"o":"m 600 576 l 607 688 l 118 63 l 111 -49 l 600 576 m 183 639 l 111 639 l 111 -49 l 183 54 l 183 639 m 607 688 l 535 585 l 535 0 l 607 0 l 607 688 z "},"й":{"ha":718,"x_min":111,"x_max":607,"o":"m 600 576 l 607 688 l 118 63 l 111 -49 l 600 576 m 183 639 l 111 639 l 111 -49 l 183 54 l 183 639 m 607 688 l 535 585 l 535 0 l 607 0 l 607 688 m 140 965 q 165 873 140 918 q 238 799 189 828 q 360 771 288 771 q 482 799 433 771 q 555 873 531 828 q 579 965 579 918 l 514 965 q 499 905 514 936 q 449 852 483 874 q 360 831 414 831 q 271 852 306 831 q 221 905 236 874 q 206 965 206 936 l 140 965 z "},"ѝ":{"ha":718,"x_min":111,"x_max":607,"o":"m 600 576 l 607 688 l 118 63 l 111 -49 l 600 576 m 183 639 l 111 639 l 111 -49 l 183 54 l 183 639 m 607 688 l 535 585 l 535 0 l 607 0 l 607 688 m 140 983 l 386 771 l 426 799 l 207 1021 l 140 983 z "},"к":{"ha":611,"x_min":103,"x_max":568,"o":"m 103 639 l 103 0 l 175 0 l 175 639 l 103 639 m 449 639 l 149 375 l 476 0 l 568 0 l 240 375 l 542 639 l 449 639 z "},"ќ":{"ha":611,"x_min":103,"x_max":568,"o":"m 103 639 l 103 0 l 175 0 l 175 639 l 103 639 m 449 639 l 149 375 l 476 0 l 568 0 l 240 375 l 542 639 l 449 639 m 564 963 l 497 1000 l 278 778 l 318 750 l 564 963 z "},"л":{"ha":736,"x_min":14,"x_max":625,"o":"m 625 639 l 115 639 l 115 222 q 85 104 115 142 q 14 67 56 67 l 14 0 q 108 24 69 0 q 167 98 147 49 q 188 222 188 147 l 188 571 l 553 571 l 553 0 l 625 0 l 625 639 z "},"м":{"ha":843,"x_min":7,"x_max":836,"o":"m 754 0 l 836 0 l 669 688 l 631 557 l 754 0 m 394 63 l 419 -43 l 676 532 l 669 688 l 394 63 m 419 -43 l 444 63 l 174 688 l 167 532 l 419 -43 m 7 0 l 90 0 l 213 557 l 174 688 l 7 0 z "},"н":{"ha":746,"x_min":104,"x_max":642,"o":"m 147 304 l 614 304 l 614 372 l 147 372 l 147 304 m 569 639 l 569 0 l 642 0 l 642 639 l 569 639 m 104 639 l 104 0 l 176 0 l 176 639 l 104 639 z "},"о":{"ha":758,"x_min":54,"x_max":710,"o":"m 54 319 q 97 148 54 224 q 215 29 140 72 q 382 -14 289 -14 q 549 29 475 -14 q 667 148 624 72 q 710 319 710 224 q 667 492 710 417 q 549 610 624 567 q 382 653 475 653 q 215 610 289 653 q 97 492 140 567 q 54 319 54 417 m 128 319 q 161 457 128 397 q 252 551 194 517 q 382 585 310 585 q 512 551 454 585 q 603 456 569 517 q 636 319 636 396 q 603 182 636 242 q 512 88 569 122 q 382 54 454 54 q 252 88 310 54 q 161 182 194 122 q 128 319 128 242 z "},"п":{"ha":690,"x_min":104,"x_max":586,"o":"m 586 639 l 104 639 l 104 0 l 176 0 l 176 571 l 514 571 l 514 0 l 586 0 l 586 639 z "},"р":{"ha":792,"x_min":103,"x_max":721,"o":"m 175 -306 l 175 639 l 103 639 l 103 -306 l 175 -306 m 721 319 q 680 498 721 424 q 569 613 639 572 q 413 653 499 653 q 271 609 332 653 q 176 490 210 565 q 142 319 142 415 q 176 149 142 225 q 271 30 210 74 q 413 -14 332 -14 q 569 26 499 -14 q 680 142 639 67 q 721 319 721 217 m 649 319 q 615 176 649 236 q 526 85 582 117 q 403 54 471 54 q 292 89 344 54 q 207 183 239 124 q 175 319 175 243 q 207 456 175 396 q 292 550 239 515 q 403 585 344 585 q 526 553 471 585 q 615 463 582 522 q 649 319 649 403 z "},"с":{"ha":664,"x_min":47,"x_max":594,"o":"m 121 319 q 154 457 121 397 q 245 551 188 517 q 375 585 303 585 q 471 569 426 585 q 548 531 515 554 q 594 481 581 507 l 594 571 q 505 628 565 604 q 375 653 444 653 q 208 610 282 653 q 91 492 135 567 q 47 319 47 417 q 91 148 47 224 q 208 29 135 72 q 375 -14 282 -14 q 505 10 444 -14 q 594 68 565 33 l 594 158 q 548 109 581 133 q 471 69 515 85 q 375 54 426 54 q 245 88 303 54 q 154 182 188 122 q 121 319 121 242 z "},"т":{"ha":389,"x_min":7,"x_max":382,"o":"m 7 639 l 7 571 l 382 571 l 382 639 l 7 639 m 158 619 l 158 0 l 231 0 l 231 619 l 158 619 z "},"у":{"ha":611,"x_min":6,"x_max":597,"o":"m 597 639 l 517 639 l 290 97 l 324 94 l 92 639 l 6 639 l 264 65 l 100 -306 l 181 -306 l 597 639 z "},"ў":{"ha":611,"x_min":6,"x_max":597,"o":"m 597 639 l 517 639 l 290 97 l 324 94 l 92 639 l 6 639 l 264 65 l 100 -306 l 181 -306 l 597 639 m 86 931 q 110 838 86 883 q 184 765 135 793 q 306 736 233 736 q 428 765 379 736 q 501 838 476 793 q 525 931 525 883 l 460 931 q 444 870 460 901 q 394 817 429 839 q 306 796 360 796 q 217 817 251 796 q 167 870 182 839 q 151 931 151 901 l 86 931 z "},"ф":{"ha":814,"x_min":49,"x_max":765,"o":"m 371 778 l 371 -139 l 443 -139 l 443 778 l 371 778 m 49 319 q 93 148 49 224 q 219 29 138 72 q 407 -14 300 -14 q 596 29 515 -14 q 721 148 676 72 q 765 319 765 224 q 721 492 765 417 q 596 610 676 567 q 407 653 515 653 q 219 610 300 653 q 93 492 138 567 q 49 319 49 417 m 122 319 q 156 455 122 394 q 254 550 190 515 q 407 585 318 585 q 560 550 496 585 q 658 455 624 515 q 692 319 692 394 q 658 185 692 244 q 560 90 624 125 q 407 54 496 54 q 254 90 318 54 q 156 185 190 125 q 122 319 122 244 z "},"х":{"ha":583,"x_min":6,"x_max":556,"o":"m 458 639 l 281 386 l 103 639 l 19 639 l 240 329 l 6 0 l 89 0 l 281 272 l 472 0 l 556 0 l 321 329 l 542 639 l 458 639 z "},"ц":{"ha":746,"x_min":104,"x_max":697,"o":"m 586 68 l 586 639 l 514 639 l 514 68 l 176 68 l 176 639 l 104 639 l 104 0 l 633 0 l 633 -125 l 697 -125 l 697 68 l 586 68 z "},"ч":{"ha":635,"x_min":69,"x_max":531,"o":"m 319 194 l 510 194 l 510 263 l 319 263 l 319 194 m 458 639 l 458 0 l 531 0 l 531 639 l 458 639 m 142 639 l 69 639 l 69 456 q 92 305 69 363 q 169 221 114 247 q 319 194 224 194 l 319 263 q 214 281 253 263 q 158 342 175 300 q 142 456 142 385 l 142 639 z "},"ш":{"ha":1044,"x_min":104,"x_max":940,"o":"m 558 68 l 558 639 l 486 639 l 486 68 l 176 68 l 176 639 l 104 639 l 104 0 l 940 0 l 940 639 l 868 639 l 868 68 l 558 68 z "},"щ":{"ha":1100,"x_min":104,"x_max":1051,"o":"m 558 68 l 558 639 l 486 639 l 486 68 l 176 68 l 176 639 l 104 639 l 104 0 l 988 0 l 988 -125 l 1051 -125 l 1051 68 l 940 68 l 940 639 l 868 639 l 868 68 l 558 68 z "},"ъ":{"ha":767,"x_min":7,"x_max":697,"o":"m 279 333 l 464 333 q 581 299 538 333 q 625 199 625 265 q 605 123 625 153 q 549 78 585 93 q 464 64 513 64 l 279 64 l 279 0 l 464 0 q 583 21 531 0 q 667 86 636 42 q 697 199 697 131 q 630 349 697 301 q 464 397 563 397 l 279 397 l 279 333 m 236 571 l 236 0 l 308 0 l 308 639 l 7 639 l 7 571 l 236 571 z "},"ы":{"ha":843,"x_min":104,"x_max":739,"o":"m 667 639 l 667 0 l 739 0 l 739 639 l 667 639 m 104 639 l 104 0 l 176 0 l 176 639 l 104 639 m 144 333 l 329 333 q 447 299 403 333 q 490 199 490 265 q 470 123 490 153 q 414 78 450 93 q 329 64 378 64 l 144 64 l 144 0 l 329 0 q 449 21 396 0 q 532 86 501 42 q 563 199 563 131 q 495 349 563 301 q 329 397 428 397 l 144 397 l 144 333 z "},"ь":{"ha":632,"x_min":104,"x_max":563,"o":"m 104 639 l 104 0 l 176 0 l 176 639 l 104 639 m 144 333 l 329 333 q 447 299 403 333 q 490 199 490 265 q 470 123 490 153 q 414 78 450 93 q 329 64 378 64 l 144 64 l 144 0 l 329 0 q 449 21 396 0 q 532 86 501 42 q 563 199 563 131 q 495 349 563 301 q 329 397 428 397 l 144 397 l 144 333 z "},"э":{"ha":669,"x_min":75,"x_max":622,"o":"m 190 353 l 190 286 l 551 286 l 610 353 l 190 353 m 549 319 q 515 182 549 242 q 424 88 482 122 q 294 54 367 54 q 199 69 243 54 q 122 109 154 85 q 75 158 90 133 l 75 68 q 165 10 104 33 q 294 -14 225 -14 q 462 29 388 -14 q 579 148 536 72 q 622 319 622 224 q 579 492 622 417 q 462 610 536 567 q 294 653 388 653 q 165 628 225 653 q 75 571 104 604 l 75 481 q 122 531 90 507 q 199 569 154 554 q 294 585 243 585 q 424 551 367 585 q 515 457 482 517 q 549 319 549 397 z "},"ю":{"ha":1042,"x_min":104,"x_max":988,"o":"m 147 301 l 383 301 l 383 369 l 147 369 l 147 301 m 104 639 l 104 0 l 176 0 l 176 639 l 104 639 m 332 319 q 375 148 332 224 q 493 29 418 72 q 660 -14 568 -14 q 826 29 753 -14 q 944 148 900 72 q 988 319 988 224 q 944 492 988 417 q 826 610 900 567 q 660 653 753 653 q 492 610 567 653 q 375 492 418 567 q 332 319 332 417 m 406 319 q 439 457 406 397 q 530 551 472 517 q 660 585 588 585 q 790 551 732 585 q 881 456 847 517 q 914 319 914 396 q 881 182 914 242 q 790 88 847 122 q 660 54 732 54 q 530 88 588 54 q 439 182 472 122 q 406 319 406 242 z "},"я":{"ha":632,"x_min":74,"x_max":563,"o":"m 154 0 l 376 307 l 296 307 l 74 0 l 154 0 m 563 0 l 563 639 l 490 639 l 490 0 l 563 0 m 519 319 l 338 319 q 253 333 289 319 q 197 374 217 346 q 176 447 176 403 q 197 521 176 493 q 253 562 217 549 q 338 575 289 575 l 519 575 l 519 639 l 338 639 q 219 619 272 639 q 135 558 165 600 q 104 447 104 517 q 135 337 104 379 q 219 275 165 294 q 338 256 272 256 l 519 256 l 519 319 z "},"ª":{"ha":331,"x_min":31,"x_max":286,"o":"m 68 736 q 97 795 68 774 q 164 817 125 817 q 222 808 197 817 q 264 783 246 799 l 264 807 q 231 830 256 815 q 163 844 207 844 q 72 815 113 844 q 31 736 31 786 q 65 658 31 685 q 140 632 99 632 q 225 662 192 632 q 258 738 258 692 l 250 758 q 219 690 250 714 q 149 665 189 665 q 90 684 111 665 q 68 736 68 703 m 78 906 q 117 932 92 919 q 176 944 142 944 q 230 926 210 944 q 250 876 250 908 l 250 639 l 286 639 l 286 876 q 257 949 286 922 q 176 976 228 976 q 106 963 135 976 q 60 935 76 949 l 78 906 z "},"º":{"ha":386,"x_min":28,"x_max":358,"o":"m 28 806 q 75 686 28 733 q 193 639 122 639 q 311 686 264 639 q 358 806 358 733 q 311 926 358 879 q 193 972 264 972 q 75 926 122 972 q 28 806 28 879 m 67 806 q 103 899 67 863 q 193 935 140 935 q 283 899 246 935 q 319 806 319 863 q 283 713 319 749 q 193 676 246 676 q 103 713 140 676 q 67 806 67 749 z "},"̀":{"ha":0,"x_min":0,"x_max":286,"o":"m 246 751 l 286 779 l 67 1001 l 0 964 l 246 751 z "},"́":{"ha":0,"x_min":21,"x_max":307,"o":"m 61 751 l 307 964 l 240 1001 l 21 779 l 61 751 z "},"̂":{"ha":0,"x_min":0,"x_max":429,"o":"m 38 779 l 231 947 l 200 947 l 392 779 l 429 825 l 215 1011 l 0 825 l 38 779 z "},"̃":{"ha":0,"x_min":0,"x_max":414,"o":"m 49 850 q 56 881 49 865 q 80 909 64 897 q 121 921 96 921 q 177 905 154 921 q 226 872 200 889 q 289 856 251 856 q 344 867 319 856 q 385 900 368 879 q 414 946 403 921 l 371 983 q 335 933 353 950 q 293 917 318 917 q 247 926 267 917 q 212 949 228 936 q 174 972 196 963 q 121 982 153 982 q 64 969 90 982 q 21 933 38 956 q 0 882 4 911 l 49 850 z "},"̄":{"ha":0,"x_min":0,"x_max":486,"o":"m 0 869 l 486 869 l 486 938 l 0 938 l 0 869 z "},"̆":{"ha":0,"x_min":0,"x_max":439,"o":"m 219 775 q 333 799 283 775 q 410 864 382 822 q 439 958 439 906 l 374 958 q 353 896 374 924 q 299 851 333 868 q 219 835 264 835 q 140 851 175 835 q 85 896 106 868 q 65 958 65 924 l 0 958 q 28 864 0 906 q 106 799 57 822 q 219 775 156 775 z "},"̇":{"ha":0,"x_min":0,"x_max":104,"o":"m 53 839 q 89 854 74 839 q 104 890 104 869 q 89 927 104 913 q 53 942 74 942 q 16 927 32 942 q 0 890 0 913 q 16 854 0 869 q 53 839 32 839 z "},"̈":{"ha":0,"x_min":0,"x_max":382,"o":"m 51 847 q 90 862 75 847 q 104 900 104 876 q 90 938 104 924 q 51 951 75 951 q 15 938 29 951 q 0 900 0 924 q 15 862 0 876 q 51 847 29 847 m 329 847 q 367 862 353 847 q 382 900 382 876 q 367 938 382 924 q 329 951 353 951 q 292 938 307 951 q 278 900 278 924 q 292 862 278 876 q 329 847 307 847 z "},"̊":{"ha":0,"x_min":0,"x_max":301,"o":"m 150 728 q 226 748 192 728 q 281 801 260 768 q 301 875 301 835 q 281 949 301 917 q 226 1002 260 982 q 150 1022 192 1022 q 44 979 89 1022 q 0 875 0 936 q 44 771 0 814 q 150 728 89 728 m 150 776 q 81 806 110 776 q 53 875 53 835 q 81 945 53 917 q 150 974 110 974 q 219 945 190 974 q 247 875 247 917 q 219 806 247 835 q 150 776 190 776 z "},"̋":{"ha":0,"x_min":0,"x_max":413,"o":"m 47 719 l 219 993 l 144 1013 l 0 736 l 47 719 m 239 719 l 413 993 l 338 1013 l 193 736 l 239 719 z "},"̌":{"ha":0,"x_min":0,"x_max":429,"o":"m 215 779 l 429 967 l 392 1011 l 200 843 l 231 843 l 38 1011 l 0 967 l 215 779 z "},"̒":{"ha":0,"x_min":0,"x_max":204,"o":"m 72 706 l 204 1061 l 153 1081 l 0 733 l 72 706 z "},"̦":{"ha":0,"x_min":0,"x_max":176,"o":"m 36 -300 l 176 -54 l 125 -25 l 0 -281 l 36 -300 z "},"̧":{"ha":0,"x_min":0,"x_max":274,"o":"m 124 -306 q 231 -268 189 -306 q 274 -175 274 -231 q 244 -100 274 -132 q 171 -68 215 -68 q 126 -76 144 -68 q 94 -103 107 -85 l 121 -101 l 208 50 l 151 50 l 54 -126 q 97 -114 72 -118 q 143 -110 122 -110 q 200 -126 181 -110 q 219 -175 219 -143 q 194 -233 219 -211 q 124 -256 168 -256 q 72 -247 94 -256 q 24 -219 50 -239 l 0 -261 q 58 -295 29 -285 q 124 -306 86 -306 z "},"̨":{"ha":0,"x_min":0,"x_max":288,"o":"m 160 -306 q 238 -288 204 -306 q 288 -250 272 -271 l 256 -204 q 219 -231 242 -219 q 164 -242 197 -242 q 99 -222 125 -242 q 72 -161 72 -203 q 96 -99 72 -129 q 156 -44 119 -69 q 233 0 193 -18 l 194 26 q 101 -29 146 1 q 28 -97 57 -60 q 0 -178 0 -133 q 18 -244 0 -215 q 72 -290 36 -274 q 160 -306 107 -306 z "},"０":{"ha":789,"x_min":56,"x_max":733,"o":"m 132 486 q 150 654 132 576 q 202 790 168 732 q 285 881 236 849 q 394 914 333 914 q 505 881 457 914 q 587 790 553 849 q 639 654 621 732 q 657 486 657 576 q 639 318 657 396 q 587 182 621 240 q 505 91 553 124 q 394 58 457 58 q 285 91 333 58 q 202 182 236 124 q 150 318 168 240 q 132 486 132 396 m 56 486 q 97 231 56 343 q 215 52 139 118 q 394 -14 292 -14 q 574 52 497 -14 q 692 231 650 118 q 733 486 733 343 q 692 742 733 629 q 574 920 650 854 q 394 986 497 986 q 215 920 292 986 q 97 742 139 854 q 56 486 56 629 z "},"１":{"ha":789,"x_min":188,"x_max":488,"o":"m 188 832 l 411 890 l 411 0 l 488 0 l 488 983 l 188 911 l 188 832 z "},"２":{"ha":789,"x_min":46,"x_max":710,"o":"m 46 0 l 710 0 l 710 72 l 204 72 l 560 438 q 653 560 615 494 q 690 704 690 625 q 674 801 690 751 q 624 893 658 851 q 537 961 590 935 q 407 988 483 988 q 242 944 313 988 q 134 822 172 900 q 96 639 96 743 l 171 639 q 201 785 171 722 q 283 881 231 847 q 407 915 336 915 q 500 897 461 915 q 564 848 539 878 q 601 782 589 818 q 613 710 613 746 q 598 624 613 664 q 558 550 583 585 q 499 479 532 515 l 46 0 z "},"３":{"ha":789,"x_min":100,"x_max":701,"o":"m 363 489 q 519 520 449 489 q 631 607 589 551 q 674 733 674 663 q 642 857 674 800 q 552 950 611 914 q 410 986 493 986 q 270 953 331 986 q 176 864 210 921 q 142 731 142 807 l 214 731 q 269 864 214 811 q 411 917 325 917 q 513 891 471 917 q 575 823 554 865 q 596 731 596 781 q 577 652 596 688 q 526 592 558 617 q 451 553 493 567 q 363 539 410 539 l 363 489 m 404 -14 q 558 19 492 -14 q 663 113 625 53 q 701 251 701 172 q 673 372 701 321 q 596 456 644 424 q 487 505 547 489 q 363 521 426 521 l 363 471 q 456 458 410 471 q 540 418 501 444 q 601 352 578 392 q 624 260 624 313 q 597 155 624 200 q 520 84 569 110 q 404 58 471 58 q 284 84 335 58 q 205 155 233 110 q 176 257 176 200 l 100 257 q 122 151 100 200 q 182 65 143 101 q 277 7 221 28 q 404 -14 333 -14 z "},"４":{"ha":789,"x_min":28,"x_max":746,"o":"m 28 194 l 746 194 l 746 263 l 564 263 l 549 263 l 92 263 l 28 194 m 110 194 l 517 796 l 517 238 l 517 225 l 517 0 l 594 0 l 594 972 l 564 972 l 28 194 l 110 194 z "},"５":{"ha":789,"x_min":61,"x_max":722,"o":"m 714 319 q 676 485 714 414 q 574 596 639 556 q 428 636 508 636 q 292 607 354 636 q 188 526 229 578 l 136 454 q 220 519 181 494 q 303 556 260 544 q 399 567 347 567 q 519 535 465 567 q 603 449 572 504 q 635 319 635 393 q 603 179 635 238 q 515 90 571 121 q 383 58 458 58 q 272 81 322 58 q 185 144 222 104 q 125 233 149 185 l 61 190 q 133 85 90 132 q 238 13 176 39 q 383 -14 300 -14 q 512 7 453 -14 q 617 69 571 28 q 688 174 663 111 q 714 319 714 236 m 322 904 l 722 904 l 722 972 l 264 972 l 136 454 l 233 547 l 322 904 z "},"６":{"ha":789,"x_min":75,"x_max":714,"o":"m 149 314 q 180 441 149 383 q 267 533 211 499 q 400 567 324 567 q 522 534 468 567 q 608 444 576 501 q 640 314 640 386 q 609 181 640 239 q 522 90 578 124 q 394 56 467 56 q 267 90 322 56 q 180 181 211 124 q 149 314 149 239 m 464 972 l 143 524 q 95 429 115 485 q 75 314 75 374 q 116 143 75 217 q 229 28 157 69 q 394 -14 301 -14 q 560 28 489 -14 q 673 143 632 69 q 714 314 714 217 q 692 435 714 379 q 630 534 669 492 q 538 600 590 576 q 426 624 486 624 q 319 605 367 624 q 238 544 272 586 l 243 540 l 560 972 l 464 972 z "},"７":{"ha":789,"x_min":78,"x_max":747,"o":"m 78 900 l 631 900 l 182 0 l 261 0 l 747 972 l 78 972 l 78 900 z "},"８":{"ha":789,"x_min":106,"x_max":683,"o":"m 138 743 q 158 644 138 689 q 213 567 178 599 q 294 517 247 535 q 394 500 340 500 q 495 517 449 500 q 576 567 542 535 q 631 644 611 599 q 651 743 651 689 q 617 865 651 810 q 526 953 583 919 q 394 986 468 986 q 263 953 321 986 q 172 865 206 919 q 138 743 138 810 m 211 735 q 235 828 211 786 q 300 894 258 869 q 394 918 342 918 q 490 894 449 918 q 554 828 531 869 q 578 735 578 786 q 551 639 578 681 q 481 574 524 597 q 394 550 439 550 q 308 574 350 550 q 238 639 265 597 q 211 735 211 681 m 106 261 q 126 154 106 204 q 185 67 147 104 q 276 8 224 29 q 394 -14 329 -14 q 513 8 460 -14 q 603 67 565 29 q 663 154 642 104 q 683 261 683 204 q 660 374 683 324 q 596 459 636 424 q 503 513 556 494 q 394 532 451 532 q 285 513 338 532 q 193 459 233 494 q 129 374 153 424 q 106 261 106 324 m 179 269 q 210 378 179 331 q 291 454 242 426 q 394 482 340 482 q 498 454 449 482 q 578 378 547 426 q 610 269 610 331 q 581 156 610 204 q 504 81 553 107 q 394 54 456 54 q 285 81 333 54 q 208 156 236 107 q 179 269 179 204 z "},"９":{"ha":789,"x_min":75,"x_max":714,"o":"m 640 658 q 609 532 640 589 q 522 440 578 475 q 389 406 465 406 q 267 439 322 406 q 181 529 213 472 q 149 658 149 586 q 180 792 149 733 q 267 883 211 850 q 394 917 322 917 q 522 883 467 917 q 609 792 578 850 q 640 658 640 733 m 325 0 l 646 449 q 694 543 674 488 q 714 658 714 599 q 673 829 714 756 q 560 944 632 903 q 394 986 489 986 q 229 944 301 986 q 116 829 157 903 q 75 658 75 756 q 97 537 75 593 q 159 438 119 481 q 251 372 199 396 q 363 349 303 349 q 469 367 422 349 q 551 428 517 386 l 546 432 l 229 0 l 325 0 z "},"¹":{"ha":653,"x_min":206,"x_max":386,"o":"m 206 879 l 340 915 l 340 381 l 386 381 l 386 971 l 206 928 l 206 879 z "},"²":{"ha":472,"x_min":38,"x_max":435,"o":"m 38 392 l 435 392 l 435 435 l 133 435 l 346 654 q 401 728 379 689 q 424 815 424 768 q 407 892 424 853 q 353 958 390 931 q 254 985 315 985 q 156 958 199 985 q 91 885 114 932 q 68 775 68 838 l 114 775 q 153 896 114 850 q 254 942 192 942 q 325 923 299 942 q 365 876 351 904 q 378 818 378 847 q 358 744 378 776 q 310 681 339 711 l 38 392 z "},"³":{"ha":431,"x_min":38,"x_max":399,"o":"m 196 682 q 290 701 247 682 q 357 753 332 719 q 382 828 382 786 q 341 934 382 888 q 225 981 300 981 q 108 938 153 981 q 63 828 63 896 l 107 828 q 140 908 107 876 q 225 939 174 939 q 308 906 279 939 q 336 828 336 874 q 317 767 336 793 q 265 727 297 742 q 196 713 233 713 l 196 682 m 221 381 q 349 424 299 381 q 399 540 399 468 q 369 631 399 596 q 294 684 340 667 q 196 701 247 701 l 196 671 q 269 658 233 671 q 329 616 306 644 q 353 544 353 588 q 317 457 353 490 q 221 424 281 424 q 122 458 158 424 q 85 543 85 492 l 38 543 q 60 461 38 499 q 124 402 82 424 q 221 381 165 381 z "},"¼":{"ha":1047,"x_min":36,"x_max":986,"o":"m 888 972 l 136 0 l 197 0 l 949 972 l 888 972 m 36 879 l 171 915 l 171 381 l 217 381 l 217 971 l 36 928 l 36 879 m 554 117 l 986 117 l 986 157 l 876 157 l 867 157 l 593 157 l 554 117 m 603 117 l 849 478 l 849 142 l 849 136 l 849 0 l 894 0 l 894 583 l 876 583 l 554 117 l 603 117 z "},"½":{"ha":1138,"x_min":36,"x_max":1085,"o":"m 888 972 l 136 0 l 197 0 l 949 972 l 888 972 m 36 879 l 171 915 l 171 381 l 217 381 l 217 971 l 36 928 l 36 879 m 686 3 l 1085 3 l 1085 46 l 782 46 l 994 265 q 1051 339 1028 300 q 1074 425 1074 378 q 1056 502 1074 463 q 1001 569 1039 542 q 904 596 964 596 q 805 569 847 596 q 740 496 763 543 q 717 386 717 449 l 763 386 q 801 507 763 461 q 904 553 840 553 q 974 534 947 553 q 1013 487 1000 515 q 1026 429 1026 458 q 1007 355 1026 388 q 958 290 988 322 l 686 3 z "},"¾":{"ha":1139,"x_min":44,"x_max":1079,"o":"m 981 972 l 229 0 l 290 0 l 1042 972 l 981 972 m 203 682 q 297 701 254 682 q 364 753 339 719 q 389 828 389 786 q 348 934 389 888 q 232 981 307 981 q 115 938 160 981 q 69 828 69 896 l 114 828 q 147 908 114 876 q 232 939 181 939 q 315 906 286 939 q 343 828 343 874 q 324 767 343 793 q 272 727 304 742 q 203 713 240 713 l 203 682 m 228 381 q 356 424 306 381 q 406 540 406 468 q 376 631 406 596 q 301 684 347 667 q 203 701 254 701 l 203 671 q 276 658 240 671 q 336 616 313 644 q 360 544 360 588 q 324 457 360 490 q 228 424 288 424 q 128 458 165 424 q 92 543 92 492 l 44 543 q 67 461 44 499 q 131 402 89 424 q 228 381 172 381 m 647 117 l 1079 117 l 1079 157 l 969 157 l 960 157 l 686 157 l 647 117 m 696 117 l 942 478 l 942 142 l 942 136 l 942 0 l 988 0 l 988 583 l 969 583 l 647 117 l 696 117 z "},"⁰":{"ha":490,"x_min":44,"x_max":451,"o":"m 90 681 q 109 811 90 753 q 163 903 128 869 q 247 938 199 938 q 332 903 297 938 q 385 811 367 869 q 404 681 404 753 q 385 550 404 608 q 332 458 367 492 q 247 424 297 424 q 163 458 199 424 q 109 550 128 492 q 90 681 90 608 m 44 681 q 69 528 44 596 q 140 420 94 460 q 247 381 186 381 q 355 420 310 381 q 426 528 400 460 q 451 681 451 596 q 426 834 451 767 q 355 941 400 901 q 247 981 310 981 q 140 941 186 981 q 69 834 94 901 q 44 681 44 767 z "},"⁴":{"ha":528,"x_min":44,"x_max":475,"o":"m 44 506 l 475 506 l 475 546 l 367 546 l 357 546 l 83 546 l 44 506 m 93 506 l 338 867 l 338 531 l 338 525 l 338 389 l 385 389 l 385 972 l 367 972 l 44 506 l 93 506 z "},"⁵":{"ha":486,"x_min":44,"x_max":440,"o":"m 436 578 q 414 677 436 635 q 353 744 392 719 q 265 768 314 768 q 183 750 221 768 q 119 703 146 732 l 89 658 q 165 711 129 696 q 247 726 200 726 q 347 685 307 726 q 388 578 388 644 q 347 463 388 504 q 238 421 306 421 q 144 451 183 421 q 83 526 104 482 l 44 500 q 117 413 71 447 q 238 378 163 378 q 338 400 293 378 q 409 467 382 422 q 436 578 436 513 m 200 929 l 440 929 l 440 969 l 165 969 l 89 658 l 147 714 l 200 929 z "},"⁶":{"ha":472,"x_min":53,"x_max":436,"o":"m 96 575 q 115 651 96 617 q 169 706 135 686 q 249 726 203 726 q 322 706 289 726 q 373 652 354 686 q 392 575 392 618 q 351 463 392 507 q 244 419 310 419 q 138 463 179 419 q 96 575 96 507 m 286 969 l 93 700 q 65 644 76 678 q 53 575 53 611 q 77 472 53 517 q 145 403 101 428 q 244 378 189 378 q 344 403 301 378 q 411 472 386 428 q 436 575 436 517 q 413 669 436 626 q 350 735 389 711 q 264 760 311 760 q 199 749 228 760 q 150 713 171 738 l 153 710 l 344 969 l 286 969 z "},"⁷":{"ha":490,"x_min":44,"x_max":446,"o":"m 44 929 l 378 929 l 107 389 l 156 389 l 446 972 l 44 972 l 44 929 z "},"⁸":{"ha":436,"x_min":44,"x_max":392,"o":"m 64 835 q 85 760 64 793 q 141 708 106 726 q 218 689 176 689 q 296 708 261 689 q 351 760 331 726 q 372 835 372 793 q 352 908 372 875 q 297 960 332 940 q 218 981 263 981 q 139 960 174 981 q 84 908 104 940 q 64 835 64 875 m 108 831 q 139 908 108 876 q 218 940 169 940 q 297 908 267 940 q 328 831 328 876 q 312 772 328 797 q 270 733 296 747 q 218 719 244 719 q 167 733 192 719 q 125 772 142 747 q 108 831 108 797 m 44 546 q 66 463 44 501 q 127 403 88 425 q 218 381 167 381 q 310 403 271 381 q 370 463 349 425 q 392 546 392 501 q 378 613 392 583 q 339 664 364 643 q 283 697 314 685 q 218 708 253 708 q 153 697 185 708 q 97 664 122 685 q 58 613 72 643 q 44 546 44 583 m 89 550 q 108 617 89 588 q 156 662 126 646 q 218 678 186 678 q 280 662 250 678 q 328 617 310 646 q 347 550 347 588 q 310 456 347 492 q 218 421 274 421 q 126 456 164 421 q 89 550 89 492 z "},"⁹":{"ha":472,"x_min":51,"x_max":436,"o":"m 392 786 q 373 710 392 744 q 320 655 354 675 q 240 635 286 635 q 167 655 200 635 q 115 709 135 675 q 96 786 96 743 q 138 899 96 856 q 243 942 179 942 q 350 899 308 942 q 392 786 392 856 m 203 392 l 394 661 q 424 718 411 685 q 436 786 436 751 q 411 889 436 844 q 343 958 386 933 q 243 983 300 983 q 144 958 188 983 q 76 889 101 933 q 51 786 51 844 q 75 693 51 736 q 138 626 99 650 q 225 601 178 601 q 288 613 260 601 q 338 649 317 624 l 335 651 l 144 392 l 203 392 z "},"₀":{"ha":496,"x_min":44,"x_max":451,"o":"m 90 292 q 109 422 90 364 q 163 515 128 481 q 247 549 199 549 q 332 515 297 549 q 385 422 367 481 q 404 292 404 364 q 385 161 404 219 q 332 69 367 103 q 247 35 297 35 q 163 69 199 35 q 109 161 128 103 q 90 292 90 219 m 44 292 q 69 139 44 207 q 140 31 94 71 q 247 -8 186 -8 q 355 31 310 -8 q 426 139 400 71 q 451 292 451 207 q 426 445 451 378 q 355 552 400 513 q 247 592 310 592 q 140 552 186 592 q 69 445 94 513 q 44 292 44 378 z "},"₁":{"ha":422,"x_min":128,"x_max":308,"o":"m 128 500 l 263 536 l 263 1 l 308 1 l 308 592 l 128 549 l 128 500 z "},"₂":{"ha":472,"x_min":38,"x_max":435,"o":"m 38 3 l 435 3 l 435 46 l 133 46 l 346 265 q 401 340 379 300 q 424 426 424 379 q 407 503 424 464 q 353 569 390 542 q 254 596 315 596 q 156 569 199 596 q 91 496 114 543 q 68 386 68 449 l 114 386 q 153 507 114 461 q 254 553 192 553 q 325 534 299 553 q 365 487 351 515 q 378 429 378 458 q 358 355 378 388 q 310 292 339 322 l 38 3 z "},"₃":{"ha":436,"x_min":38,"x_max":399,"o":"m 196 293 q 290 312 247 293 q 357 364 332 331 q 382 439 382 397 q 341 545 382 499 q 225 592 300 592 q 108 549 153 592 q 63 439 63 507 l 107 439 q 140 519 107 488 q 225 550 174 550 q 308 517 279 550 q 336 439 336 485 q 317 378 336 404 q 265 338 297 353 q 196 324 233 324 l 196 293 m 221 -8 q 349 35 299 -8 q 399 151 399 79 q 369 242 399 207 q 294 295 340 278 q 196 313 247 313 l 196 282 q 269 269 233 282 q 329 227 306 256 q 353 156 353 199 q 317 68 353 101 q 221 35 281 35 q 122 69 158 35 q 85 154 85 103 l 38 154 q 60 72 38 110 q 124 13 82 35 q 221 -8 165 -8 z "},"₄":{"ha":528,"x_min":44,"x_max":475,"o":"m 44 117 l 475 117 l 475 157 l 367 157 l 357 157 l 83 157 l 44 117 m 93 117 l 338 478 l 338 142 l 338 136 l 338 0 l 385 0 l 385 583 l 367 583 l 44 117 l 93 117 z "},"₅":{"ha":486,"x_min":44,"x_max":440,"o":"m 436 189 q 414 288 436 246 q 353 355 392 331 q 265 379 314 379 q 183 361 221 379 q 119 314 146 343 l 89 269 q 165 322 129 307 q 247 338 200 338 q 347 297 307 338 q 388 189 388 256 q 347 74 388 115 q 238 32 306 32 q 144 63 183 32 q 83 138 104 93 l 44 111 q 117 24 71 58 q 238 -11 163 -11 q 338 11 293 -11 q 409 78 382 33 q 436 189 436 124 m 200 540 l 440 540 l 440 581 l 165 581 l 89 269 l 147 325 l 200 540 z "},"₆":{"ha":472,"x_min":51,"x_max":435,"o":"m 96 186 q 115 263 96 228 q 167 317 133 297 q 247 338 201 338 q 320 317 288 338 q 372 263 353 297 q 392 186 392 229 q 350 74 392 118 q 243 31 308 31 q 138 74 179 31 q 96 186 96 118 m 285 581 l 93 311 q 64 256 76 289 q 51 186 51 222 q 76 83 51 128 q 144 14 101 39 q 243 -11 188 -11 q 343 14 300 -11 q 410 83 386 39 q 435 186 435 128 q 411 280 435 238 q 349 347 388 322 q 263 371 310 371 q 199 360 228 371 q 150 324 171 349 l 153 321 l 343 581 l 285 581 z "},"₇":{"ha":490,"x_min":44,"x_max":446,"o":"m 44 540 l 378 540 l 107 0 l 156 0 l 446 583 l 44 583 l 44 540 z "},"₈":{"ha":436,"x_min":44,"x_max":392,"o":"m 64 446 q 85 371 64 404 q 141 319 106 338 q 218 300 176 300 q 296 319 261 300 q 351 371 331 338 q 372 446 372 404 q 352 519 372 486 q 297 572 332 551 q 218 592 263 592 q 139 572 174 592 q 84 519 104 551 q 64 446 64 486 m 108 442 q 139 519 108 488 q 218 551 169 551 q 297 519 267 551 q 328 442 328 488 q 312 383 328 408 q 270 344 296 358 q 218 331 244 331 q 167 344 192 331 q 125 383 142 358 q 108 442 108 408 m 44 157 q 66 74 44 113 q 127 14 88 36 q 218 -8 167 -8 q 310 14 271 -8 q 370 74 349 36 q 392 157 392 113 q 378 224 392 194 q 339 275 364 254 q 283 308 314 296 q 218 319 253 319 q 153 308 185 319 q 97 275 122 296 q 58 224 72 254 q 44 157 44 194 m 89 161 q 108 228 89 199 q 156 273 126 257 q 218 289 186 289 q 280 273 250 289 q 328 228 310 257 q 347 161 347 199 q 310 67 347 103 q 218 32 274 32 q 126 67 164 32 q 89 161 89 103 z "},"₉":{"ha":472,"x_min":38,"x_max":421,"o":"m 378 397 q 359 321 378 356 q 306 266 340 286 q 226 246 272 246 q 153 266 186 246 q 101 320 121 286 q 82 397 82 354 q 124 510 82 467 q 229 553 165 553 q 336 510 294 553 q 378 397 378 467 m 188 3 l 381 272 q 409 329 397 296 q 421 397 421 363 q 397 500 421 456 q 329 569 372 544 q 229 594 286 594 q 131 569 174 594 q 63 500 88 544 q 38 397 38 456 q 61 303 38 346 q 124 237 85 261 q 210 213 163 213 q 274 224 246 213 q 324 260 303 235 l 321 263 l 131 3 l 188 3 z "},"⅐":{"ha":1169,"x_min":36,"x_max":1124,"o":"m 818 972 l 67 0 l 128 0 l 879 972 l 818 972 m 36 879 l 171 915 l 171 381 l 217 381 l 217 971 l 36 928 l 36 879 m 722 540 l 1056 540 l 785 0 l 833 0 l 1124 583 l 722 583 l 722 540 z "},"⅑":{"ha":1089,"x_min":36,"x_max":1044,"o":"m 818 972 l 67 0 l 128 0 l 879 972 l 818 972 m 36 879 l 171 915 l 171 381 l 217 381 l 217 971 l 36 928 l 36 879 m 1000 397 q 981 321 1000 356 q 928 266 963 286 q 849 246 894 246 q 776 266 808 246 q 724 320 743 286 q 704 397 704 354 q 746 510 704 467 q 851 553 788 553 q 958 510 917 553 q 1000 397 1000 467 m 811 3 l 1003 272 q 1032 329 1019 296 q 1044 397 1044 363 q 1019 500 1044 456 q 951 569 994 544 q 851 594 908 594 q 753 569 796 594 q 685 500 710 544 q 660 397 660 456 q 683 303 660 346 q 747 237 707 261 q 833 213 786 213 q 897 224 868 213 q 946 260 925 235 l 943 263 l 753 3 l 811 3 z "},"⅒":{"ha":1500,"x_min":36,"x_max":1435,"o":"m 818 972 l 67 0 l 128 0 l 879 972 l 818 972 m 36 879 l 171 915 l 171 381 l 217 381 l 217 971 l 36 928 l 36 879 m 647 500 l 782 536 l 782 1 l 828 1 l 828 592 l 647 549 l 647 500 m 1074 292 q 1092 422 1074 364 q 1147 515 1111 481 q 1231 549 1183 549 q 1315 515 1281 549 q 1369 422 1350 481 q 1388 292 1388 364 q 1369 161 1388 219 q 1315 69 1350 103 q 1231 35 1281 35 q 1147 69 1183 35 q 1092 161 1111 103 q 1074 292 1074 219 m 1028 292 q 1053 139 1028 207 q 1124 31 1078 71 q 1231 -8 1169 -8 q 1338 31 1293 -8 q 1409 139 1383 71 q 1435 292 1435 207 q 1409 445 1435 378 q 1338 552 1383 513 q 1231 592 1293 592 q 1124 552 1169 592 q 1053 445 1078 513 q 1028 292 1028 378 z "},"⅓":{"ha":1049,"x_min":36,"x_max":1007,"o":"m 818 972 l 67 0 l 128 0 l 879 972 l 818 972 m 36 879 l 171 915 l 171 381 l 217 381 l 217 971 l 36 928 l 36 879 m 804 293 q 898 312 856 293 q 965 364 940 331 q 990 439 990 397 q 949 545 990 499 q 833 592 908 592 q 716 549 761 592 q 671 439 671 507 l 715 439 q 749 519 715 488 q 833 550 782 550 q 916 517 888 550 q 944 439 944 485 q 925 378 944 404 q 874 338 906 353 q 804 324 842 324 l 804 293 m 829 -8 q 957 35 907 -8 q 1007 151 1007 79 q 978 242 1007 207 q 902 295 949 278 q 804 313 856 313 l 804 282 q 878 269 842 282 q 938 227 914 256 q 961 156 961 199 q 925 68 961 101 q 829 35 889 35 q 730 69 767 35 q 693 154 693 103 l 646 154 q 668 72 646 110 q 732 13 690 35 q 829 -8 774 -8 z "},"⅔":{"ha":1225,"x_min":43,"x_max":1183,"o":"m 994 972 l 243 0 l 304 0 l 1056 972 l 994 972 m 43 392 l 442 392 l 442 435 l 139 435 l 351 654 q 408 728 385 689 q 431 815 431 768 q 413 892 431 853 q 358 958 396 931 q 261 985 321 985 q 162 958 204 985 q 97 885 119 932 q 74 775 74 838 l 119 775 q 158 896 119 850 q 261 942 197 942 q 331 923 304 942 q 370 876 357 904 q 383 818 383 847 q 364 744 383 776 q 315 681 344 711 l 43 392 m 981 293 q 1074 312 1032 293 q 1142 364 1117 331 q 1167 439 1167 397 q 1126 545 1167 499 q 1010 592 1085 592 q 892 549 938 592 q 847 439 847 507 l 892 439 q 925 519 892 488 q 1010 550 958 550 q 1092 517 1064 550 q 1121 439 1121 485 q 1101 378 1121 404 q 1050 338 1082 353 q 981 324 1018 324 l 981 293 m 1006 -8 q 1133 35 1083 -8 q 1183 151 1183 79 q 1154 242 1183 207 q 1078 295 1125 278 q 981 313 1032 313 l 981 282 q 1054 269 1018 282 q 1114 227 1090 256 q 1138 156 1138 199 q 1101 68 1138 101 q 1006 35 1065 35 q 906 69 943 35 q 869 154 869 103 l 822 154 q 844 72 822 110 q 908 13 867 35 q 1006 -8 950 -8 z "},"⅕":{"ha":1033,"x_min":36,"x_max":979,"o":"m 818 972 l 67 0 l 128 0 l 879 972 l 818 972 m 36 879 l 171 915 l 171 381 l 217 381 l 217 971 l 36 928 l 36 879 m 975 189 q 953 288 975 246 q 892 355 931 331 q 804 379 853 379 q 722 361 760 379 q 658 314 685 343 l 628 269 q 703 322 668 307 q 786 338 739 338 q 886 297 846 338 q 926 189 926 256 q 885 74 926 115 q 776 32 844 32 q 683 63 722 32 q 622 138 643 93 l 583 111 q 656 24 610 58 q 776 -11 701 -11 q 876 11 832 -11 q 948 78 921 33 q 975 189 975 124 m 739 540 l 979 540 l 979 581 l 704 581 l 628 269 l 686 325 l 739 540 z "},"⅖":{"ha":1210,"x_min":43,"x_max":1156,"o":"m 994 972 l 243 0 l 304 0 l 1056 972 l 994 972 m 43 392 l 442 392 l 442 435 l 139 435 l 351 654 q 408 728 385 689 q 431 815 431 768 q 413 892 431 853 q 358 958 396 931 q 261 985 321 985 q 162 958 204 985 q 97 885 119 932 q 74 775 74 838 l 119 775 q 158 896 119 850 q 261 942 197 942 q 331 923 304 942 q 370 876 357 904 q 383 818 383 847 q 364 744 383 776 q 315 681 344 711 l 43 392 m 1151 189 q 1129 288 1151 246 q 1068 355 1107 331 q 981 379 1029 379 q 899 361 936 379 q 835 314 861 343 l 804 269 q 880 322 844 307 q 963 338 915 338 q 1063 297 1022 338 q 1103 189 1103 256 q 1062 74 1103 115 q 953 32 1021 32 q 859 63 899 32 q 799 138 819 93 l 760 111 q 832 24 786 58 q 953 -11 878 -11 q 1053 11 1008 -11 q 1124 78 1097 33 q 1151 189 1151 124 m 915 540 l 1156 540 l 1156 581 l 881 581 l 804 269 l 863 325 l 915 540 z "},"⅗":{"ha":1154,"x_min":44,"x_max":1100,"o":"m 939 972 l 188 0 l 249 0 l 1000 972 l 939 972 m 203 682 q 297 701 254 682 q 364 753 339 719 q 389 828 389 786 q 348 934 389 888 q 232 981 307 981 q 115 938 160 981 q 69 828 69 896 l 114 828 q 147 908 114 876 q 232 939 181 939 q 315 906 286 939 q 343 828 343 874 q 324 767 343 793 q 272 727 304 742 q 203 713 240 713 l 203 682 m 228 381 q 356 424 306 381 q 406 540 406 468 q 376 631 406 596 q 301 684 347 667 q 203 701 254 701 l 203 671 q 276 658 240 671 q 336 616 313 644 q 360 544 360 588 q 324 457 360 490 q 228 424 288 424 q 128 458 165 424 q 92 543 92 492 l 44 543 q 67 461 44 499 q 131 402 89 424 q 228 381 172 381 m 1096 189 q 1074 288 1096 246 q 1013 355 1051 331 q 925 379 974 379 q 843 361 881 379 q 779 314 806 343 l 749 269 q 824 322 789 307 q 907 338 860 338 q 1007 297 967 338 q 1047 189 1047 256 q 1006 74 1047 115 q 897 32 965 32 q 803 63 843 32 q 743 138 764 93 l 704 111 q 776 24 731 58 q 897 -11 822 -11 q 997 11 953 -11 q 1069 78 1042 33 q 1096 189 1096 124 m 860 540 l 1100 540 l 1100 581 l 825 581 l 749 269 l 807 325 l 860 540 z "},"⅘":{"ha":1203,"x_min":44,"x_max":1149,"o":"m 988 972 l 236 0 l 297 0 l 1049 972 l 988 972 m 44 506 l 475 506 l 475 546 l 367 546 l 357 546 l 83 546 l 44 506 m 93 506 l 338 867 l 338 531 l 338 525 l 338 389 l 385 389 l 385 972 l 367 972 l 44 506 l 93 506 m 1144 189 q 1122 288 1144 246 q 1061 355 1100 331 q 974 379 1022 379 q 892 361 929 379 q 828 314 854 343 l 797 269 q 873 322 838 307 q 956 338 908 338 q 1056 297 1015 338 q 1096 189 1096 256 q 1055 74 1096 115 q 946 32 1014 32 q 852 63 892 32 q 792 138 813 93 l 753 111 q 825 24 779 58 q 946 -11 871 -11 q 1046 11 1001 -11 q 1117 78 1090 33 q 1144 189 1144 124 m 908 540 l 1149 540 l 1149 581 l 874 581 l 797 269 l 856 325 l 908 540 z "},"⅙":{"ha":1019,"x_min":36,"x_max":975,"o":"m 818 972 l 67 0 l 128 0 l 879 972 l 818 972 m 36 879 l 171 915 l 171 381 l 217 381 l 217 971 l 36 928 l 36 879 m 635 186 q 653 263 635 228 q 707 317 672 297 q 788 338 742 338 q 860 317 828 338 q 912 263 893 297 q 931 186 931 229 q 890 74 931 118 q 783 31 849 31 q 676 74 718 31 q 635 186 635 118 m 825 581 l 632 311 q 603 256 615 289 q 592 186 592 222 q 616 83 592 128 q 684 14 640 39 q 783 -11 728 -11 q 883 14 840 -11 q 950 83 925 39 q 975 186 975 128 q 951 280 975 238 q 889 347 928 322 q 803 371 850 371 q 738 360 767 371 q 689 324 710 349 l 692 321 l 883 581 l 825 581 z "},"⅚":{"ha":1189,"x_min":44,"x_max":1144,"o":"m 988 972 l 236 0 l 297 0 l 1049 972 l 988 972 m 436 578 q 414 677 436 635 q 353 744 392 719 q 265 768 314 768 q 183 750 221 768 q 119 703 146 732 l 89 658 q 165 711 129 696 q 247 726 200 726 q 347 685 307 726 q 388 578 388 644 q 347 463 388 504 q 238 421 306 421 q 144 451 183 421 q 83 526 104 482 l 44 500 q 117 413 71 447 q 238 378 163 378 q 338 400 293 378 q 409 467 382 422 q 436 578 436 513 m 200 929 l 440 929 l 440 969 l 165 969 l 89 658 l 147 714 l 200 929 m 804 186 q 824 263 804 228 q 877 317 843 297 q 957 338 911 338 q 1030 317 997 338 q 1081 263 1063 297 q 1100 186 1100 229 q 1059 74 1100 118 q 953 31 1018 31 q 846 74 888 31 q 804 186 804 118 m 994 581 l 801 311 q 773 256 785 289 q 761 186 761 222 q 785 83 761 128 q 853 14 810 39 q 953 -11 897 -11 q 1052 14 1010 -11 q 1119 83 1094 39 q 1144 186 1144 128 q 1121 280 1144 238 q 1058 347 1097 322 q 972 371 1019 371 q 908 360 936 371 q 858 324 879 349 l 861 321 l 1053 581 l 994 581 z "},"⅛":{"ha":1056,"x_min":36,"x_max":1000,"o":"m 818 972 l 67 0 l 128 0 l 879 972 l 818 972 m 36 879 l 171 915 l 171 381 l 217 381 l 217 971 l 36 928 l 36 879 m 672 446 q 693 371 672 404 q 749 319 714 338 q 826 300 785 300 q 904 319 869 300 q 960 371 939 338 q 981 446 981 404 q 960 519 981 486 q 906 572 940 551 q 826 592 871 592 q 747 572 782 592 q 692 519 713 551 q 672 446 672 486 m 717 442 q 747 519 717 488 q 826 551 778 551 q 906 519 875 551 q 936 442 936 488 q 920 383 936 408 q 878 344 904 358 q 826 331 853 331 q 775 344 800 331 q 733 383 750 358 q 717 442 717 408 m 653 157 q 674 74 653 113 q 735 14 696 36 q 826 -8 775 -8 q 918 14 879 -8 q 978 74 957 36 q 1000 157 1000 113 q 986 224 1000 194 q 947 275 972 254 q 892 308 922 296 q 826 319 861 319 q 762 308 793 319 q 706 275 731 296 q 667 224 681 254 q 653 157 653 194 m 697 161 q 716 228 697 199 q 765 273 735 257 q 826 289 794 289 q 888 273 858 289 q 937 228 918 257 q 956 161 956 199 q 919 67 956 103 q 826 32 882 32 q 735 67 772 32 q 697 161 697 103 z "},"⅜":{"ha":1176,"x_min":44,"x_max":1121,"o":"m 939 972 l 188 0 l 249 0 l 1000 972 l 939 972 m 203 682 q 297 701 254 682 q 364 753 339 719 q 389 828 389 786 q 348 934 389 888 q 232 981 307 981 q 115 938 160 981 q 69 828 69 896 l 114 828 q 147 908 114 876 q 232 939 181 939 q 315 906 286 939 q 343 828 343 874 q 324 767 343 793 q 272 727 304 742 q 203 713 240 713 l 203 682 m 228 381 q 356 424 306 381 q 406 540 406 468 q 376 631 406 596 q 301 684 347 667 q 203 701 254 701 l 203 671 q 276 658 240 671 q 336 616 313 644 q 360 544 360 588 q 324 457 360 490 q 228 424 288 424 q 128 458 165 424 q 92 543 92 492 l 44 543 q 67 461 44 499 q 131 402 89 424 q 228 381 172 381 m 793 446 q 814 371 793 404 q 870 319 835 338 q 947 300 906 300 q 1025 319 990 300 q 1081 371 1060 338 q 1101 446 1101 404 q 1081 519 1101 486 q 1026 572 1061 551 q 947 592 992 592 q 868 572 903 592 q 813 519 833 551 q 793 446 793 486 m 838 442 q 868 519 838 488 q 947 551 899 551 q 1026 519 996 551 q 1057 442 1057 488 q 1041 383 1057 408 q 999 344 1025 358 q 947 331 974 331 q 896 344 921 331 q 854 383 871 358 q 838 442 838 408 m 774 157 q 795 74 774 113 q 856 14 817 36 q 947 -8 896 -8 q 1039 14 1000 -8 q 1099 74 1078 36 q 1121 157 1121 113 q 1107 224 1121 194 q 1068 275 1093 254 q 1013 308 1043 296 q 947 319 982 319 q 883 308 914 319 q 826 275 851 296 q 788 224 801 254 q 774 157 774 194 m 818 161 q 837 228 818 199 q 885 273 856 257 q 947 289 915 289 q 1009 273 979 289 q 1058 228 1039 257 q 1076 161 1076 199 q 1040 67 1076 103 q 947 32 1003 32 q 856 67 893 32 q 818 161 818 103 z "},"⅝":{"ha":1225,"x_min":44,"x_max":1169,"o":"m 988 972 l 236 0 l 297 0 l 1049 972 l 988 972 m 436 578 q 414 677 436 635 q 353 744 392 719 q 265 768 314 768 q 183 750 221 768 q 119 703 146 732 l 89 658 q 165 711 129 696 q 247 726 200 726 q 347 685 307 726 q 388 578 388 644 q 347 463 388 504 q 238 421 306 421 q 144 451 183 421 q 83 526 104 482 l 44 500 q 117 413 71 447 q 238 378 163 378 q 338 400 293 378 q 409 467 382 422 q 436 578 436 513 m 200 929 l 440 929 l 440 969 l 165 969 l 89 658 l 147 714 l 200 929 m 842 446 q 863 371 842 404 q 919 319 883 338 q 996 300 954 300 q 1074 319 1039 300 q 1129 371 1108 338 q 1150 446 1150 404 q 1130 519 1150 486 q 1075 572 1110 551 q 996 592 1040 592 q 917 572 951 592 q 862 519 882 551 q 842 446 842 486 m 886 442 q 917 519 886 488 q 996 551 947 551 q 1075 519 1044 551 q 1106 442 1106 488 q 1090 383 1106 408 q 1048 344 1074 358 q 996 331 1022 331 q 944 344 969 331 q 903 383 919 358 q 886 442 886 408 m 822 157 q 844 74 822 113 q 905 14 865 36 q 996 -8 944 -8 q 1088 14 1049 -8 q 1148 74 1126 36 q 1169 157 1169 113 q 1156 224 1169 194 q 1117 275 1142 254 q 1061 308 1092 296 q 996 319 1031 319 q 931 308 963 319 q 875 275 900 296 q 836 224 850 254 q 822 157 822 194 m 867 161 q 885 228 867 199 q 934 273 904 257 q 996 289 964 289 q 1058 273 1028 289 q 1106 228 1088 257 q 1125 161 1125 199 q 1088 67 1125 103 q 996 32 1051 32 q 904 67 942 32 q 867 161 867 103 z "},"⅞":{"ha":1072,"x_min":44,"x_max":1017,"o":"m 835 972 l 83 0 l 144 0 l 896 972 l 835 972 m 44 929 l 378 929 l 107 389 l 156 389 l 446 972 l 44 972 l 44 929 m 689 446 q 710 371 689 404 q 766 319 731 338 q 843 300 801 300 q 921 319 886 300 q 976 371 956 338 q 997 446 997 404 q 977 519 997 486 q 922 572 957 551 q 843 592 888 592 q 764 572 799 592 q 709 519 729 551 q 689 446 689 486 m 733 442 q 764 519 733 488 q 843 551 794 551 q 922 519 892 551 q 953 442 953 488 q 937 383 953 408 q 895 344 921 358 q 843 331 869 331 q 792 344 817 331 q 750 383 767 358 q 733 442 733 408 m 669 157 q 691 74 669 113 q 752 14 713 36 q 843 -8 792 -8 q 935 14 896 -8 q 995 74 974 36 q 1017 157 1017 113 q 1003 224 1017 194 q 964 275 989 254 q 908 308 939 296 q 843 319 878 319 q 778 308 810 319 q 722 275 747 296 q 683 224 697 254 q 669 157 669 194 m 714 161 q 733 228 714 199 q 781 273 751 257 q 843 289 811 289 q 905 273 875 289 q 953 228 935 257 q 972 161 972 199 q 935 67 972 103 q 843 32 899 32 q 751 67 789 32 q 714 161 714 103 z "},"_":{"ha":694,"x_min":0,"x_max":694,"o":"m 0 -171 l 694 -171 l 694 -119 l 0 -119 l 0 -171 z "},"-":{"ha":292,"x_min":7,"x_max":285,"o":"m 7 314 l 285 314 l 285 382 l 7 382 l 7 314 z "},"‐":{"ha":292,"x_min":7,"x_max":285,"o":"m 7 314 l 285 314 l 285 382 l 7 382 l 7 314 z "},"‒":{"ha":819,"x_min":97,"x_max":722,"o":"m 97 314 l 722 314 l 722 382 l 97 382 l 97 314 z "},"–":{"ha":1028,"x_min":97,"x_max":931,"o":"m 97 314 l 931 314 l 931 382 l 97 382 l 97 314 z "},"—":{"ha":1236,"x_min":97,"x_max":1139,"o":"m 97 314 l 1139 314 l 1139 382 l 97 382 l 97 314 z "},"(":{"ha":392,"x_min":125,"x_max":350,"o":"m 285 1083 q 163 754 201 928 q 125 403 125 581 q 163 53 125 226 q 285 -278 201 -121 l 350 -278 q 240 55 275 -117 q 206 403 206 226 q 240 752 206 581 q 350 1083 275 924 l 285 1083 z "},")":{"ha":392,"x_min":42,"x_max":267,"o":"m 107 -278 q 228 53 190 -121 q 267 403 267 226 q 228 754 267 581 q 107 1083 190 928 l 42 1083 q 151 752 117 924 q 186 403 186 581 q 151 55 186 226 q 42 -278 117 -117 l 107 -278 z "},"[":{"ha":394,"x_min":139,"x_max":367,"o":"m 211 1015 l 367 1015 l 367 1083 l 139 1083 l 139 -306 l 367 -306 l 367 -237 l 211 -237 l 211 1015 z "},"]":{"ha":394,"x_min":28,"x_max":256,"o":"m 183 -237 l 28 -237 l 28 -306 l 256 -306 l 256 1083 l 28 1083 l 28 1015 l 183 1015 l 183 -237 z "},"{":{"ha":415,"x_min":86,"x_max":357,"o":"m 231 906 q 251 991 231 963 q 317 1019 271 1019 l 357 1019 l 357 1083 l 296 1083 q 226 1063 257 1083 q 176 1001 194 1043 q 158 889 158 958 l 158 597 q 138 480 158 518 q 86 431 118 442 l 86 375 q 138 326 118 365 q 158 208 158 288 l 158 -83 q 176 -194 158 -151 q 226 -258 194 -237 q 296 -278 257 -278 l 357 -278 l 357 -214 l 317 -214 q 251 -185 271 -214 q 231 -100 231 -156 l 231 158 q 225 250 231 204 q 205 332 219 296 q 165 390 190 368 q 99 413 139 413 l 99 393 q 165 415 139 393 q 205 474 190 438 q 225 556 219 510 q 231 647 231 601 l 231 906 z "},"}":{"ha":415,"x_min":65,"x_max":336,"o":"m 192 -100 q 172 -185 192 -156 q 106 -214 153 -214 l 65 -214 l 65 -278 l 126 -278 q 197 -258 165 -278 q 246 -194 228 -237 q 264 -83 264 -151 l 264 208 q 285 326 264 288 q 336 375 306 365 l 336 431 q 285 480 306 442 q 264 597 264 518 l 264 889 q 246 1001 264 958 q 197 1063 228 1043 q 126 1083 165 1083 l 65 1083 l 65 1019 l 106 1019 q 172 991 153 1019 q 192 906 192 963 l 192 647 q 198 556 192 601 q 218 474 204 510 q 258 415 232 438 q 324 393 283 393 l 324 413 q 258 390 283 413 q 218 332 232 368 q 198 250 204 296 q 192 158 192 204 l 192 -100 z "},"#":{"ha":821,"x_min":49,"x_max":772,"o":"m 104 619 l 289 619 l 303 619 l 578 619 l 592 619 l 772 619 l 772 679 l 104 679 l 104 619 m 49 300 l 717 300 l 717 360 l 540 360 l 519 360 l 240 360 l 225 360 l 49 360 l 49 300 m 640 972 l 563 656 l 560 639 l 488 342 l 483 325 l 404 0 l 472 0 l 708 972 l 640 972 m 349 972 l 113 0 l 181 0 l 260 324 l 263 339 l 338 643 l 340 658 l 417 972 l 349 972 z "},"%":{"ha":1015,"x_min":49,"x_max":967,"o":"m 49 769 q 75 660 49 710 q 150 582 101 611 q 263 553 199 553 q 376 582 328 553 q 450 660 424 611 q 476 769 476 710 q 450 879 476 831 q 376 957 424 928 q 263 986 328 986 q 150 957 199 986 q 75 879 101 928 q 49 769 49 831 m 114 769 q 132 848 114 813 q 183 905 150 883 q 263 926 217 926 q 342 905 310 926 q 393 848 375 883 q 411 769 411 813 q 393 692 411 728 q 342 634 375 656 q 263 613 310 613 q 183 634 217 613 q 132 692 150 656 q 114 769 114 728 m 539 203 q 565 94 539 143 q 640 15 592 44 q 753 -14 689 -14 q 866 15 818 -14 q 940 94 914 44 q 967 203 967 143 q 940 313 967 264 q 866 390 914 361 q 753 419 818 419 q 640 390 689 419 q 565 313 592 361 q 539 203 539 264 m 604 203 q 622 281 604 246 q 674 338 640 317 q 753 360 707 360 q 833 338 800 360 q 883 281 865 317 q 901 203 901 246 q 883 125 901 161 q 833 67 865 89 q 753 46 800 46 q 674 67 707 46 q 622 125 640 89 q 604 203 604 161 m 788 972 l 158 0 l 228 0 l 857 972 l 788 972 z "},"‰":{"ha":1538,"x_min":49,"x_max":1489,"o":"m 1061 203 q 1088 94 1061 143 q 1163 15 1114 44 q 1275 -14 1211 -14 q 1388 15 1340 -14 q 1463 94 1436 44 q 1489 203 1489 143 q 1463 313 1489 264 q 1388 390 1436 361 q 1275 419 1340 419 q 1163 390 1211 419 q 1088 313 1114 361 q 1061 203 1061 264 m 1126 203 q 1144 281 1126 246 q 1196 338 1163 317 q 1275 360 1229 360 q 1355 338 1322 360 q 1406 281 1388 317 q 1424 203 1424 246 q 1406 125 1424 161 q 1355 67 1388 89 q 1275 46 1322 46 q 1196 67 1229 46 q 1144 125 1163 89 q 1126 203 1126 161 m 49 769 q 75 660 49 710 q 150 582 101 611 q 263 553 199 553 q 376 582 328 553 q 450 660 424 611 q 476 769 476 710 q 450 879 476 831 q 376 957 424 928 q 263 986 328 986 q 150 957 199 986 q 75 879 101 928 q 49 769 49 831 m 114 769 q 132 848 114 813 q 183 905 150 883 q 263 926 217 926 q 342 905 310 926 q 393 848 375 883 q 411 769 411 813 q 393 692 411 728 q 342 634 375 656 q 263 613 310 613 q 183 634 217 613 q 132 692 150 656 q 114 769 114 728 m 539 203 q 565 94 539 143 q 640 15 592 44 q 753 -14 689 -14 q 866 15 818 -14 q 940 94 914 44 q 967 203 967 143 q 940 313 967 264 q 866 390 914 361 q 753 419 818 419 q 640 390 689 419 q 565 313 592 361 q 539 203 539 264 m 604 203 q 622 281 604 246 q 674 338 640 317 q 753 360 707 360 q 833 338 800 360 q 883 281 865 317 q 901 203 901 246 q 883 125 901 161 q 833 67 865 89 q 753 46 800 46 q 674 67 707 46 q 622 125 640 89 q 604 203 604 161 m 788 972 l 158 0 l 228 0 l 857 972 l 788 972 z "},"‱":{"ha":2060,"x_min":49,"x_max":2011,"o":"m 1583 203 q 1610 94 1583 143 q 1685 15 1636 44 q 1797 -14 1733 -14 q 1910 15 1863 -14 q 1985 94 1958 44 q 2011 203 2011 143 q 1985 313 2011 264 q 1910 390 1958 361 q 1797 419 1863 419 q 1685 390 1733 419 q 1610 313 1636 361 q 1583 203 1583 264 m 1649 203 q 1667 281 1649 246 q 1718 338 1685 317 q 1797 360 1751 360 q 1877 338 1844 360 q 1928 281 1910 317 q 1946 203 1946 246 q 1928 125 1946 161 q 1877 67 1910 89 q 1797 46 1844 46 q 1718 67 1751 46 q 1667 125 1685 89 q 1649 203 1649 161 m 1061 203 q 1088 94 1061 143 q 1163 15 1114 44 q 1275 -14 1211 -14 q 1388 15 1340 -14 q 1463 94 1436 44 q 1489 203 1489 143 q 1463 313 1489 264 q 1388 390 1436 361 q 1275 419 1340 419 q 1163 390 1211 419 q 1088 313 1114 361 q 1061 203 1061 264 m 1126 203 q 1144 281 1126 246 q 1196 338 1163 317 q 1275 360 1229 360 q 1355 338 1322 360 q 1406 281 1388 317 q 1424 203 1424 246 q 1406 125 1424 161 q 1355 67 1388 89 q 1275 46 1322 46 q 1196 67 1229 46 q 1144 125 1163 89 q 1126 203 1126 161 m 49 769 q 75 660 49 710 q 150 582 101 611 q 263 553 199 553 q 376 582 328 553 q 450 660 424 611 q 476 769 476 710 q 450 879 476 831 q 376 957 424 928 q 263 986 328 986 q 150 957 199 986 q 75 879 101 928 q 49 769 49 831 m 114 769 q 132 848 114 813 q 183 905 150 883 q 263 926 217 926 q 342 905 310 926 q 393 848 375 883 q 411 769 411 813 q 393 692 411 728 q 342 634 375 656 q 263 613 310 613 q 183 634 217 613 q 132 692 150 656 q 114 769 114 728 m 539 203 q 565 94 539 143 q 640 15 592 44 q 753 -14 689 -14 q 866 15 818 -14 q 940 94 914 44 q 967 203 967 143 q 940 313 967 264 q 866 390 914 361 q 753 419 818 419 q 640 390 689 419 q 565 313 592 361 q 539 203 539 264 m 604 203 q 622 281 604 246 q 674 338 640 317 q 753 360 707 360 q 833 338 800 360 q 883 281 865 317 q 901 203 901 246 q 883 125 901 161 q 833 67 865 89 q 753 46 800 46 q 674 67 707 46 q 622 125 640 89 q 604 203 604 161 m 788 972 l 158 0 l 228 0 l 857 972 l 788 972 z "},"'":{"ha":361,"x_min":117,"x_max":272,"o":"m 186 972 l 117 567 l 167 567 l 272 972 l 186 972 z "},"\"":{"ha":611,"x_min":117,"x_max":522,"o":"m 186 972 l 117 567 l 167 567 l 272 972 l 186 972 m 436 972 l 367 567 l 417 567 l 522 972 l 436 972 z "},"‘":{"ha":354,"x_min":92,"x_max":279,"o":"m 178 653 l 279 972 l 228 972 l 92 653 l 178 653 z "},"’":{"ha":365,"x_min":86,"x_max":274,"o":"m 188 972 l 86 653 l 138 653 l 274 972 l 188 972 z "},"“":{"ha":610,"x_min":103,"x_max":535,"o":"m 189 653 l 290 972 l 239 972 l 103 653 l 189 653 m 433 653 l 535 972 l 483 972 l 347 653 l 433 653 z "},"”":{"ha":610,"x_min":75,"x_max":507,"o":"m 176 972 l 75 653 l 126 653 l 263 972 l 176 972 m 421 972 l 319 653 l 371 653 l 507 972 l 421 972 z "},"‚":{"ha":365,"x_min":83,"x_max":271,"o":"m 185 111 l 83 -208 l 135 -208 l 271 111 l 185 111 z "},"„":{"ha":610,"x_min":75,"x_max":507,"o":"m 176 111 l 75 -208 l 126 -208 l 263 111 l 176 111 m 421 111 l 319 -208 l 371 -208 l 507 111 l 421 111 z "},"‹":{"ha":472,"x_min":56,"x_max":375,"o":"m 136 357 l 375 639 l 329 681 l 56 354 l 329 28 l 375 69 l 136 357 z "},"›":{"ha":486,"x_min":111,"x_max":431,"o":"m 350 351 l 111 69 l 157 28 l 431 354 l 157 681 l 111 639 l 350 351 z "},"«":{"ha":694,"x_min":56,"x_max":597,"o":"m 358 357 l 597 639 l 551 681 l 278 354 l 551 28 l 597 69 l 358 357 m 136 357 l 375 639 l 329 681 l 56 354 l 329 28 l 375 69 l 136 357 z "},"»":{"ha":694,"x_min":97,"x_max":639,"o":"m 336 351 l 97 69 l 143 28 l 417 354 l 143 681 l 97 639 l 336 351 m 558 351 l 319 69 l 365 28 l 639 354 l 365 681 l 319 639 l 558 351 z "},"*":{"ha":822,"x_min":154,"x_max":668,"o":"m 649 824 l 403 735 l 418 690 l 668 761 l 649 824 m 590 522 l 429 726 l 393 699 l 538 483 l 590 522 m 285 483 l 429 699 l 393 726 l 232 522 l 285 483 m 154 761 l 404 690 l 419 735 l 174 824 l 154 761 m 379 972 l 389 713 l 433 713 l 443 972 l 379 972 z "},"†":{"ha":753,"x_min":125,"x_max":628,"o":"m 125 750 l 125 682 l 628 682 l 628 750 l 125 750 m 340 972 l 340 -208 l 413 -208 l 413 972 l 340 972 z "},"‡":{"ha":753,"x_min":125,"x_max":628,"o":"m 125 167 l 125 99 l 628 99 l 628 167 l 125 167 m 125 750 l 125 682 l 628 682 l 628 750 l 125 750 m 340 972 l 340 -208 l 413 -208 l 413 972 l 340 972 z "},".":{"ha":394,"x_min":146,"x_max":249,"o":"m 146 33 q 161 -3 146 13 q 197 -18 176 -18 q 234 -3 219 -18 q 249 33 249 13 q 234 71 249 56 q 197 86 219 86 q 161 71 176 86 q 146 33 146 56 z "},",":{"ha":410,"x_min":89,"x_max":293,"o":"m 221 144 l 89 -212 l 140 -231 l 293 117 l 221 144 z "},":":{"ha":417,"x_min":146,"x_max":249,"o":"m 146 33 q 161 -3 146 13 q 197 -18 176 -18 q 234 -3 219 -18 q 249 33 249 13 q 234 71 249 56 q 197 86 219 86 q 161 71 176 86 q 146 33 146 56 m 146 544 q 161 507 146 522 q 197 492 176 492 q 234 507 219 492 q 249 544 249 522 q 234 581 249 565 q 197 596 219 596 q 161 581 176 596 q 146 544 146 565 z "},";":{"ha":428,"x_min":89,"x_max":293,"o":"m 188 544 q 203 507 188 522 q 239 492 218 492 q 276 507 261 492 q 290 544 290 522 q 276 581 290 565 q 239 596 261 596 q 203 581 218 596 q 188 544 188 565 m 221 144 l 89 -212 l 140 -231 l 293 117 l 221 144 z "},"…":{"ha":1201,"x_min":146,"x_max":1056,"o":"m 146 33 q 162 -3 146 13 q 199 -18 178 -18 q 235 -3 219 -18 q 250 33 250 13 q 235 71 250 56 q 199 86 219 86 q 162 71 178 86 q 146 33 146 56 m 549 33 q 565 -3 549 13 q 601 -18 581 -18 q 638 -3 622 -18 q 653 33 653 13 q 638 71 653 56 q 601 86 622 86 q 565 71 581 86 q 549 33 549 56 m 951 33 q 967 -3 951 13 q 1004 -18 983 -18 q 1040 -3 1025 -18 q 1056 33 1056 13 q 1040 71 1056 56 q 1004 86 1025 86 q 967 71 983 86 q 951 33 951 56 z "},"!":{"ha":396,"x_min":146,"x_max":250,"o":"m 153 972 l 171 278 l 225 278 l 243 972 l 153 972 m 146 33 q 162 -3 146 13 q 199 -18 178 -18 q 235 -3 219 -18 q 250 33 250 13 q 235 71 250 56 q 199 86 219 86 q 162 71 178 86 q 146 33 146 56 z "},"¡":{"ha":417,"x_min":167,"x_max":271,"o":"m 264 -340 l 246 354 l 192 354 l 174 -340 l 264 -340 m 271 599 q 256 635 271 619 q 219 650 240 650 q 183 635 199 650 q 167 599 167 619 q 183 561 167 576 q 219 546 199 546 q 256 561 240 546 q 271 599 271 576 z "},"?":{"ha":765,"x_min":86,"x_max":671,"o":"m 597 706 q 562 595 597 647 q 462 511 526 543 q 311 479 397 479 l 289 479 l 308 236 l 363 236 l 368 429 q 519 470 450 432 q 629 569 588 508 q 671 706 671 631 q 649 817 671 765 q 590 906 628 868 q 498 965 551 944 q 379 986 444 986 q 249 966 303 986 q 156 909 194 946 q 86 824 118 872 l 146 786 q 237 883 183 847 q 371 918 290 918 q 492 892 442 918 q 570 817 543 865 q 597 706 597 769 m 282 33 q 297 -3 282 13 q 333 -18 313 -18 q 370 -3 356 -18 q 385 33 385 13 q 370 71 385 56 q 333 86 356 86 q 297 71 313 86 q 282 33 282 56 z "},"¿":{"ha":765,"x_min":94,"x_max":679,"o":"m 168 267 q 204 377 168 325 q 305 461 240 429 q 456 493 369 493 l 476 493 l 457 736 l 403 736 l 397 543 q 247 503 317 540 q 136 403 178 465 q 94 267 94 342 q 116 156 94 207 q 176 66 138 104 q 267 7 214 28 q 386 -14 321 -14 q 517 6 464 -14 q 609 63 571 26 q 679 149 647 100 l 619 186 q 528 90 582 126 q 394 54 475 54 q 273 81 324 54 q 195 155 222 107 q 168 267 168 203 m 483 939 q 469 975 483 960 q 432 990 454 990 q 396 975 411 990 q 381 939 381 960 q 396 901 381 917 q 432 886 411 886 q 469 901 454 886 q 483 939 483 917 z "},"/":{"ha":693,"x_min":21,"x_max":672,"o":"m 599 972 l 21 -208 l 94 -208 l 672 972 l 599 972 z "},"\\":{"ha":671,"x_min":21,"x_max":650,"o":"m 21 972 l 572 0 l 650 0 l 99 972 l 21 972 z "},"⁄":{"ha":979,"x_min":83,"x_max":896,"o":"m 835 972 l 83 0 l 144 0 l 896 972 l 835 972 z "},"|":{"ha":344,"x_min":139,"x_max":206,"o":"m 139 1090 l 139 -299 l 206 -299 l 206 1090 l 139 1090 z "},"¦":{"ha":344,"x_min":139,"x_max":206,"o":"m 139 965 l 139 632 l 206 632 l 206 965 l 139 965 m 206 340 l 139 340 l 139 7 l 206 7 l 206 340 z "},"@":{"ha":1069,"x_min":49,"x_max":1021,"o":"m 342 444 q 369 567 342 517 q 438 644 396 618 q 525 671 481 671 q 595 650 565 671 q 642 594 625 629 q 660 514 660 558 q 633 390 660 440 q 564 315 606 340 q 478 289 522 289 q 378 331 415 289 q 342 444 342 374 m 272 442 q 299 324 272 374 q 368 249 325 275 q 463 224 411 224 q 578 259 526 224 q 663 360 631 294 q 696 513 696 425 q 676 622 696 571 q 619 703 657 672 q 525 735 582 735 q 408 701 467 735 q 311 603 350 668 q 272 442 272 539 m 49 444 q 101 203 49 307 q 255 44 154 100 q 501 -12 356 -12 q 697 11 621 -12 q 836 69 774 35 l 803 124 q 666 66 740 85 q 501 47 592 47 q 294 96 381 47 q 160 234 207 144 q 113 444 113 324 q 146 635 113 547 q 240 787 179 722 q 387 888 301 851 q 576 925 472 925 q 741 893 669 925 q 860 806 813 861 q 933 683 908 751 q 957 542 957 615 q 926 388 957 449 q 855 299 896 328 q 781 271 814 271 q 736 285 751 271 q 716 319 721 299 q 711 360 711 340 q 712 381 711 368 q 714 401 713 394 l 771 722 l 701 722 l 649 386 l 656 386 q 660 295 649 335 q 701 233 672 256 q 772 210 731 210 q 854 228 811 210 q 935 287 897 247 q 997 390 974 326 q 1021 542 1021 453 q 992 704 1021 625 q 908 847 964 783 q 769 947 851 910 q 576 985 686 985 q 363 944 460 985 q 196 829 267 903 q 87 657 125 756 q 49 444 49 558 z "},"&":{"ha":938,"x_min":56,"x_max":893,"o":"m 288 557 l 776 0 l 863 0 l 343 596 q 272 683 306 639 q 238 783 238 726 q 276 883 238 843 q 389 922 315 922 q 469 902 438 922 q 516 850 500 882 q 532 781 532 818 q 484 674 532 726 q 353 574 436 622 q 286 540 325 558 q 207 496 247 521 q 133 436 167 471 q 77 356 99 401 q 56 249 56 310 q 98 108 56 167 q 209 17 140 49 q 357 -14 278 -14 q 525 24 450 -14 q 663 122 600 61 q 782 258 726 183 q 893 404 838 332 l 836 439 q 733 300 786 368 q 624 176 681 232 q 501 87 567 121 q 361 53 436 53 q 245 76 297 53 q 163 145 193 100 q 132 253 132 190 q 160 356 132 314 q 230 429 188 399 q 319 484 272 460 q 403 531 365 508 q 489 589 451 560 q 552 649 526 618 q 592 713 578 681 q 606 781 606 746 q 581 881 606 833 q 508 958 556 928 q 389 988 460 988 q 269 961 319 988 q 190 889 218 935 q 163 783 163 843 q 184 690 163 732 q 235 616 206 649 q 288 557 265 583 z "}}}
